<svg xmlns="http://www.w3.org/2000/svg" xmlns:xlink="http://www.w3.org/1999/xlink" width="300" zoomAndPan="magnify" viewBox="0 0 224.87999 225" height="300" preserveAspectRatio="xMidYMid meet" version="1.0"><defs><clipPath id="6ee4844d61"><path d="M 40 22.546875 L 185 22.546875 L 185 202.453125 L 40 202.453125 Z M 40 22.546875 " clip-rule="nonzero"/></clipPath></defs><g clip-path="url(#6ee4844d61)"><path fill="#010101" d="M 133.492188 36.679688 C 133.539062 36.683594 133.585938 36.660156 133.617188 36.621094 C 135.882812 33.492188 137.582031 31.082031 138.710938 29.386719 C 139.824219 27.714844 140.667969 26.621094 141.238281 26.113281 C 143.695312 23.929688 146.476562 22.550781 149.753906 22.597656 C 151.65625 22.621094 153.464844 22.988281 155.183594 23.695312 C 155.964844 24.019531 157 24.542969 158.296875 25.277344 C 160.4375 26.492188 162.480469 27.746094 164.414062 29.050781 C 168.261719 31.636719 170.847656 33.4375 172.167969 34.457031 C 176.460938 37.765625 178.765625 39.542969 179.078125 39.792969 C 183.574219 43.320312 185.269531 48.691406 183.265625 54.125 C 182.167969 57.105469 180.273438 59.996094 177.984375 62.914062 C 177.179688 63.9375 176.078125 65.375 174.6875 67.222656 C 174.644531 67.277344 174.632812 67.351562 174.660156 67.417969 C 174.949219 68.179688 174.816406 68.90625 174.257812 69.59375 C 171.074219 73.523438 168.316406 77.523438 165.320312 81.582031 C 165.1875 81.769531 165.042969 81.933594 164.894531 82.078125 C 164.558594 82.402344 163.953125 82.585938 163.691406 82.941406 C 144.847656 108.648438 120.945312 141.238281 91.980469 180.714844 C 91.585938 181.253906 91.332031 181.617188 91.21875 181.796875 C 90.503906 182.949219 89.871094 183.421875 88.660156 183.953125 C 77.851562 188.703125 66.550781 193.539062 54.753906 198.46875 C 51.421875 199.859375 49.320312 200.710938 48.445312 201.027344 C 46.640625 201.671875 44.636719 202.441406 42.847656 202.257812 C 39.984375 201.960938 40.273438 198.316406 40.453125 196.261719 C 40.542969 195.253906 40.957031 192.21875 41.699219 187.152344 C 42.050781 184.75 42.449219 181.710938 42.898438 178.035156 C 43.824219 170.394531 44.472656 165.46875 44.839844 163.253906 C 45.582031 158.742188 46.121094 155.417969 46.453125 153.28125 C 46.472656 153.164062 46.527344 153.054688 46.605469 152.964844 C 46.953125 152.5625 47.363281 152.257812 47.742188 151.75 C 48.28125 151.035156 48.808594 150.324219 49.332031 149.609375 C 51.574219 146.546875 58.980469 136.441406 71.546875 119.296875 C 95.132812 87.109375 109.609375 67.3125 114.976562 59.910156 C 116.074219 58.398438 118.105469 55.621094 121.066406 51.574219 C 121.246094 51.332031 121.421875 51.082031 121.59375 50.816406 C 123.375 48.148438 124.972656 45.820312 126.390625 43.832031 C 127.902344 41.710938 129.714844 39.648438 131.117188 37.753906 C 131.679688 36.988281 132.472656 36.632812 133.492188 36.679688 Z M 133.492188 36.679688 " fill-opacity="1" fill-rule="nonzero"/></g><path fill="#f9bf31" d="M 133.089844 58.929688 C 131.070312 61.925781 129.003906 64.613281 126.777344 67.65625 C 95.8125 109.957031 75.96875 137.105469 67.246094 149.101562 C 63.550781 154.183594 61.554688 156.902344 61.253906 157.261719 C 61.203125 157.320312 61.132812 157.351562 61.054688 157.351562 C 59.785156 157.347656 58.347656 157.414062 56.738281 157.550781 C 53.726562 157.800781 51.347656 156.550781 50.3125 153.746094 C 50.21875 153.496094 50.257812 153.21875 50.414062 153.003906 L 123.359375 53.347656 C 123.394531 53.296875 123.460938 53.28125 123.515625 53.3125 C 124.769531 53.992188 126.132812 54.515625 127.328125 55.207031 C 129.46875 56.4375 131.375 57.609375 133.046875 58.722656 C 133.113281 58.769531 133.132812 58.859375 133.089844 58.925781 C 133.089844 58.929688 133.089844 58.929688 133.089844 58.929688 Z M 133.089844 58.929688 " fill-opacity="1" fill-rule="nonzero"/><path fill="#f9bf31" d="M 135.480469 60.480469 C 135.507812 60.441406 135.566406 60.429688 135.605469 60.460938 C 135.609375 60.460938 135.609375 60.460938 135.609375 60.460938 C 136.59375 61.21875 138.113281 62.3125 140.175781 63.75 C 143.035156 65.738281 146.714844 68.542969 149.378906 70.609375 C 149.449219 70.664062 149.464844 70.765625 149.414062 70.839844 L 77.890625 168.304688 C 77.847656 168.363281 77.777344 168.390625 77.703125 168.378906 C 75.539062 168.050781 73.511719 167.675781 71.617188 167.246094 C 69.96875 166.871094 68.558594 166.242188 67.386719 165.355469 C 65.578125 163.988281 64.121094 161.535156 63.308594 159.355469 C 63.269531 159.242188 63.285156 159.117188 63.355469 159.023438 Z M 135.480469 60.480469 " fill-opacity="1" fill-rule="nonzero"/><path fill="#f9bf31" d="M 151.472656 72.5625 C 151.515625 72.507812 151.59375 72.496094 151.652344 72.539062 C 154.632812 74.808594 157.402344 77.199219 159.957031 79.703125 C 160.289062 80.03125 160.679688 80.519531 161.128906 81.175781 C 161.195312 81.273438 161.191406 81.40625 161.121094 81.503906 L 89.332031 179.585938 C 89.277344 179.660156 89.183594 179.691406 89.097656 179.660156 C 88.058594 179.328125 86.625 179.082031 85.484375 178.546875 C 83.292969 177.523438 81.773438 175.835938 80.929688 173.484375 C 80.5 172.296875 80.171875 171.269531 79.945312 170.394531 C 79.933594 170.34375 79.941406 170.292969 79.972656 170.25 Z M 151.472656 72.5625 " fill-opacity="1" fill-rule="nonzero"/><path fill="#faaeb0" d="M 172.628906 65.066406 C 169.296875 62.011719 167.585938 60.339844 164.917969 58.265625 C 163.414062 57.101562 161.707031 55.519531 160.027344 54.230469 C 158.109375 52.765625 156.183594 51.292969 154.246094 49.808594 C 152.308594 48.320312 150.160156 46.921875 148.4375 45.683594 C 144.238281 42.671875 140.738281 40.367188 137.9375 38.773438 C 137.523438 38.539062 137 38.273438 136.363281 37.972656 C 136.261719 37.925781 136.21875 37.804688 136.265625 37.703125 C 136.273438 37.691406 136.277344 37.679688 136.285156 37.671875 C 138.054688 35.292969 139.878906 32.699219 141.757812 29.894531 C 142.132812 29.332031 142.800781 28.617188 143.757812 27.75 C 147.414062 24.445312 152.457031 25.125 156.375 27.460938 C 159.941406 29.589844 162.429688 31.128906 163.839844 32.085938 C 169.117188 35.65625 173.847656 39.199219 178.035156 42.714844 C 181.136719 45.320312 181.84375 49.1875 180.648438 53.011719 C 180.238281 54.324219 179.429688 55.871094 178.628906 57.105469 C 177.527344 58.796875 176.367188 60.425781 175.144531 61.996094 C 173.640625 63.929688 172.84375 64.953125 172.746094 65.0625 C 172.71875 65.097656 172.664062 65.101562 172.628906 65.070312 C 172.628906 65.070312 172.628906 65.066406 172.628906 65.066406 Z M 172.628906 65.066406 " fill-opacity="1" fill-rule="nonzero"/><path fill="#fbdab0" d="M 48.710938 156.996094 C 48.71875 156.953125 48.757812 156.929688 48.800781 156.9375 C 48.820312 156.941406 48.835938 156.949219 48.847656 156.964844 C 50.160156 158.820312 51.972656 159.929688 54.277344 160.296875 C 56.191406 160.597656 59.074219 160.269531 60.414062 160.210938 C 60.511719 160.207031 60.605469 160.265625 60.640625 160.359375 C 61.261719 161.976562 62.160156 163.871094 63.25 165.222656 C 64.828125 167.179688 66.746094 168.605469 68.996094 169.496094 C 69.75 169.796875 71.085938 170.125 73 170.476562 C 74.035156 170.667969 75.382812 170.933594 77.042969 171.269531 C 77.152344 171.292969 77.242188 171.375 77.273438 171.488281 C 77.527344 172.4375 77.824219 173.378906 78.167969 174.308594 C 79.574219 178.121094 82.179688 180.625 85.984375 181.816406 C 86.035156 181.832031 86.058594 181.886719 86.042969 181.9375 C 86.035156 181.960938 86.015625 181.980469 85.992188 181.992188 L 57.320312 194.375 C 57.207031 194.425781 57.070312 194.378906 57.015625 194.265625 C 54.660156 189.652344 50.1875 186.082031 44.984375 185.195312 C 44.910156 185.179688 44.855469 185.109375 44.867188 185.035156 C 45.261719 181.832031 45.769531 177.667969 46.394531 172.546875 C 46.648438 170.46875 47.007812 167.875 47.476562 164.765625 C 48.085938 160.722656 48.496094 158.132812 48.710938 156.996094 Z M 48.710938 156.996094 " fill-opacity="1" fill-rule="nonzero"/><path fill="#ced2d6" d="M 130.40625 43.617188 C 130.324219 43.589844 130.277344 43.5 130.300781 43.417969 C 130.308594 43.398438 130.316406 43.382812 130.328125 43.367188 L 133.125 39.746094 C 133.195312 39.65625 133.316406 39.625 133.421875 39.667969 C 135.238281 40.433594 136.96875 41.359375 138.613281 42.4375 C 140.4375 43.632812 142.75 45.171875 145.558594 47.058594 C 146.855469 47.929688 148.195312 48.886719 149.574219 49.929688 C 151.253906 51.195312 153.269531 52.550781 154.910156 53.835938 C 157.132812 55.585938 159.128906 57.160156 160.894531 58.554688 C 162.808594 60.070312 164.695312 61.804688 166.242188 63.082031 C 168.152344 64.667969 170.007812 66.523438 171.621094 68.128906 C 171.664062 68.171875 171.667969 68.238281 171.632812 68.285156 L 168.535156 72.292969 C 168.480469 72.363281 168.375 72.378906 168.300781 72.324219 C 168.296875 72.320312 168.292969 72.3125 168.289062 72.308594 C 166.140625 70.195312 163.710938 67.988281 161.195312 65.988281 C 160.707031 65.601562 160.277344 65.410156 159.902344 65.40625 C 158.871094 65.40625 158.21875 66.453125 158.671875 67.410156 C 158.773438 67.621094 159.109375 67.933594 159.6875 68.351562 C 162.238281 70.1875 164.023438 72.019531 166.703125 74.480469 C 166.789062 74.558594 166.800781 74.683594 166.734375 74.777344 L 163.414062 79.308594 C 163.386719 79.347656 163.335938 79.355469 163.300781 79.328125 C 163.292969 79.320312 163.289062 79.316406 163.285156 79.3125 C 161.375 76.929688 158.886719 74.914062 156.757812 73.03125 C 154.566406 71.089844 151.621094 68.871094 150.171875 67.675781 C 149.007812 66.71875 147.875 65.855469 146.777344 65.085938 C 144.910156 63.78125 140.691406 60.527344 137.292969 58.234375 C 134.902344 56.621094 132.308594 54.742188 129.847656 53.351562 C 128.097656 52.363281 126.53125 51.5625 125.140625 50.945312 C 125.058594 50.910156 125.023438 50.816406 125.058594 50.738281 C 125.0625 50.726562 125.070312 50.714844 125.078125 50.707031 C 125.480469 50.152344 126.246094 49.011719 127.375 47.289062 C 127.757812 46.703125 128.300781 46.089844 128.761719 45.449219 C 128.796875 45.398438 128.867188 45.382812 128.917969 45.417969 C 128.925781 45.425781 128.929688 45.429688 128.9375 45.4375 C 130.128906 46.746094 131.988281 47.476562 133.480469 48.457031 C 135.878906 50.035156 137.511719 51.09375 138.371094 51.628906 C 141.371094 53.496094 144.207031 55.714844 147.070312 57.53125 C 147.324219 57.695312 147.59375 57.816406 147.875 57.902344 C 147.941406 57.921875 148.007812 57.929688 148.078125 57.925781 C 148.546875 57.886719 148.820312 57.636719 148.898438 57.167969 C 149.007812 56.476562 147.265625 54.832031 146.683594 54.3125 C 144.957031 52.773438 142.460938 51.160156 140.5 49.789062 C 137.941406 48 136.105469 46.925781 131.929688 44.335938 C 131.40625 44.011719 130.898438 43.769531 130.40625 43.617188 Z M 130.40625 43.617188 " fill-opacity="1" fill-rule="nonzero"/><path fill="#43444b" d="M 54.4375 195.660156 C 54.359375 195.722656 54.273438 195.765625 54.183594 195.792969 C 53.121094 196.125 52.101562 196.511719 51.121094 196.945312 C 49.546875 197.644531 48.542969 198.0625 48.101562 198.207031 C 46.558594 198.714844 45.066406 199.15625 43.617188 199.523438 C 43.273438 199.609375 43.097656 199.441406 43.082031 199.015625 C 43.058594 198.242188 43.128906 196.761719 43.289062 194.566406 C 43.445312 192.433594 44.203125 190.167969 44.386719 188.066406 C 44.398438 187.957031 44.492188 187.875 44.601562 187.886719 C 44.605469 187.886719 44.613281 187.886719 44.617188 187.886719 C 45.34375 188.011719 46.0625 188.222656 46.773438 188.515625 C 48.808594 189.359375 50.4375 190.09375 51.832031 191.625 C 52.890625 192.789062 53.789062 193.976562 54.523438 195.1875 C 54.621094 195.34375 54.582031 195.550781 54.4375 195.660156 Z M 54.4375 195.660156 " fill-opacity="1" fill-rule="nonzero"/><path fill="#010101" d="M 135.878906 50.125 C 136.070312 50.265625 136.234375 50.433594 136.363281 50.632812 C 136.492188 50.832031 136.578125 51.042969 136.625 51.269531 C 136.667969 51.496094 136.667969 51.71875 136.621094 51.941406 C 136.574219 52.160156 136.488281 52.359375 136.355469 52.539062 C 136.226562 52.722656 136.0625 52.867188 135.867188 52.980469 C 135.675781 53.09375 135.460938 53.167969 135.230469 53.195312 C 135.003906 53.222656 134.773438 53.207031 134.542969 53.148438 C 134.3125 53.089844 134.101562 52.988281 133.910156 52.847656 C 133.714844 52.710938 133.550781 52.539062 133.421875 52.34375 C 133.292969 52.144531 133.207031 51.933594 133.160156 51.707031 C 133.117188 51.480469 133.117188 51.253906 133.164062 51.035156 C 133.210938 50.816406 133.296875 50.613281 133.429688 50.433594 C 133.558594 50.253906 133.722656 50.105469 133.917969 49.992188 C 134.113281 49.878906 134.324219 49.808594 134.554688 49.78125 C 134.785156 49.75 135.011719 49.765625 135.242188 49.828125 C 135.472656 49.886719 135.683594 49.984375 135.878906 50.125 Z M 135.878906 50.125 " fill-opacity="1" fill-rule="nonzero"/></svg>