<svg xmlns="http://www.w3.org/2000/svg" xmlns:xlink="http://www.w3.org/1999/xlink" width="300" zoomAndPan="magnify" viewBox="0 0 224.87999 225" height="300" preserveAspectRatio="xMidYMid meet" version="1.0"><defs><clipPath id="1ef6a16a2d"><path d="M 98 22.546875 L 205.390625 22.546875 L 205.390625 130 L 98 130 Z M 98 22.546875 " clip-rule="nonzero"/></clipPath><clipPath id="c98c7e8445"><path d="M 22.488281 47 L 181 47 L 181 205.449219 L 22.488281 205.449219 Z M 22.488281 47 " clip-rule="nonzero"/></clipPath></defs><g clip-path="url(#1ef6a16a2d)"><path fill="#ffffff" d="M 182.738281 25.144531 C 181.082031 23.492188 178.78125 22.546875 176.480469 22.546875 C 174.121094 22.546875 171.875 23.492188 170.222656 25.144531 L 102.523438 92.785156 C 100.988281 94.320312 100.105469 96.386719 99.984375 98.570312 L 98.804688 119.878906 C 98.6875 122.355469 99.632812 124.835938 101.402344 126.605469 C 103.054688 128.257812 105.296875 129.203125 107.660156 129.203125 L 108.132812 129.203125 L 129.4375 128.023438 C 131.5625 127.90625 133.628906 126.960938 135.164062 125.425781 L 202.863281 57.84375 C 204.515625 56.132812 205.460938 53.890625 205.460938 51.585938 C 205.460938 49.226562 204.515625 46.984375 202.863281 45.273438 Z M 182.738281 25.144531 " fill-opacity="1" fill-rule="nonzero"/></g><g clip-path="url(#c98c7e8445)"><path fill="#ffffff" d="M 52.378906 205.519531 L 150.5625 205.519531 C 167.050781 205.519531 180.457031 192.109375 180.457031 175.628906 L 180.457031 115.105469 C 180.457031 110.210938 176.492188 106.25 171.601562 106.25 C 166.714844 106.25 162.75 110.210938 162.75 115.105469 L 162.75 175.628906 C 162.75 182.347656 157.285156 187.8125 150.5625 187.8125 L 52.378906 187.8125 C 45.660156 187.8125 40.195312 182.347656 40.195312 175.628906 L 40.195312 77.445312 C 40.195312 70.726562 45.660156 65.257812 52.378906 65.257812 L 112.90625 65.257812 C 117.796875 65.257812 121.761719 61.296875 121.761719 56.40625 C 121.761719 51.515625 117.796875 47.550781 112.90625 47.550781 L 52.378906 47.550781 C 35.894531 47.550781 22.488281 60.960938 22.488281 77.445312 L 22.488281 175.628906 C 22.488281 192.109375 35.894531 205.519531 52.378906 205.519531 Z M 52.378906 205.519531 " fill-opacity="1" fill-rule="nonzero"/></g></svg>