<svg xmlns="http://www.w3.org/2000/svg" xmlns:xlink="http://www.w3.org/1999/xlink" width="300" zoomAndPan="magnify" viewBox="0 0 224.87999 225" height="300" preserveAspectRatio="xMidYMid meet" version="1.0"><defs><clipPath id="fe914f8a1f"><path d="M 22.488281 29 L 202.390625 29 L 202.390625 188.960938 L 22.488281 188.960938 Z M 22.488281 29 " clip-rule="nonzero"/></clipPath><clipPath id="bbe0d96740"><path d="M 30 22.546875 L 193 22.546875 L 193 180 L 30 180 Z M 30 22.546875 " clip-rule="nonzero"/></clipPath></defs><g clip-path="url(#fe914f8a1f)"><path fill="#204188" d="M 56.753906 134.664062 L 35.152344 134.664062 C 30.335938 134.664062 26.335938 138.269531 25.71875 142.917969 C 24.082031 142.894531 22.730469 141.65625 22.570312 140.023438 C 22.5 139.300781 22.464844 138.5625 22.464844 137.824219 L 22.464844 127.664062 C 22.464844 115.234375 32.648438 105.0625 45.101562 105.0625 C 38.625 105.0625 33.375 99.816406 33.375 93.351562 C 33.375 86.886719 38.625 81.644531 45.101562 81.644531 C 51.574219 81.644531 56.824219 86.886719 56.824219 93.351562 C 56.824219 99.816406 51.574219 105.0625 45.101562 105.0625 C 51.257812 105.0625 56.859375 107.550781 60.953125 111.570312 Z M 112.472656 127.675781 C 118.949219 127.675781 124.199219 132.917969 124.199219 139.386719 C 124.199219 145.851562 118.949219 151.09375 112.472656 151.09375 C 100.023438 151.09375 89.839844 161.265625 89.839844 173.699219 L 89.839844 183.855469 C 89.839844 184.597656 89.875 185.332031 89.945312 186.054688 C 90.105469 187.707031 91.480469 188.953125 93.140625 188.953125 L 131.808594 188.953125 C 133.464844 188.953125 134.839844 187.707031 135.003906 186.054688 C 135.070312 185.332031 135.109375 184.597656 135.109375 183.855469 L 135.109375 173.699219 C 135.109375 161.265625 124.921875 151.09375 112.476562 151.09375 L 112.472656 151.09375 C 106 151.09375 100.75 145.851562 100.75 139.386719 C 100.75 132.917969 106 127.675781 112.472656 127.675781 Z M 139.433594 170.429688 C 138.339844 161.414062 132.777344 153.734375 125.039062 149.671875 C 127.339844 146.871094 128.722656 143.289062 128.722656 139.386719 C 128.722656 130.425781 121.445312 123.160156 112.472656 123.160156 C 103.5 123.160156 96.226562 130.425781 96.226562 139.386719 C 96.226562 140.488281 96.335938 141.566406 96.546875 142.605469 C 95.882812 142.316406 95.15625 142.160156 94.402344 142.160156 L 86.464844 142.160156 C 85.539062 137.882812 81.714844 134.664062 77.164062 134.664062 L 61.351562 134.664062 L 70.804688 82.640625 C 71.257812 80.140625 73.390625 78.363281 75.9375 78.363281 L 149.011719 78.363281 C 151.554688 78.363281 153.6875 80.140625 154.140625 82.640625 L 168.976562 164.292969 C 169.261719 165.863281 168.875 167.332031 167.847656 168.558594 C 166.824219 169.785156 165.445312 170.429688 163.847656 170.429688 Z M 169.691406 142.917969 L 199.042969 142.917969 C 200.703125 142.917969 202.074219 141.671875 202.238281 140.023438 C 202.308594 139.300781 202.34375 138.5625 202.34375 137.824219 L 202.34375 127.664062 C 202.34375 115.234375 192.160156 105.0625 179.710938 105.0625 C 186.183594 105.0625 191.433594 99.816406 191.433594 93.351562 C 191.433594 86.886719 186.183594 81.644531 179.710938 81.644531 C 173.234375 81.644531 167.984375 86.886719 167.984375 93.351562 C 167.984375 99.816406 173.234375 105.058594 179.707031 105.0625 C 173.609375 105.0625 168.054688 107.503906 163.976562 111.453125 Z M 135.070312 73.84375 C 134.402344 62.011719 124.507812 52.535156 112.5 52.519531 C 118.960938 52.507812 124.199219 47.269531 124.199219 40.8125 C 124.199219 34.34375 118.949219 29.101562 112.472656 29.101562 C 106 29.101562 100.75 34.34375 100.75 40.8125 C 100.75 47.269531 105.984375 52.507812 112.449219 52.519531 C 100.4375 52.535156 90.546875 62.011719 89.875 73.84375 Z M 135.070312 73.84375 " fill-opacity="1" fill-rule="evenodd"/></g><g clip-path="url(#bbe0d96740)"><path fill="#1ba8f0" d="M 67.304688 157.167969 C 68.554688 157.167969 69.566406 158.179688 69.566406 159.425781 C 69.566406 160.675781 68.554688 161.683594 67.304688 161.683594 L 40.984375 161.683594 C 39.734375 161.683594 38.71875 160.675781 38.71875 159.425781 C 38.71875 158.179688 39.734375 157.167969 40.984375 157.167969 Z M 179.171875 40.539062 C 180.417969 40.539062 181.433594 41.550781 181.433594 42.800781 C 181.433594 44.046875 180.417969 45.058594 179.171875 45.058594 L 152.847656 45.058594 C 151.601562 45.058594 150.585938 44.046875 150.585938 42.800781 C 150.585938 41.550781 151.601562 40.539062 152.847656 40.539062 Z M 179.171875 29.769531 C 180.417969 29.769531 181.433594 30.78125 181.433594 32.027344 C 181.433594 33.277344 180.417969 34.289062 179.171875 34.289062 L 152.847656 34.289062 C 151.601562 34.289062 150.585938 33.277344 150.585938 32.027344 C 150.585938 30.78125 151.601562 29.769531 152.847656 29.769531 Z M 179.171875 51.308594 C 180.417969 51.308594 181.433594 52.320312 181.433594 53.570312 C 181.433594 54.816406 180.417969 55.828125 179.171875 55.828125 L 152.847656 55.828125 C 151.601562 55.828125 150.585938 54.816406 150.585938 53.570312 C 150.585938 52.320312 151.601562 51.308594 152.847656 51.308594 Z M 187.015625 63.042969 C 189.761719 63.042969 192.007812 60.796875 192.007812 58.054688 L 192.007812 27.542969 C 192.007812 24.800781 189.761719 22.554688 187.015625 22.554688 L 145.003906 22.554688 C 142.257812 22.554688 140.011719 24.800781 140.011719 27.542969 L 140.011719 58.054688 C 140.011719 60.796875 142.257812 63.042969 145.003906 63.042969 L 173.382812 63.042969 L 183.003906 73.292969 C 183.667969 74 184.644531 74.21875 185.546875 73.859375 C 186.453125 73.503906 187.015625 72.679688 187.015625 71.707031 Z M 67.304688 146.398438 C 68.554688 146.398438 69.566406 147.410156 69.566406 148.65625 C 69.566406 149.90625 68.554688 150.917969 67.304688 150.917969 L 40.984375 150.917969 C 39.734375 150.917969 38.71875 149.90625 38.71875 148.65625 C 38.71875 147.410156 39.734375 146.398438 40.984375 146.398438 Z M 67.304688 167.9375 C 68.554688 167.9375 69.566406 168.949219 69.566406 170.195312 C 69.566406 171.445312 68.554688 172.457031 67.304688 172.457031 L 40.984375 172.457031 C 39.734375 172.457031 38.71875 171.445312 38.71875 170.195312 C 38.71875 168.949219 39.734375 167.9375 40.984375 167.9375 Z M 82.15625 158.691406 C 82.15625 158.4375 82.261719 158.21875 82.460938 158.0625 L 94.90625 148.109375 C 95.179688 147.890625 95.277344 147.542969 95.164062 147.214844 C 95.046875 146.886719 94.75 146.675781 94.402344 146.675781 L 82.964844 146.675781 C 82.519531 146.675781 82.15625 146.316406 82.15625 145.871094 L 82.15625 144.171875 C 82.15625 141.429688 79.910156 139.183594 77.164062 139.183594 L 35.152344 139.183594 C 32.40625 139.183594 30.160156 141.429688 30.160156 144.171875 L 30.160156 174.683594 C 30.160156 177.425781 32.40625 179.667969 35.152344 179.667969 L 77.164062 179.667969 C 79.910156 179.667969 82.15625 177.425781 82.15625 174.683594 Z M 82.15625 158.691406 " fill-opacity="1" fill-rule="evenodd"/></g></svg>