<svg xmlns="http://www.w3.org/2000/svg" xmlns:xlink="http://www.w3.org/1999/xlink" width="300" zoomAndPan="magnify" viewBox="0 0 224.87999 225" height="300" preserveAspectRatio="xMidYMid meet" version="1.0"><defs><clipPath id="b7d57af02b"><path d="M 33 30.089844 L 198 30.089844 L 198 195 L 33 195 Z M 33 30.089844 " clip-rule="nonzero"/></clipPath><clipPath id="c79d918774"><path d="M 22.488281 54 L 66 54 L 66 106 L 22.488281 106 Z M 22.488281 54 " clip-rule="nonzero"/></clipPath><clipPath id="aa2e36a6bb"><path d="M 158 112 L 211.386719 112 L 211.386719 147 L 158 147 Z M 158 112 " clip-rule="nonzero"/></clipPath></defs><path fill="#ffffff" d="M 195.390625 112.546875 C 195.390625 113.859375 195.359375 115.167969 195.296875 116.476562 C 195.230469 117.789062 195.136719 119.09375 195.007812 120.398438 C 194.878906 121.703125 194.71875 123.003906 194.527344 124.300781 C 194.332031 125.597656 194.109375 126.890625 193.855469 128.175781 C 193.597656 129.460938 193.3125 130.742188 192.992188 132.011719 C 192.675781 133.285156 192.324219 134.546875 191.945312 135.800781 C 191.566406 137.054688 191.152344 138.300781 190.710938 139.535156 C 190.269531 140.769531 189.800781 141.992188 189.296875 143.203125 C 188.796875 144.414062 188.265625 145.613281 187.707031 146.796875 C 187.144531 147.984375 186.558594 149.15625 185.9375 150.3125 C 185.320312 151.46875 184.675781 152.605469 184.003906 153.730469 C 183.328125 154.855469 182.628906 155.964844 181.898438 157.054688 C 181.171875 158.144531 180.417969 159.214844 179.636719 160.269531 C 178.855469 161.320312 178.050781 162.355469 177.21875 163.367188 C 176.390625 164.382812 175.53125 165.375 174.652344 166.34375 C 173.773438 167.316406 172.871094 168.265625 171.945312 169.191406 C 171.015625 170.121094 170.070312 171.023438 169.097656 171.90625 C 168.128906 172.785156 167.136719 173.640625 166.121094 174.472656 C 165.109375 175.304688 164.078125 176.109375 163.023438 176.890625 C 161.972656 177.671875 160.902344 178.425781 159.8125 179.15625 C 158.722656 179.882812 157.617188 180.585938 156.492188 181.257812 C 155.367188 181.933594 154.230469 182.578125 153.074219 183.199219 C 151.917969 183.816406 150.746094 184.40625 149.5625 184.964844 C 148.378906 185.527344 147.179688 186.058594 145.972656 186.558594 C 144.761719 187.0625 143.539062 187.53125 142.304688 187.972656 C 141.070312 188.414062 139.828125 188.828125 138.574219 189.207031 C 137.320312 189.589844 136.058594 189.9375 134.785156 190.257812 C 133.515625 190.574219 132.238281 190.863281 130.953125 191.117188 C 129.667969 191.375 128.375 191.597656 127.082031 191.789062 C 125.785156 191.980469 124.484375 192.144531 123.179688 192.269531 C 121.878906 192.398438 120.570312 192.496094 119.261719 192.558594 C 117.953125 192.625 116.644531 192.65625 115.332031 192.65625 C 114.023438 192.65625 112.714844 192.625 111.40625 192.558594 C 110.097656 192.496094 108.789062 192.398438 107.488281 192.269531 C 106.183594 192.144531 104.882812 191.980469 103.585938 191.789062 C 102.289062 191.597656 101 191.375 99.714844 191.117188 C 98.429688 190.863281 97.152344 190.574219 95.882812 190.257812 C 94.609375 189.9375 93.347656 189.589844 92.09375 189.207031 C 90.839844 188.828125 89.597656 188.414062 88.363281 187.972656 C 87.128906 187.53125 85.90625 187.0625 84.695312 186.558594 C 83.484375 186.058594 82.289062 185.527344 81.105469 184.964844 C 79.921875 184.40625 78.75 183.816406 77.59375 183.199219 C 76.4375 182.578125 75.300781 181.933594 74.175781 181.257812 C 73.050781 180.585938 71.945312 179.882812 70.855469 179.15625 C 69.765625 178.425781 68.695312 177.671875 67.644531 176.890625 C 66.589844 176.109375 65.558594 175.304688 64.546875 174.472656 C 63.53125 173.640625 62.539062 172.785156 61.570312 171.90625 C 60.597656 171.023438 59.648438 170.121094 58.722656 169.191406 C 57.796875 168.265625 56.894531 167.316406 56.015625 166.34375 C 55.132812 165.375 54.277344 164.382812 53.449219 163.367188 C 52.617188 162.355469 51.8125 161.320312 51.03125 160.269531 C 50.25 159.214844 49.496094 158.144531 48.765625 157.054688 C 48.039062 155.964844 47.339844 154.855469 46.664062 153.730469 C 45.992188 152.605469 45.347656 151.46875 44.726562 150.3125 C 44.109375 149.15625 43.523438 147.984375 42.960938 146.796875 C 42.402344 145.613281 41.871094 144.414062 41.371094 143.203125 C 40.867188 141.992188 40.398438 140.769531 39.957031 139.535156 C 39.515625 138.300781 39.101562 137.054688 38.722656 135.800781 C 38.34375 134.546875 37.992188 133.285156 37.675781 132.011719 C 37.355469 130.742188 37.070312 129.460938 36.8125 128.175781 C 36.558594 126.890625 36.332031 125.597656 36.140625 124.300781 C 35.949219 123.003906 35.789062 121.703125 35.660156 120.398438 C 35.53125 119.09375 35.4375 117.789062 35.371094 116.476562 C 35.308594 115.167969 35.273438 113.859375 35.273438 112.546875 C 35.273438 111.234375 35.308594 109.925781 35.371094 108.617188 C 35.4375 107.308594 35.53125 106 35.660156 104.695312 C 35.789062 103.390625 35.949219 102.089844 36.140625 100.792969 C 36.332031 99.496094 36.558594 98.203125 36.8125 96.917969 C 37.070312 95.632812 37.355469 94.355469 37.675781 93.082031 C 37.992188 91.808594 38.34375 90.546875 38.722656 89.292969 C 39.101562 88.039062 39.515625 86.792969 39.957031 85.558594 C 40.398438 84.324219 40.867188 83.101562 41.371094 81.890625 C 41.871094 80.679688 42.402344 79.480469 42.960938 78.296875 C 43.523438 77.109375 44.109375 75.941406 44.726562 74.785156 C 45.347656 73.628906 45.992188 72.488281 46.664062 71.363281 C 47.339844 70.238281 48.039062 69.128906 48.765625 68.039062 C 49.496094 66.949219 50.25 65.878906 51.03125 64.824219 C 51.8125 63.773438 52.617188 62.738281 53.449219 61.726562 C 54.277344 60.710938 55.132812 59.71875 56.015625 58.75 C 56.894531 57.777344 57.796875 56.828125 58.722656 55.902344 C 59.648438 54.972656 60.597656 54.070312 61.570312 53.191406 C 62.539062 52.308594 63.53125 51.453125 64.546875 50.621094 C 65.558594 49.789062 66.589844 48.984375 67.644531 48.203125 C 68.695312 47.421875 69.765625 46.667969 70.855469 45.9375 C 71.945312 45.210938 73.050781 44.507812 74.175781 43.835938 C 75.300781 43.160156 76.4375 42.515625 77.59375 41.898438 C 78.75 41.277344 79.921875 40.6875 81.105469 40.128906 C 82.289062 39.566406 83.484375 39.035156 84.695312 38.535156 C 85.90625 38.035156 87.128906 37.5625 88.363281 37.121094 C 89.597656 36.679688 90.839844 36.265625 92.09375 35.886719 C 93.347656 35.507812 94.609375 35.15625 95.882812 34.839844 C 97.152344 34.519531 98.429688 34.230469 99.714844 33.976562 C 101 33.722656 102.289062 33.496094 103.585938 33.304688 C 104.882812 33.113281 106.183594 32.953125 107.488281 32.824219 C 108.789062 32.695312 110.097656 32.597656 111.40625 32.535156 C 112.714844 32.46875 114.023438 32.4375 115.332031 32.4375 C 116.644531 32.4375 117.953125 32.46875 119.261719 32.535156 C 120.570312 32.597656 121.878906 32.695312 123.179688 32.824219 C 124.484375 32.953125 125.785156 33.113281 127.082031 33.304688 C 128.375 33.496094 129.667969 33.722656 130.953125 33.976562 C 132.238281 34.230469 133.515625 34.519531 134.785156 34.839844 C 136.058594 35.15625 137.320312 35.507812 138.574219 35.886719 C 139.828125 36.265625 141.070312 36.679688 142.304688 37.121094 C 143.539062 37.5625 144.761719 38.035156 145.972656 38.535156 C 147.179688 39.035156 148.378906 39.566406 149.5625 40.128906 C 150.746094 40.6875 151.917969 41.277344 153.074219 41.898438 C 154.230469 42.515625 155.367188 43.160156 156.492188 43.835938 C 157.617188 44.507812 158.722656 45.210938 159.8125 45.9375 C 160.902344 46.667969 161.972656 47.421875 163.023438 48.203125 C 164.078125 48.984375 165.109375 49.789062 166.121094 50.621094 C 167.136719 51.453125 168.128906 52.308594 169.097656 53.191406 C 170.070312 54.070312 171.015625 54.972656 171.945312 55.902344 C 172.871094 56.828125 173.773438 57.777344 174.652344 58.75 C 175.53125 59.71875 176.390625 60.710938 177.21875 61.726562 C 178.050781 62.738281 178.855469 63.773438 179.636719 64.824219 C 180.417969 65.878906 181.171875 66.949219 181.898438 68.039062 C 182.628906 69.128906 183.328125 70.238281 184.003906 71.363281 C 184.675781 72.488281 185.320312 73.628906 185.9375 74.785156 C 186.558594 75.941406 187.144531 77.109375 187.707031 78.296875 C 188.265625 79.480469 188.796875 80.679688 189.296875 81.890625 C 189.800781 83.101562 190.269531 84.324219 190.710938 85.558594 C 191.152344 86.792969 191.566406 88.039062 191.945312 89.292969 C 192.324219 90.546875 192.675781 91.808594 192.992188 93.082031 C 193.3125 94.355469 193.597656 95.632812 193.855469 96.917969 C 194.109375 98.203125 194.332031 99.496094 194.527344 100.792969 C 194.71875 102.089844 194.878906 103.390625 195.007812 104.695312 C 195.136719 106 195.230469 107.308594 195.296875 108.617188 C 195.359375 109.925781 195.390625 111.234375 195.390625 112.546875 Z M 195.390625 112.546875 " fill-opacity="1" fill-rule="nonzero"/><path fill="#03b8ed" d="M 42.257812 79.839844 C 43.890625 86.417969 48.503906 93.375 58.933594 99.140625 C 76.078125 108.597656 62.183594 114.804688 71.054688 124.574219 C 79.925781 134.332031 77.554688 134.035156 78.730469 151.1875 C 79.910156 168.34375 89.078125 170.703125 90.554688 170.703125 C 92.03125 170.703125 85.828125 154.738281 90.554688 150.292969 C 95.28125 145.863281 97.351562 138.761719 103.257812 136.6875 C 109.160156 134.617188 103.554688 127.53125 106.207031 121.023438 C 108.863281 114.519531 94.386719 113.625 87.589844 105.359375 C 80.789062 97.097656 68.96875 102.40625 65.417969 98.261719 C 61.871094 94.128906 53.015625 88.363281 56.265625 84.441406 C 59.515625 80.523438 65.335938 87.78125 68.1875 84.441406 C 71.039062 81.105469 66.015625 77.554688 74.289062 74.304688 C 82.5625 71.050781 79.015625 68.679688 84.039062 65.726562 C 89.0625 62.769531 94.683594 63.355469 91.136719 55.96875 C 87.589844 48.585938 77.242188 61.292969 73.410156 57.148438 C 70.429688 53.9375 70.101562 50.730469 67.632812 48.214844 C 56.675781 56.351562 47.890625 67.246094 42.242188 79.839844 Z M 42.257812 79.839844 " fill-opacity="1" fill-rule="nonzero"/><path fill="#03b8ed" d="M 164.226562 49.152344 C 159.328125 51.523438 154.746094 53.78125 150.730469 53.894531 C 140.539062 54.195312 129.015625 48.726562 124.730469 51.820312 C 120.441406 54.933594 108.917969 53.597656 107.144531 52.261719 C 105.371094 50.925781 101.667969 53.414062 105.101562 55.074219 C 110.140625 57.488281 111.871094 60.398438 115.71875 61.28125 C 119.5625 62.160156 123.253906 62.160156 123.550781 66.449219 C 123.847656 70.738281 118.386719 69.402344 116.609375 72.074219 C 114.835938 74.730469 119.859375 82.128906 118.085938 84.941406 C 116.3125 87.75 110.550781 95.292969 111.445312 100.460938 C 112.339844 105.632812 114.722656 110.816406 126.972656 109.621094 C 139.21875 108.441406 133.953125 123.964844 134.152344 126.480469 C 134.351562 128.992188 137.160156 143.476562 140.695312 145.550781 C 144.242188 147.625 149.566406 135.9375 153.097656 132.402344 C 156.648438 128.851562 160.636719 126.335938 159.457031 119.234375 C 158.28125 112.136719 166.253906 109.917969 166.253906 106.085938 C 166.253906 102.25 155.910156 99.4375 153.695312 90.5625 C 151.480469 81.6875 145.71875 82.722656 145.5625 79.914062 C 145.40625 77.101562 158.265625 85.082031 159.300781 91.300781 C 160.335938 97.507812 170.230469 100.023438 173.480469 94.695312 C 176.730469 89.371094 165.945312 84.640625 170.085938 82.722656 C 174.230469 80.808594 177.324219 92.480469 182.945312 93.816406 C 188.566406 95.152344 182.207031 103.570312 186.335938 104.011719 C 188.90625 104.28125 191.078125 100.105469 193.84375 96.910156 C 190.011719 77.582031 179.242188 60.769531 164.226562 49.152344 Z M 164.226562 49.152344 " fill-opacity="1" fill-rule="nonzero"/><g clip-path="url(#b7d57af02b)"><path fill="#000000" d="M 115.332031 194.789062 C 70.019531 194.789062 33.144531 157.890625 33.144531 112.546875 C 33.144531 67.203125 70.019531 30.308594 115.332031 30.308594 C 160.648438 30.308594 197.519531 67.203125 197.519531 112.546875 C 197.519531 157.890625 160.648438 194.789062 115.332031 194.789062 Z M 115.332031 34.566406 C 72.359375 34.566406 37.402344 69.546875 37.402344 112.546875 C 37.402344 155.546875 72.359375 190.527344 115.332031 190.527344 C 158.308594 190.527344 193.261719 155.546875 193.261719 112.546875 C 193.261719 69.546875 158.308594 34.566406 115.332031 34.566406 Z M 115.332031 34.566406 " fill-opacity="1" fill-rule="nonzero"/></g><g clip-path="url(#c79d918774)"><path fill="#000000" d="M 63.816406 105.902344 C 63.519531 105.902344 63.207031 105.828125 62.921875 105.660156 C 60.777344 104.410156 58.664062 103.144531 56.675781 101.894531 C 55.839844 101.386719 55.585938 100.292969 56.109375 99.453125 C 56.621094 98.617188 57.726562 98.359375 58.550781 98.886719 C 60.523438 100.105469 62.59375 101.355469 64.710938 102.59375 C 65.5625 103.089844 65.84375 104.167969 65.347656 105.019531 C 65.023438 105.589844 64.425781 105.902344 63.816406 105.902344 Z M 51.523438 98.246094 C 51.183594 98.246094 50.84375 98.148438 50.53125 97.949219 C 48.445312 96.542969 46.429688 95.136719 44.542969 93.746094 C 43.746094 93.164062 43.578125 92.054688 44.160156 91.257812 C 44.742188 90.464844 45.847656 90.308594 46.644531 90.875 C 48.488281 92.226562 50.460938 93.617188 52.503906 94.996094 C 53.3125 95.535156 53.539062 96.640625 52.988281 97.449219 C 52.648438 97.960938 52.078125 98.230469 51.511719 98.230469 Z M 39.875 89.65625 C 39.476562 89.65625 39.078125 89.527344 38.753906 89.257812 C 36.738281 87.59375 34.878906 85.960938 33.230469 84.371094 C 32.523438 83.691406 32.492188 82.566406 33.175781 81.859375 C 33.855469 81.148438 34.976562 81.121094 35.6875 81.800781 C 37.277344 83.320312 39.066406 84.910156 41.007812 86.5 C 41.761719 87.125 41.875 88.25 41.25 89 C 40.894531 89.425781 40.382812 89.65625 39.875 89.65625 Z M 29.511719 79.585938 C 29.003906 79.585938 28.492188 79.359375 28.136719 78.933594 C 26.304688 76.6875 24.902344 74.53125 23.949219 72.511719 C 23.539062 71.632812 23.921875 70.566406 24.800781 70.15625 C 25.695312 69.746094 26.746094 70.128906 27.15625 71.007812 C 27.980469 72.753906 29.230469 74.65625 30.875 76.6875 C 31.5 77.441406 31.386719 78.5625 30.621094 79.1875 C 30.292969 79.457031 29.894531 79.585938 29.5 79.585938 Z M 24.433594 66.535156 C 24.304688 66.535156 24.164062 66.519531 24.019531 66.492188 C 23.070312 66.265625 22.472656 65.3125 22.699219 64.363281 C 22.800781 63.921875 22.941406 63.496094 23.097656 63.082031 C 23.949219 60.9375 25.625 59.179688 28.078125 57.84375 C 28.945312 57.375 30.023438 57.6875 30.492188 58.554688 C 30.960938 59.417969 30.648438 60.5 29.78125 60.96875 C 28.078125 61.90625 26.929688 63.070312 26.390625 64.417969 C 26.292969 64.675781 26.207031 64.929688 26.148438 65.1875 C 25.949219 66.007812 25.226562 66.550781 24.417969 66.550781 Z M 57.445312 58.980469 C 57.445312 58.980469 57.300781 58.980469 57.246094 58.980469 C 54.761719 58.695312 52.375 58.484375 50.132812 58.367188 C 49.15625 58.3125 48.402344 57.472656 48.460938 56.496094 C 48.515625 55.515625 49.3125 54.777344 50.332031 54.820312 C 52.632812 54.945312 55.101562 55.160156 57.640625 55.457031 C 58.621094 55.570312 59.316406 56.453125 59.203125 57.417969 C 59.105469 58.328125 58.335938 58.992188 57.445312 58.992188 Z M 35.800781 58.9375 C 34.964844 58.9375 34.210938 58.328125 34.054688 57.472656 C 33.882812 56.507812 34.523438 55.585938 35.488281 55.414062 C 37.6875 55.015625 40.199219 54.777344 42.9375 54.691406 C 43.863281 54.632812 44.742188 55.429688 44.769531 56.410156 C 44.796875 57.390625 44.03125 58.210938 43.050781 58.242188 C 40.484375 58.328125 38.140625 58.539062 36.113281 58.910156 C 36.011719 58.921875 35.898438 58.9375 35.800781 58.9375 Z M 35.800781 58.9375 " fill-opacity="1" fill-rule="nonzero"/></g><g clip-path="url(#aa2e36a6bb)"><path fill="#000000" d="M 189.316406 146.816406 C 188.339844 146.816406 187.542969 146.035156 187.542969 145.054688 C 187.542969 144.074219 188.324219 143.277344 189.304688 143.265625 C 191.859375 143.25 194.214844 143.09375 196.300781 142.824219 C 197.28125 142.710938 198.160156 143.378906 198.289062 144.359375 C 198.414062 145.324219 197.734375 146.21875 196.753906 146.347656 C 194.527344 146.644531 192.015625 146.800781 189.316406 146.816406 Z M 182.082031 146.558594 C 182.082031 146.558594 181.996094 146.558594 181.953125 146.558594 C 179.640625 146.390625 177.183594 146.148438 174.65625 145.820312 C 173.691406 145.691406 172.996094 144.8125 173.125 143.832031 C 173.253906 142.851562 174.148438 142.15625 175.113281 142.300781 C 177.582031 142.613281 179.964844 142.851562 182.207031 143.007812 C 183.1875 143.078125 183.925781 143.933594 183.855469 144.910156 C 183.78125 145.847656 183.003906 146.558594 182.082031 146.558594 Z M 167.730469 144.753906 C 167.632812 144.753906 167.53125 144.753906 167.433594 144.726562 C 165.121094 144.328125 162.707031 143.875 160.265625 143.363281 C 159.300781 143.164062 158.691406 142.226562 158.890625 141.261719 C 159.089844 140.296875 160.011719 139.671875 160.992188 139.882812 C 163.390625 140.382812 165.757812 140.835938 168.042969 141.21875 C 169.007812 141.390625 169.660156 142.300781 169.492188 143.265625 C 169.351562 144.132812 168.597656 144.742188 167.746094 144.742188 Z M 203.539062 144.628906 C 202.84375 144.628906 202.175781 144.214844 201.890625 143.519531 C 201.523438 142.613281 201.949219 141.574219 202.859375 141.207031 C 205.128906 140.269531 206.675781 139.046875 207.457031 137.554688 C 207.910156 136.6875 208.988281 136.347656 209.855469 136.804688 C 210.71875 137.257812 211.0625 138.324219 210.605469 139.203125 C 209.429688 141.460938 207.285156 143.234375 204.21875 144.5 C 203.992188 144.585938 203.765625 144.628906 203.554688 144.628906 Z M 209.300781 133.109375 C 208.546875 133.109375 207.851562 132.628906 207.613281 131.875 C 207.042969 130.085938 205.992188 128.113281 204.476562 126.011719 C 203.90625 125.214844 204.078125 124.105469 204.871094 123.523438 C 205.667969 122.941406 206.773438 123.128906 207.355469 123.921875 C 209.089844 126.324219 210.324219 128.636719 211.003906 130.78125 C 211.300781 131.71875 210.777344 132.714844 209.855469 133.011719 C 209.667969 133.066406 209.5 133.097656 209.316406 133.097656 Z M 201.210938 121.253906 C 200.757812 121.253906 200.289062 121.082031 199.949219 120.726562 C 198.414062 119.164062 196.667969 117.558594 194.738281 115.925781 C 193.988281 115.289062 193.902344 114.179688 194.527344 113.425781 C 195.152344 112.675781 196.273438 112.574219 197.023438 113.214844 C 199.027344 114.90625 200.855469 116.59375 202.460938 118.226562 C 203.140625 118.921875 203.140625 120.046875 202.445312 120.742188 C 202.105469 121.082031 201.652344 121.253906 201.195312 121.253906 Z M 201.210938 121.253906 " fill-opacity="1" fill-rule="nonzero"/></g><path fill="#000000" d="M 134.351562 137.9375 C 134.507812 137.980469 134.648438 138.023438 134.804688 138.066406 C 134.835938 138.066406 134.847656 138.066406 134.875 138.082031 L 138.78125 146.816406 L 139.957031 147.171875 L 142.996094 148.078125 L 143.789062 140.425781 C 143.789062 140.425781 147.71875 141.375 148.53125 139.5 C 148.996094 138.40625 148.0625 136.929688 146.457031 136.066406 C 146.171875 135.910156 145.863281 135.738281 145.535156 135.566406 L 149.75 129.234375 L 145.777344 127.300781 L 137.347656 131.234375 C 131.386719 128.140625 123.765625 124.320312 115.902344 120.683594 L 132.335938 106.839844 L 126.148438 105.078125 L 125.949219 105.164062 L 125.933594 105.164062 C 125.933594 105.164062 110.421875 111.496094 110.421875 111.496094 C 108.960938 110.515625 106.960938 109.480469 105.371094 108.710938 C 105.214844 108.640625 105.074219 108.570312 104.929688 108.5 C 103.78125 107.945312 102.53125 108.160156 102.25 108.941406 C 102.25 108.941406 101.625 110.816406 101.636719 110.972656 C 101.722656 111.652344 102.449219 112.375 103.441406 112.675781 C 104.164062 112.886719 105 113.144531 105.867188 113.371094 L 102.363281 114.804688 C 88.425781 109.179688 76.363281 105.972656 74.644531 110.785156 C 73.453125 114.09375 80.972656 118.882812 81.257812 119.050781 C 84.890625 121.222656 89.71875 123.410156 95.136719 125.542969 C 95.578125 125.710938 98.046875 126.664062 98.105469 126.675781 L 98.671875 127.800781 L 99.863281 130.15625 C 99.226562 129.816406 98.601562 129.503906 98.019531 129.234375 C 97.863281 129.164062 97.722656 129.089844 97.578125 129.019531 C 96.429688 128.46875 95.179688 128.679688 94.898438 129.460938 C 94.898438 129.460938 94.273438 131.335938 94.285156 131.492188 C 94.371094 132.171875 95.097656 132.898438 96.089844 133.195312 C 96.953125 133.464844 101.894531 134.644531 102.148438 134.671875 L 109.984375 150.25 L 111.800781 151.160156 L 115.757812 153.148438 L 112.054688 131.464844 " fill-opacity="1" fill-rule="nonzero"/></svg>