<svg xmlns="http://www.w3.org/2000/svg" xmlns:xlink="http://www.w3.org/1999/xlink" width="300" zoomAndPan="magnify" viewBox="0 0 224.87999 225" height="300" preserveAspectRatio="xMidYMid meet" version="1.0"><defs><clipPath id="c1f8c134ae"><path d="M 22.488281 22.546875 L 209.136719 22.546875 L 209.136719 209.199219 L 22.488281 209.199219 Z M 22.488281 22.546875 " clip-rule="nonzero"/></clipPath><clipPath id="f31791a1cb"><path d="M 209.136719 115.875 C 209.136719 117.402344 209.101562 118.925781 209.027344 120.453125 C 208.949219 121.976562 208.839844 123.5 208.6875 125.019531 C 208.539062 126.539062 208.351562 128.054688 208.128906 129.566406 C 207.902344 131.078125 207.644531 132.582031 207.34375 134.078125 C 207.046875 135.578125 206.710938 137.066406 206.339844 138.550781 C 205.96875 140.03125 205.5625 141.503906 205.121094 142.964844 C 204.675781 144.425781 204.199219 145.875 203.683594 147.3125 C 203.167969 148.75 202.617188 150.175781 202.035156 151.585938 C 201.449219 153 200.832031 154.394531 200.179688 155.773438 C 199.523438 157.15625 198.839844 158.519531 198.117188 159.867188 C 197.398438 161.214844 196.644531 162.542969 195.859375 163.851562 C 195.074219 165.160156 194.257812 166.453125 193.410156 167.722656 C 192.5625 168.992188 191.683594 170.238281 190.773438 171.46875 C 189.863281 172.695312 188.921875 173.898438 187.953125 175.078125 C 186.984375 176.257812 185.988281 177.414062 184.960938 178.546875 C 183.9375 179.679688 182.882812 180.785156 181.804688 181.863281 C 180.722656 182.945312 179.617188 183.996094 178.488281 185.023438 C 177.355469 186.046875 176.199219 187.046875 175.019531 188.015625 C 173.835938 188.984375 172.632812 189.921875 171.40625 190.832031 C 170.179688 191.742188 168.933594 192.621094 167.660156 193.46875 C 166.390625 194.320312 165.101562 195.136719 163.792969 195.921875 C 162.480469 196.707031 161.152344 197.457031 159.804688 198.179688 C 158.460938 198.898438 157.09375 199.585938 155.714844 200.238281 C 154.335938 200.890625 152.9375 201.511719 151.527344 202.09375 C 150.117188 202.679688 148.691406 203.226562 147.253906 203.742188 C 145.816406 204.257812 144.367188 204.738281 142.902344 205.179688 C 141.441406 205.625 139.972656 206.03125 138.488281 206.402344 C 137.007812 206.773438 135.519531 207.105469 134.019531 207.40625 C 132.523438 207.703125 131.019531 207.964844 129.507812 208.1875 C 127.996094 208.414062 126.480469 208.597656 124.960938 208.75 C 123.441406 208.898438 121.917969 209.011719 120.390625 209.085938 C 118.867188 209.160156 117.339844 209.199219 115.8125 209.199219 C 114.285156 209.199219 112.757812 209.160156 111.234375 209.085938 C 109.707031 209.011719 108.1875 208.898438 106.664062 208.75 C 105.144531 208.597656 103.628906 208.414062 102.121094 208.1875 C 100.609375 207.964844 99.105469 207.703125 97.605469 207.40625 C 96.109375 207.105469 94.617188 206.773438 93.136719 206.402344 C 91.65625 206.03125 90.183594 205.625 88.722656 205.179688 C 87.261719 204.738281 85.8125 204.257812 84.371094 203.742188 C 82.933594 203.226562 81.511719 202.679688 80.097656 202.09375 C 78.6875 201.511719 77.292969 200.890625 75.910156 200.238281 C 74.53125 199.585938 73.167969 198.898438 71.820312 198.179688 C 70.472656 197.457031 69.144531 196.707031 67.835938 195.921875 C 66.523438 195.136719 65.234375 194.320312 63.964844 193.46875 C 62.695312 192.621094 61.445312 191.742188 60.21875 190.832031 C 58.992188 189.921875 57.789062 188.984375 56.609375 188.015625 C 55.425781 187.046875 54.273438 186.046875 53.140625 185.023438 C 52.007812 183.996094 50.902344 182.945312 49.824219 181.863281 C 48.742188 180.785156 47.691406 179.679688 46.664062 178.546875 C 45.636719 177.414062 44.640625 176.257812 43.671875 175.078125 C 42.703125 173.898438 41.761719 172.695312 40.855469 171.46875 C 39.945312 170.238281 39.066406 168.992188 38.214844 167.722656 C 37.367188 166.453125 36.550781 165.160156 35.765625 163.851562 C 34.980469 162.542969 34.226562 161.214844 33.507812 159.867188 C 32.789062 158.519531 32.101562 157.15625 31.449219 155.773438 C 30.796875 154.394531 30.175781 153 29.59375 151.585938 C 29.007812 150.175781 28.457031 148.75 27.945312 147.3125 C 27.429688 145.875 26.949219 144.425781 26.507812 142.964844 C 26.0625 141.503906 25.65625 140.03125 25.285156 138.550781 C 24.914062 137.066406 24.578125 135.578125 24.28125 134.078125 C 23.984375 132.582031 23.722656 131.078125 23.5 129.566406 C 23.273438 128.054688 23.085938 126.539062 22.9375 125.019531 C 22.789062 123.5 22.675781 121.976562 22.601562 120.453125 C 22.527344 118.925781 22.488281 117.402344 22.488281 115.875 C 22.488281 114.347656 22.527344 112.820312 22.601562 111.292969 C 22.675781 109.769531 22.789062 108.246094 22.9375 106.726562 C 23.085938 105.207031 23.273438 103.691406 23.5 102.179688 C 23.722656 100.667969 23.984375 99.164062 24.28125 97.667969 C 24.578125 96.167969 24.914062 94.679688 25.285156 93.195312 C 25.65625 91.714844 26.0625 90.242188 26.507812 88.78125 C 26.949219 87.320312 27.429688 85.871094 27.945312 84.433594 C 28.457031 82.996094 29.007812 81.570312 29.59375 80.160156 C 30.175781 78.75 30.796875 77.351562 31.449219 75.972656 C 32.101562 74.589844 32.789062 73.226562 33.507812 71.878906 C 34.226562 70.53125 34.980469 69.203125 35.765625 67.894531 C 36.550781 66.585938 37.367188 65.292969 38.214844 64.023438 C 39.066406 62.753906 39.945312 61.507812 40.855469 60.28125 C 41.761719 59.050781 42.703125 57.847656 43.671875 56.667969 C 44.640625 55.488281 45.636719 54.332031 46.664062 53.199219 C 47.691406 52.066406 48.742188 50.960938 49.824219 49.882812 C 50.902344 48.800781 52.007812 47.75 53.140625 46.722656 C 54.273438 45.699219 55.425781 44.699219 56.609375 43.730469 C 57.789062 42.761719 58.992188 41.824219 60.21875 40.914062 C 61.445312 40.003906 62.695312 39.125 63.964844 38.277344 C 65.234375 37.425781 66.523438 36.609375 67.835938 35.824219 C 69.144531 35.039062 70.472656 34.289062 71.820312 33.566406 C 73.167969 32.847656 74.53125 32.160156 75.910156 31.507812 C 77.292969 30.855469 78.6875 30.238281 80.097656 29.652344 C 81.511719 29.066406 82.933594 28.519531 84.371094 28.003906 C 85.8125 27.488281 87.261719 27.011719 88.722656 26.566406 C 90.183594 26.125 91.65625 25.714844 93.136719 25.34375 C 94.617188 24.972656 96.109375 24.640625 97.605469 24.339844 C 99.105469 24.042969 100.609375 23.78125 102.121094 23.558594 C 103.628906 23.335938 105.144531 23.148438 106.664062 22.996094 C 108.1875 22.847656 109.707031 22.734375 111.234375 22.660156 C 112.757812 22.585938 114.285156 22.546875 115.8125 22.546875 C 117.339844 22.546875 118.867188 22.585938 120.390625 22.660156 C 121.917969 22.734375 123.441406 22.847656 124.960938 22.996094 C 126.480469 23.148438 127.996094 23.335938 129.507812 23.558594 C 131.019531 23.78125 132.523438 24.042969 134.019531 24.339844 C 135.519531 24.640625 137.007812 24.972656 138.488281 25.34375 C 139.972656 25.714844 141.441406 26.125 142.902344 26.566406 C 144.367188 27.011719 145.816406 27.488281 147.253906 28.003906 C 148.691406 28.519531 150.117188 29.066406 151.527344 29.652344 C 152.9375 30.238281 154.335938 30.855469 155.714844 31.507812 C 157.09375 32.160156 158.460938 32.847656 159.804688 33.566406 C 161.152344 34.289062 162.480469 35.039062 163.792969 35.824219 C 165.101562 36.609375 166.390625 37.425781 167.660156 38.277344 C 168.933594 39.125 170.179688 40.003906 171.40625 40.914062 C 172.632812 41.824219 173.835938 42.761719 175.019531 43.730469 C 176.199219 44.699219 177.355469 45.699219 178.488281 46.722656 C 179.617188 47.75 180.722656 48.800781 181.804688 49.882812 C 182.882812 50.960938 183.9375 52.066406 184.960938 53.199219 C 185.988281 54.332031 186.984375 55.488281 187.953125 56.667969 C 188.921875 57.847656 189.863281 59.050781 190.773438 60.28125 C 191.683594 61.507812 192.5625 62.753906 193.410156 64.023438 C 194.257812 65.292969 195.074219 66.585938 195.859375 67.894531 C 196.644531 69.203125 197.398438 70.53125 198.117188 71.878906 C 198.839844 73.226562 199.523438 74.589844 200.179688 75.972656 C 200.832031 77.351562 201.449219 78.75 202.035156 80.160156 C 202.617188 81.570312 203.167969 82.996094 203.683594 84.433594 C 204.199219 85.871094 204.675781 87.320312 205.121094 88.78125 C 205.5625 90.242188 205.96875 91.714844 206.339844 93.195312 C 206.710938 94.679688 207.046875 96.167969 207.34375 97.667969 C 207.644531 99.164062 207.902344 100.667969 208.128906 102.179688 C 208.351562 103.691406 208.539062 105.207031 208.6875 106.726562 C 208.839844 108.246094 208.949219 109.769531 209.027344 111.292969 C 209.101562 112.820312 209.136719 114.347656 209.136719 115.875 Z M 209.136719 115.875 " clip-rule="nonzero"/></clipPath><linearGradient x1="243" gradientTransform="matrix(0.388855, 0, 0, 0.388855, 21.321433, -2051.215706)" y1="5333.000385" x2="243" gradientUnits="userSpaceOnUse" y2="5813.000378" id="0fc4d701d0"><stop stop-opacity="1" stop-color="rgb(36.470032%, 56.858826%, 97.648621%)" offset="0"/><stop stop-opacity="1" stop-color="rgb(36.633301%, 56.689453%, 97.657776%)" offset="0.0078125"/><stop stop-opacity="1" stop-color="rgb(36.959839%, 56.35376%, 97.676086%)" offset="0.015625"/><stop stop-opacity="1" stop-color="rgb(37.287903%, 56.016541%, 97.694397%)" offset="0.0234375"/><stop stop-opacity="1" stop-color="rgb(37.615967%, 55.679321%, 97.714233%)" offset="0.03125"/><stop stop-opacity="1" stop-color="rgb(37.944031%, 55.342102%, 97.732544%)" offset="0.0390625"/><stop stop-opacity="1" stop-color="rgb(38.272095%, 55.004883%, 97.750854%)" offset="0.046875"/><stop stop-opacity="1" stop-color="rgb(38.600159%, 54.667664%, 97.769165%)" offset="0.0546875"/><stop stop-opacity="1" stop-color="rgb(38.926697%, 54.33197%, 97.787476%)" offset="0.0625"/><stop stop-opacity="1" stop-color="rgb(39.254761%, 53.994751%, 97.805786%)" offset="0.0703125"/><stop stop-opacity="1" stop-color="rgb(39.582825%, 53.657532%, 97.824097%)" offset="0.078125"/><stop stop-opacity="1" stop-color="rgb(39.910889%, 53.320312%, 97.842407%)" offset="0.0859375"/><stop stop-opacity="1" stop-color="rgb(40.238953%, 52.983093%, 97.860718%)" offset="0.09375"/><stop stop-opacity="1" stop-color="rgb(40.567017%, 52.6474%, 97.879028%)" offset="0.101562"/><stop stop-opacity="1" stop-color="rgb(40.893555%, 52.310181%, 97.897339%)" offset="0.109375"/><stop stop-opacity="1" stop-color="rgb(41.221619%, 51.972961%, 97.915649%)" offset="0.117188"/><stop stop-opacity="1" stop-color="rgb(41.549683%, 51.635742%, 97.93396%)" offset="0.125"/><stop stop-opacity="1" stop-color="rgb(41.877747%, 51.298523%, 97.952271%)" offset="0.132812"/><stop stop-opacity="1" stop-color="rgb(42.205811%, 50.961304%, 97.970581%)" offset="0.140625"/><stop stop-opacity="1" stop-color="rgb(42.533875%, 50.62561%, 97.988892%)" offset="0.148438"/><stop stop-opacity="1" stop-color="rgb(42.860413%, 50.288391%, 98.007202%)" offset="0.15625"/><stop stop-opacity="1" stop-color="rgb(43.188477%, 49.951172%, 98.025513%)" offset="0.164063"/><stop stop-opacity="1" stop-color="rgb(43.516541%, 49.613953%, 98.043823%)" offset="0.171875"/><stop stop-opacity="1" stop-color="rgb(43.844604%, 49.276733%, 98.062134%)" offset="0.179688"/><stop stop-opacity="1" stop-color="rgb(44.172668%, 48.939514%, 98.080444%)" offset="0.1875"/><stop stop-opacity="1" stop-color="rgb(44.500732%, 48.603821%, 98.098755%)" offset="0.195312"/><stop stop-opacity="1" stop-color="rgb(44.827271%, 48.266602%, 98.117065%)" offset="0.203125"/><stop stop-opacity="1" stop-color="rgb(45.155334%, 47.929382%, 98.135376%)" offset="0.210937"/><stop stop-opacity="1" stop-color="rgb(45.483398%, 47.592163%, 98.153687%)" offset="0.21875"/><stop stop-opacity="1" stop-color="rgb(45.811462%, 47.254944%, 98.171997%)" offset="0.226563"/><stop stop-opacity="1" stop-color="rgb(46.139526%, 46.917725%, 98.190308%)" offset="0.234375"/><stop stop-opacity="1" stop-color="rgb(46.46759%, 46.582031%, 98.208618%)" offset="0.242188"/><stop stop-opacity="1" stop-color="rgb(46.794128%, 46.244812%, 98.226929%)" offset="0.25"/><stop stop-opacity="1" stop-color="rgb(47.122192%, 45.907593%, 98.245239%)" offset="0.257812"/><stop stop-opacity="1" stop-color="rgb(47.450256%, 45.570374%, 98.26355%)" offset="0.265625"/><stop stop-opacity="1" stop-color="rgb(47.77832%, 45.233154%, 98.28186%)" offset="0.273438"/><stop stop-opacity="1" stop-color="rgb(48.106384%, 44.897461%, 98.301697%)" offset="0.28125"/><stop stop-opacity="1" stop-color="rgb(48.434448%, 44.560242%, 98.320007%)" offset="0.289062"/><stop stop-opacity="1" stop-color="rgb(48.760986%, 44.223022%, 98.338318%)" offset="0.296875"/><stop stop-opacity="1" stop-color="rgb(49.08905%, 43.885803%, 98.356628%)" offset="0.304688"/><stop stop-opacity="1" stop-color="rgb(49.417114%, 43.548584%, 98.374939%)" offset="0.3125"/><stop stop-opacity="1" stop-color="rgb(49.745178%, 43.211365%, 98.39325%)" offset="0.320312"/><stop stop-opacity="1" stop-color="rgb(50.073242%, 42.875671%, 98.41156%)" offset="0.328125"/><stop stop-opacity="1" stop-color="rgb(50.401306%, 42.538452%, 98.429871%)" offset="0.335937"/><stop stop-opacity="1" stop-color="rgb(50.727844%, 42.201233%, 98.448181%)" offset="0.34375"/><stop stop-opacity="1" stop-color="rgb(51.055908%, 41.864014%, 98.466492%)" offset="0.351563"/><stop stop-opacity="1" stop-color="rgb(51.383972%, 41.526794%, 98.484802%)" offset="0.359375"/><stop stop-opacity="1" stop-color="rgb(51.712036%, 41.189575%, 98.503113%)" offset="0.367188"/><stop stop-opacity="1" stop-color="rgb(52.0401%, 40.853882%, 98.521423%)" offset="0.375"/><stop stop-opacity="1" stop-color="rgb(52.368164%, 40.516663%, 98.539734%)" offset="0.382812"/><stop stop-opacity="1" stop-color="rgb(52.694702%, 40.179443%, 98.558044%)" offset="0.390625"/><stop stop-opacity="1" stop-color="rgb(53.022766%, 39.842224%, 98.576355%)" offset="0.398438"/><stop stop-opacity="1" stop-color="rgb(53.35083%, 39.505005%, 98.594666%)" offset="0.40625"/><stop stop-opacity="1" stop-color="rgb(53.678894%, 39.167786%, 98.612976%)" offset="0.414062"/><stop stop-opacity="1" stop-color="rgb(54.006958%, 38.832092%, 98.631287%)" offset="0.421875"/><stop stop-opacity="1" stop-color="rgb(54.335022%, 38.494873%, 98.649597%)" offset="0.429687"/><stop stop-opacity="1" stop-color="rgb(54.66156%, 38.157654%, 98.667908%)" offset="0.4375"/><stop stop-opacity="1" stop-color="rgb(54.989624%, 37.820435%, 98.686218%)" offset="0.445313"/><stop stop-opacity="1" stop-color="rgb(55.317688%, 37.483215%, 98.704529%)" offset="0.453125"/><stop stop-opacity="1" stop-color="rgb(55.645752%, 37.147522%, 98.722839%)" offset="0.460938"/><stop stop-opacity="1" stop-color="rgb(55.973816%, 36.810303%, 98.74115%)" offset="0.46875"/><stop stop-opacity="1" stop-color="rgb(56.30188%, 36.473083%, 98.75946%)" offset="0.476562"/><stop stop-opacity="1" stop-color="rgb(56.628418%, 36.135864%, 98.777771%)" offset="0.484375"/><stop stop-opacity="1" stop-color="rgb(56.956482%, 35.798645%, 98.796082%)" offset="0.492188"/><stop stop-opacity="1" stop-color="rgb(57.284546%, 35.461426%, 98.814392%)" offset="0.5"/><stop stop-opacity="1" stop-color="rgb(57.61261%, 35.125732%, 98.832703%)" offset="0.507812"/><stop stop-opacity="1" stop-color="rgb(57.940674%, 34.788513%, 98.851013%)" offset="0.515625"/><stop stop-opacity="1" stop-color="rgb(58.268738%, 34.451294%, 98.87085%)" offset="0.523438"/><stop stop-opacity="1" stop-color="rgb(58.595276%, 34.114075%, 98.88916%)" offset="0.53125"/><stop stop-opacity="1" stop-color="rgb(58.92334%, 33.776855%, 98.907471%)" offset="0.539062"/><stop stop-opacity="1" stop-color="rgb(59.251404%, 33.439636%, 98.925781%)" offset="0.546875"/><stop stop-opacity="1" stop-color="rgb(59.579468%, 33.103943%, 98.944092%)" offset="0.554688"/><stop stop-opacity="1" stop-color="rgb(59.907532%, 32.766724%, 98.962402%)" offset="0.5625"/><stop stop-opacity="1" stop-color="rgb(60.235596%, 32.429504%, 98.980713%)" offset="0.570312"/><stop stop-opacity="1" stop-color="rgb(60.562134%, 32.092285%, 98.999023%)" offset="0.578125"/><stop stop-opacity="1" stop-color="rgb(60.890198%, 31.755066%, 99.017334%)" offset="0.585938"/><stop stop-opacity="1" stop-color="rgb(61.218262%, 31.419373%, 99.035645%)" offset="0.59375"/><stop stop-opacity="1" stop-color="rgb(61.546326%, 31.082153%, 99.053955%)" offset="0.601562"/><stop stop-opacity="1" stop-color="rgb(61.87439%, 30.744934%, 99.072266%)" offset="0.609375"/><stop stop-opacity="1" stop-color="rgb(62.202454%, 30.407715%, 99.090576%)" offset="0.617188"/><stop stop-opacity="1" stop-color="rgb(62.528992%, 30.070496%, 99.108887%)" offset="0.625"/><stop stop-opacity="1" stop-color="rgb(62.857056%, 29.733276%, 99.127197%)" offset="0.632812"/><stop stop-opacity="1" stop-color="rgb(63.18512%, 29.397583%, 99.145508%)" offset="0.640625"/><stop stop-opacity="1" stop-color="rgb(63.513184%, 29.060364%, 99.163818%)" offset="0.648438"/><stop stop-opacity="1" stop-color="rgb(63.841248%, 28.723145%, 99.182129%)" offset="0.65625"/><stop stop-opacity="1" stop-color="rgb(64.169312%, 28.385925%, 99.200439%)" offset="0.664063"/><stop stop-opacity="1" stop-color="rgb(64.49585%, 28.048706%, 99.21875%)" offset="0.671875"/><stop stop-opacity="1" stop-color="rgb(64.823914%, 27.711487%, 99.237061%)" offset="0.679688"/><stop stop-opacity="1" stop-color="rgb(65.151978%, 27.375793%, 99.255371%)" offset="0.6875"/><stop stop-opacity="1" stop-color="rgb(65.480042%, 27.038574%, 99.273682%)" offset="0.695313"/><stop stop-opacity="1" stop-color="rgb(65.808105%, 26.701355%, 99.291992%)" offset="0.703125"/><stop stop-opacity="1" stop-color="rgb(66.136169%, 26.364136%, 99.310303%)" offset="0.710938"/><stop stop-opacity="1" stop-color="rgb(66.464233%, 26.026917%, 99.328613%)" offset="0.71875"/><stop stop-opacity="1" stop-color="rgb(66.790771%, 25.689697%, 99.346924%)" offset="0.726562"/><stop stop-opacity="1" stop-color="rgb(67.118835%, 25.354004%, 99.365234%)" offset="0.734375"/><stop stop-opacity="1" stop-color="rgb(67.446899%, 25.016785%, 99.383545%)" offset="0.742188"/><stop stop-opacity="1" stop-color="rgb(67.774963%, 24.679565%, 99.401855%)" offset="0.75"/><stop stop-opacity="1" stop-color="rgb(68.103027%, 24.342346%, 99.420166%)" offset="0.757812"/><stop stop-opacity="1" stop-color="rgb(68.431091%, 24.005127%, 99.440002%)" offset="0.765625"/><stop stop-opacity="1" stop-color="rgb(68.757629%, 23.669434%, 99.458313%)" offset="0.773438"/><stop stop-opacity="1" stop-color="rgb(69.085693%, 23.332214%, 99.476624%)" offset="0.78125"/><stop stop-opacity="1" stop-color="rgb(69.413757%, 22.994995%, 99.494934%)" offset="0.789062"/><stop stop-opacity="1" stop-color="rgb(69.741821%, 22.657776%, 99.513245%)" offset="0.796875"/><stop stop-opacity="1" stop-color="rgb(70.069885%, 22.320557%, 99.531555%)" offset="0.804688"/><stop stop-opacity="1" stop-color="rgb(70.397949%, 21.983337%, 99.549866%)" offset="0.8125"/><stop stop-opacity="1" stop-color="rgb(70.724487%, 21.647644%, 99.568176%)" offset="0.820312"/><stop stop-opacity="1" stop-color="rgb(71.052551%, 21.310425%, 99.586487%)" offset="0.828125"/><stop stop-opacity="1" stop-color="rgb(71.380615%, 20.973206%, 99.604797%)" offset="0.835937"/><stop stop-opacity="1" stop-color="rgb(71.708679%, 20.635986%, 99.623108%)" offset="0.84375"/><stop stop-opacity="1" stop-color="rgb(72.036743%, 20.298767%, 99.641418%)" offset="0.851562"/><stop stop-opacity="1" stop-color="rgb(72.364807%, 19.961548%, 99.659729%)" offset="0.859375"/><stop stop-opacity="1" stop-color="rgb(72.691345%, 19.625854%, 99.67804%)" offset="0.867188"/><stop stop-opacity="1" stop-color="rgb(73.019409%, 19.288635%, 99.69635%)" offset="0.875"/><stop stop-opacity="1" stop-color="rgb(73.347473%, 18.951416%, 99.714661%)" offset="0.882812"/><stop stop-opacity="1" stop-color="rgb(73.675537%, 18.614197%, 99.732971%)" offset="0.890625"/><stop stop-opacity="1" stop-color="rgb(74.003601%, 18.276978%, 99.751282%)" offset="0.898438"/><stop stop-opacity="1" stop-color="rgb(74.331665%, 17.939758%, 99.769592%)" offset="0.90625"/><stop stop-opacity="1" stop-color="rgb(74.658203%, 17.604065%, 99.787903%)" offset="0.914063"/><stop stop-opacity="1" stop-color="rgb(74.986267%, 17.266846%, 99.806213%)" offset="0.921875"/><stop stop-opacity="1" stop-color="rgb(75.314331%, 16.929626%, 99.824524%)" offset="0.929688"/><stop stop-opacity="1" stop-color="rgb(75.642395%, 16.592407%, 99.842834%)" offset="0.9375"/><stop stop-opacity="1" stop-color="rgb(75.970459%, 16.255188%, 99.861145%)" offset="0.945312"/><stop stop-opacity="1" stop-color="rgb(76.298523%, 15.919495%, 99.879456%)" offset="0.953125"/><stop stop-opacity="1" stop-color="rgb(76.625061%, 15.582275%, 99.897766%)" offset="0.960938"/><stop stop-opacity="1" stop-color="rgb(76.953125%, 15.245056%, 99.916077%)" offset="0.96875"/><stop stop-opacity="1" stop-color="rgb(77.281189%, 14.907837%, 99.934387%)" offset="0.976562"/><stop stop-opacity="1" stop-color="rgb(77.609253%, 14.570618%, 99.952698%)" offset="0.984375"/><stop stop-opacity="1" stop-color="rgb(77.937317%, 14.233398%, 99.971008%)" offset="0.992188"/><stop stop-opacity="1" stop-color="rgb(78.265381%, 13.897705%, 99.989319%)" offset="1"/></linearGradient></defs><g clip-path="url(#c1f8c134ae)"><g clip-path="url(#f31791a1cb)"><path fill="url(#0fc4d701d0)" d="M 22.488281 22.546875 L 22.488281 209.199219 L 209.136719 209.199219 L 209.136719 22.546875 Z M 22.488281 22.546875 " fill-rule="nonzero"/></g></g><path fill="#ffffff" d="M 80.699219 83.015625 L 150.964844 83.015625 L 150.964844 89.160156 L 80.699219 89.160156 Z M 80.699219 83.015625 " fill-opacity="1" fill-rule="nonzero"/><path fill="#ffffff" d="M 80.699219 125.90625 L 150.964844 125.90625 L 150.964844 132.050781 L 80.699219 132.050781 Z M 80.699219 125.90625 " fill-opacity="1" fill-rule="nonzero"/><path fill="#ffffff" d="M 112.429688 93.359375 L 119.15625 93.359375 L 119.15625 121.746094 L 112.429688 121.746094 Z M 112.429688 93.359375 " fill-opacity="1" fill-rule="nonzero"/><path fill="#ffffff" d="M 95.164062 93.359375 L 108.269531 93.359375 L 108.269531 121.746094 L 95.164062 121.746094 Z M 95.164062 93.359375 " fill-opacity="1" fill-rule="nonzero"/><path fill="#ffffff" d="M 84.238281 93.359375 L 90.964844 93.359375 L 90.964844 121.746094 L 84.238281 121.746094 Z M 84.238281 93.359375 " fill-opacity="1" fill-rule="nonzero"/><path fill="#ffffff" d="M 123.355469 93.359375 L 136.460938 93.359375 L 136.460938 121.746094 L 123.355469 121.746094 Z M 123.355469 93.359375 " fill-opacity="1" fill-rule="nonzero"/><path fill="#ffffff" d="M 140.621094 93.359375 L 147.347656 93.359375 L 147.347656 121.746094 L 140.621094 121.746094 Z M 140.621094 93.359375 " fill-opacity="1" fill-rule="nonzero"/><path fill="#ffffff" d="M 97.265625 73.332031 L 134.363281 73.332031 L 134.363281 78.894531 L 97.265625 78.894531 Z M 97.265625 73.332031 " fill-opacity="1" fill-rule="nonzero"/><path fill="#ffffff" d="M 115.8125 56.144531 C 108.191406 56.144531 101.890625 61.824219 100.882812 69.132812 L 130.746094 69.132812 C 129.734375 61.824219 123.433594 56.144531 115.8125 56.144531 Z M 115.8125 56.144531 " fill-opacity="1" fill-rule="nonzero"/><path fill="#ffffff" d="M 70.707031 143.988281 L 82.175781 143.988281 L 82.175781 166.929688 L 70.707031 166.929688 Z M 70.707031 143.988281 " fill-opacity="1" fill-rule="nonzero"/><path fill="#ffffff" d="M 160.570312 153.046875 C 160.296875 152.8125 158.507812 151.6875 151.277344 153.902344 C 146.609375 155.304688 141.632812 157.480469 138.328125 158.917969 C 137.042969 159.464844 136.074219 159.929688 135.410156 160.125 C 135.179688 160.203125 134.945312 160.242188 134.671875 160.242188 L 112.78125 160.242188 C 109.085938 160.242188 108.035156 160.628906 107.839844 160.902344 C 107.804688 160.941406 107.804688 161.175781 107.917969 161.601562 C 108.230469 162.730469 107.570312 163.859375 106.480469 164.167969 C 105.351562 164.480469 104.226562 163.820312 103.914062 162.730469 C 103.332031 160.589844 103.953125 159.191406 104.535156 158.414062 C 106.167969 156.273438 109.359375 156.082031 112.78125 156.082031 L 130.667969 156.082031 C 131.09375 154.757812 131.367188 153.125 130.628906 152.191406 C 128.957031 150.015625 122.5 150.519531 118.222656 150.832031 C 116.589844 150.949219 115.074219 151.066406 113.792969 151.066406 C 113.675781 151.066406 113.558594 151.066406 113.402344 151.027344 C 112.117188 150.792969 110.601562 150.171875 108.695312 149.390625 C 105.976562 148.304688 102.632812 146.941406 98.78125 146.203125 C 95.789062 145.621094 92.132812 145.660156 89.175781 145.660156 C 88.125 145.660156 87.15625 145.660156 86.261719 145.621094 L 86.261719 167.125 L 92.328125 167.785156 C 92.480469 167.824219 92.597656 167.824219 92.753906 167.863281 L 112.15625 174.085938 C 120.324219 176.691406 128.257812 175.914062 135.761719 171.75 C 142.839844 167.863281 148.050781 164.792969 152.09375 162.226562 C 159.480469 157.480469 160.492188 155.847656 160.648438 155.535156 C 160.84375 154.914062 161.113281 153.515625 160.570312 153.046875 Z M 160.570312 153.046875 " fill-opacity="1" fill-rule="nonzero"/></svg>