<svg xmlns="http://www.w3.org/2000/svg" xmlns:xlink="http://www.w3.org/1999/xlink" width="300" zoomAndPan="magnify" viewBox="0 0 224.87999 225" height="300" preserveAspectRatio="xMidYMid meet" version="1.0"><defs><clipPath id="cc25869749"><path d="M 33.394531 28 L 191.558594 28 L 191.558594 202.453125 L 33.394531 202.453125 Z M 33.394531 28 " clip-rule="nonzero"/></clipPath><clipPath id="1639d7371e"><path d="M 33.394531 22.546875 L 191.558594 22.546875 L 191.558594 197 L 33.394531 197 Z M 33.394531 22.546875 " clip-rule="nonzero"/></clipPath></defs><g clip-path="url(#cc25869749)"><path fill="#efefef" d="M 67.046875 101.042969 L 47.992188 101.042969 C 39.941406 101.042969 33.394531 107.589844 33.394531 115.636719 C 33.394531 123.679688 39.941406 130.230469 47.992188 130.230469 L 67.046875 130.230469 C 66.914062 131.019531 66.851562 131.828125 66.851562 132.652344 C 66.855469 135.75 67.851562 138.675781 69.636719 141.136719 C 68.105469 142.847656 67.21875 145.066406 67.21875 147.402344 L 67.21875 176.582031 C 67.21875 184.628906 73.769531 191.175781 81.820312 191.175781 L 105.667969 191.175781 C 106.652344 194.101562 108.453125 196.726562 110.921875 198.730469 C 113.917969 201.164062 117.59375 202.453125 121.375 202.453125 C 122.503906 202.453125 123.648438 202.335938 124.785156 202.101562 L 177.074219 191.183594 C 185.464844 189.433594 191.554688 181.949219 191.554688 173.382812 L 191.554688 57.890625 C 191.554688 49.324219 185.464844 41.84375 177.078125 40.089844 L 124.789062 29.179688 C 119.875 28.15625 114.824219 29.378906 110.933594 32.535156 C 108.464844 34.539062 106.664062 37.152344 105.675781 40.078125 L 81.820312 40.078125 C 73.769531 40.078125 67.21875 46.625 67.21875 54.667969 L 67.21875 83.90625 C 67.21875 86.238281 68.101562 88.449219 69.617188 90.15625 C 67.839844 92.621094 66.847656 95.550781 66.851562 98.652344 C 66.851562 99.460938 66.917969 100.257812 67.046875 101.042969 Z M 67.046875 101.042969 " fill-opacity="1" fill-rule="nonzero"/></g><g clip-path="url(#1639d7371e)"><path fill="#ffffff" d="M 67.046875 94.765625 L 47.992188 94.765625 C 39.941406 94.765625 33.394531 101.3125 33.394531 109.355469 C 33.394531 117.402344 39.941406 123.949219 47.992188 123.949219 L 67.046875 123.949219 C 66.914062 124.742188 66.851562 125.550781 66.851562 126.371094 C 66.855469 129.472656 67.851562 132.394531 69.636719 134.859375 C 68.105469 136.570312 67.21875 138.785156 67.21875 141.125 L 67.21875 170.304688 C 67.21875 178.347656 73.769531 184.898438 81.820312 184.898438 L 105.667969 184.898438 C 106.652344 187.820312 108.453125 190.445312 110.921875 192.453125 C 113.917969 194.886719 117.59375 196.171875 121.375 196.171875 C 122.503906 196.171875 123.648438 196.058594 124.785156 195.824219 L 177.074219 184.902344 C 185.464844 183.15625 191.554688 175.667969 191.554688 167.105469 L 191.554688 51.609375 C 191.554688 43.042969 185.464844 35.5625 177.078125 33.808594 L 124.789062 22.902344 C 119.875 21.878906 114.824219 23.097656 110.933594 26.257812 C 108.464844 28.261719 106.664062 30.875 105.675781 33.796875 L 81.820312 33.796875 C 73.769531 33.796875 67.21875 40.347656 67.21875 48.390625 L 67.21875 77.625 C 67.21875 79.960938 68.101562 82.167969 69.617188 83.878906 C 67.839844 86.34375 66.847656 89.269531 66.851562 92.371094 C 66.851562 93.183594 66.917969 93.980469 67.046875 94.765625 Z M 67.046875 94.765625 " fill-opacity="1" fill-rule="nonzero"/></g><path fill="#26b670" d="M 77.792969 130.015625 C 78.800781 131.027344 80.128906 131.53125 81.453125 131.53125 C 82.777344 131.53125 84.101562 131.027344 85.113281 130.015625 L 102.121094 113.015625 C 104.144531 110.996094 104.144531 107.71875 102.121094 105.699219 L 85.113281 88.699219 C 83.089844 86.675781 79.8125 86.675781 77.792969 88.699219 C 75.769531 90.71875 75.769531 93.996094 77.792969 96.015625 L 85.960938 104.183594 L 47.992188 104.183594 C 45.132812 104.183594 42.816406 106.5 42.816406 109.355469 C 42.816406 112.214844 45.132812 114.53125 47.992188 114.53125 L 85.960938 114.53125 L 77.792969 122.699219 C 75.769531 124.71875 75.769531 127.996094 77.792969 130.015625 Z M 77.792969 130.015625 " fill-opacity="1" fill-rule="nonzero"/><path fill="#1a51aa" d="M 175.15625 43.03125 L 122.855469 32.117188 C 118.402344 31.1875 114.222656 34.582031 114.222656 39.128906 L 114.222656 43.214844 L 81.820312 43.214844 C 78.972656 43.214844 76.640625 45.542969 76.640625 48.390625 L 76.640625 77.628906 C 80.007812 76.488281 83.683594 76.59375 86.996094 77.886719 L 86.996094 53.566406 L 114.222656 53.566406 L 114.222656 165.132812 L 86.996094 165.132812 L 86.996094 140.863281 C 85.238281 141.535156 83.320312 141.898438 81.457031 141.898438 C 79.851562 141.898438 78.195312 141.636719 76.640625 141.121094 L 76.640625 170.304688 C 76.640625 173.152344 78.972656 175.480469 81.820312 175.480469 L 114.222656 175.480469 L 114.222656 179.585938 C 114.222656 184.132812 118.402344 187.527344 122.855469 186.601562 L 175.15625 175.683594 C 179.21875 174.835938 182.132812 171.253906 182.132812 167.101562 L 182.132812 51.613281 C 182.132812 47.460938 179.21875 43.878906 175.15625 43.03125 Z M 139.1875 109.359375 C 139.1875 113.25 136.03125 116.40625 132.136719 116.40625 C 128.242188 116.40625 125.085938 113.25 125.085938 109.359375 C 125.085938 105.464844 128.242188 102.308594 132.136719 102.308594 C 136.03125 102.308594 139.1875 105.464844 139.1875 109.359375 Z M 139.1875 109.359375 " fill-opacity="1" fill-rule="nonzero"/></svg>