<svg xmlns="http://www.w3.org/2000/svg" xmlns:xlink="http://www.w3.org/1999/xlink" width="300" zoomAndPan="magnify" viewBox="0 0 224.87999 225" height="300" preserveAspectRatio="xMidYMid meet" version="1.0"><defs><clipPath id="64c7fd6965"><path d="M 22.488281 22.546875 L 208.390625 22.546875 L 208.390625 208.449219 L 22.488281 208.449219 Z M 22.488281 22.546875 " clip-rule="nonzero"/></clipPath></defs><g clip-path="url(#64c7fd6965)"><path fill="#0097b2" d="M 115.332031 22.546875 C 64.140625 22.546875 22.488281 64.199219 22.488281 115.394531 C 22.488281 166.585938 64.140625 208.238281 115.332031 208.238281 C 166.527344 208.238281 208.179688 166.585938 208.179688 115.394531 C 208.179688 64.199219 166.527344 22.546875 115.332031 22.546875 Z M 170.785156 116.65625 C 170.503906 119.601562 169.234375 122.46875 166.980469 124.726562 L 129.660156 162.042969 C 124.507812 167.195312 116.152344 167.195312 111.003906 162.042969 C 105.851562 156.890625 105.847656 148.535156 111 143.378906 L 125.792969 128.589844 L 73.015625 128.589844 C 65.730469 128.589844 59.820312 122.683594 59.820312 115.394531 C 59.820312 108.105469 65.726562 102.199219 73.015625 102.195312 L 125.800781 102.199219 L 111 87.402344 C 105.847656 82.246094 105.847656 73.894531 111 68.742188 C 116.152344 63.585938 124.507812 63.585938 129.660156 68.742188 L 166.980469 106.058594 C 169.878906 108.960938 171.148438 112.871094 170.785156 116.65625 Z M 170.785156 116.65625 " fill-opacity="1" fill-rule="nonzero"/></g></svg>