<svg xmlns="http://www.w3.org/2000/svg" xmlns:xlink="http://www.w3.org/1999/xlink" width="300" zoomAndPan="magnify" viewBox="0 0 224.87999 225" height="300" preserveAspectRatio="xMidYMid meet" version="1.0"><defs><clipPath id="fd9bc10e39"><path d="M 22.488281 22.546875 L 211.386719 22.546875 L 211.386719 211.445312 L 22.488281 211.445312 Z M 22.488281 22.546875 " clip-rule="nonzero"/></clipPath></defs><g clip-path="url(#fd9bc10e39)"><path fill="#e21e2c" d="M 211.386719 116.996094 C 211.386719 169.160156 169.101562 211.445312 116.9375 211.445312 C 64.773438 211.445312 22.488281 169.160156 22.488281 116.996094 C 22.488281 64.835938 64.773438 22.550781 116.9375 22.550781 C 169.101562 22.550781 211.386719 64.835938 211.386719 116.996094 " fill-opacity="1" fill-rule="nonzero"/></g><path fill="#ffffff" d="M 162.101562 87.210938 L 146.726562 71.835938 L 116.9375 101.621094 L 87.148438 71.835938 L 71.773438 87.210938 L 101.5625 116.996094 L 71.773438 146.785156 L 87.148438 162.160156 L 116.9375 132.375 L 146.726562 162.160156 L 162.101562 146.785156 L 132.3125 116.996094 L 162.101562 87.210938 " fill-opacity="1" fill-rule="nonzero"/></svg>