<svg xmlns="http://www.w3.org/2000/svg" xmlns:xlink="http://www.w3.org/1999/xlink" width="300" zoomAndPan="magnify" viewBox="0 0 224.87999 225" height="300" preserveAspectRatio="xMidYMid meet" version="1.0"><defs><clipPath id="4115ea1ff8"><path d="M 128 22.546875 L 215.136719 22.546875 L 215.136719 194.207031 L 128 194.207031 Z M 128 22.546875 " clip-rule="nonzero"/></clipPath><clipPath id="d574e57c7c"><path d="M 43 106 L 129 106 L 129 194.207031 L 43 194.207031 Z M 43 106 " clip-rule="nonzero"/></clipPath><clipPath id="7e1e51ea66"><path d="M 22.488281 39 L 108 39 L 108 99 L 22.488281 99 Z M 22.488281 39 " clip-rule="nonzero"/></clipPath><clipPath id="31912b22de"><path d="M 68 22.546875 L 129 22.546875 L 129 107 L 68 107 Z M 68 22.546875 " clip-rule="nonzero"/></clipPath></defs><g clip-path="url(#4115ea1ff8)"><path fill="#f2544e" d="M 215.03125 106.582031 C 214.570312 84.242188 205.566406 64.003906 191.136719 48.988281 C 190.304688 48.125 189.460938 47.277344 188.597656 46.453125 C 173.554688 32.046875 153.285156 23.054688 130.902344 22.597656 C 130.304688 22.582031 129.710938 22.550781 129.109375 22.550781 C 128.832031 22.550781 128.558594 22.5625 128.285156 22.570312 L 128.285156 194.183594 C 128.558594 194.191406 128.832031 194.203125 129.109375 194.203125 C 129.710938 194.203125 130.304688 194.171875 130.902344 194.160156 C 153.28125 193.699219 173.554688 184.710938 188.597656 170.304688 C 189.460938 169.476562 190.304688 168.632812 191.136719 167.769531 C 205.566406 152.753906 214.570312 132.519531 215.03125 110.171875 C 215.042969 109.574219 215.078125 108.980469 215.078125 108.378906 C 215.078125 107.777344 215.042969 107.183594 215.03125 106.582031 " fill-opacity="1" fill-rule="nonzero"/><path fill="#f2544e" d="M 215.03125 106.582031 C 214.570312 84.242188 205.566406 64.003906 191.136719 48.988281 C 190.304688 48.125 189.460938 47.277344 188.597656 46.453125 C 173.554688 32.046875 153.285156 23.054688 130.902344 22.597656 C 130.304688 22.582031 129.710938 22.550781 129.109375 22.550781 C 128.832031 22.550781 128.558594 22.5625 128.285156 22.570312 L 128.285156 194.183594 C 128.558594 194.191406 128.832031 194.203125 129.109375 194.203125 C 129.710938 194.203125 130.304688 194.171875 130.902344 194.160156 C 153.28125 193.699219 173.554688 184.710938 188.597656 170.304688 C 189.460938 169.476562 190.304688 168.632812 191.136719 167.769531 C 205.566406 152.753906 214.570312 132.519531 215.03125 110.171875 C 215.042969 109.574219 215.078125 108.980469 215.078125 108.378906 C 215.078125 107.777344 215.042969 107.183594 215.03125 106.582031 " fill-opacity="1" fill-rule="nonzero"/></g><g clip-path="url(#d574e57c7c)"><path fill="#fab756" d="M 43.1875 106.691406 C 43.171875 107.257812 43.144531 107.8125 43.144531 108.378906 C 43.144531 108.980469 43.175781 109.570312 43.1875 110.171875 C 43.648438 132.515625 52.652344 152.75 67.082031 167.765625 C 67.910156 168.628906 68.757812 169.476562 69.621094 170.300781 C 84.664062 184.710938 104.933594 193.699219 127.3125 194.160156 C 127.636719 194.164062 127.960938 194.175781 128.285156 194.183594 L 128.285156 106.882812 L 43.1875 106.691406 " fill-opacity="1" fill-rule="nonzero"/></g><g clip-path="url(#7e1e51ea66)"><path fill="#7dd3d2" d="M 48.117188 39.0625 C 47.578125 39.597656 47.035156 40.125 46.507812 40.671875 C 32.078125 55.691406 23.074219 75.925781 22.613281 98.269531 L 22.609375 98.378906 L 107.527344 98.378906 L 48.117188 39.0625 " fill-opacity="1" fill-rule="nonzero"/></g><g clip-path="url(#31912b22de)"><path fill="#57757e" d="M 127.3125 22.597656 C 104.933594 23.054688 84.667969 32.042969 69.625 46.449219 C 69.308594 46.753906 69.003906 47.070312 68.691406 47.378906 L 128.285156 106.386719 L 128.285156 22.570312 C 127.960938 22.582031 127.636719 22.589844 127.3125 22.597656 " fill-opacity="1" fill-rule="nonzero"/></g></svg>