<svg xmlns="http://www.w3.org/2000/svg" xmlns:xlink="http://www.w3.org/1999/xlink" width="300" zoomAndPan="magnify" viewBox="0 0 224.87999 225" height="300" preserveAspectRatio="xMidYMid meet" version="1.0"><defs><clipPath id="9b051bf3d5"><path d="M 6 4 L 223 4 L 223 224.9375 L 6 224.9375 Z M 6 4 " clip-rule="nonzero"/></clipPath><clipPath id="977c66e4d7"><path d="M 2 0.0585938 L 219 0.0585938 L 219 221 L 2 221 Z M 2 0.0585938 " clip-rule="nonzero"/></clipPath></defs><g clip-path="url(#9b051bf3d5)"><path fill="#cccccc" d="M 165.730469 44.082031 L 165.730469 129.695312 C 165.730469 133.78125 162.371094 137.089844 158.285156 137.089844 L 70.679688 137.089844 C 66.59375 137.089844 63.285156 133.78125 63.285156 129.695312 L 63.285156 11.589844 C 63.285156 7.503906 66.59375 4.195312 70.679688 4.195312 L 125.9375 4.195312 C 127.007812 4.195312 128.078125 4.4375 129.050781 4.875 C 129.832031 5.214844 130.511719 5.703125 131.144531 6.335938 L 163.539062 38.730469 C 165 40.191406 165.730469 42.136719 165.730469 44.082031 Z M 43 147.160156 C 52.195312 149.105469 59.101562 157.324219 59.101562 167.101562 C 59.101562 169.777344 58.566406 172.355469 57.644531 174.691406 C 65.472656 178.289062 70.921875 186.171875 70.921875 195.363281 L 70.921875 210.542969 C 71.019531 214.675781 67.664062 218.082031 63.527344 218.082031 L 13.863281 218.082031 C 9.730469 218.082031 6.421875 214.773438 6.421875 210.6875 L 6.421875 195.363281 C 6.421875 186.171875 11.917969 178.242188 19.75 174.691406 C 18.824219 172.308594 18.289062 169.777344 18.289062 167.101562 C 18.289062 157.324219 25.199219 149.105469 34.34375 147.160156 C 34.050781 146.914062 33.710938 146.625 33.46875 146.378906 L 22.523438 135.386719 C 19.601562 132.515625 19.601562 127.796875 22.472656 124.929688 C 25.34375 122.011719 30.0625 122.011719 32.980469 124.929688 L 38.671875 130.621094 L 44.410156 124.929688 C 47.28125 122.011719 51.953125 122.011719 54.871094 124.878906 C 57.789062 127.796875 57.789062 132.46875 54.871094 135.386719 L 43.875 146.429688 C 43.585938 146.671875 43.339844 146.914062 43 147.160156 Z M 194.625 147.160156 C 203.816406 149.105469 210.726562 157.324219 210.726562 167.101562 C 210.726562 169.777344 210.191406 172.308594 209.214844 174.691406 C 217.097656 178.242188 222.546875 186.171875 222.546875 195.363281 L 222.546875 210.6875 C 222.546875 214.773438 219.1875 218.082031 215.101562 218.082031 L 165.4375 218.082031 C 161.351562 218.082031 158.042969 214.773438 158.042969 210.6875 L 158.042969 195.363281 C 158.042969 186.171875 163.492188 178.242188 171.371094 174.691406 C 170.398438 172.308594 169.914062 169.777344 169.914062 167.101562 C 169.914062 157.324219 176.769531 149.105469 185.964844 147.160156 C 185.671875 146.914062 185.332031 146.625 185.039062 146.378906 L 174.097656 135.386719 C 171.226562 132.515625 171.226562 127.796875 174.097656 124.929688 C 176.964844 122.011719 181.683594 122.011719 184.601562 124.929688 L 190.292969 130.621094 L 195.984375 124.929688 C 198.902344 122.011719 203.574219 122.011719 206.492188 124.878906 C 209.410156 127.796875 209.410156 132.46875 206.492188 135.386719 L 195.5 146.429688 C 195.207031 146.671875 194.914062 146.914062 194.625 147.160156 Z M 114.507812 224.941406 C 92.375 224.941406 74.375 206.941406 74.375 184.808594 C 74.375 162.675781 92.375 144.679688 114.507812 144.679688 C 136.589844 144.679688 154.589844 162.675781 154.589844 184.808594 C 154.589844 206.941406 136.589844 224.941406 114.507812 224.941406 Z M 114.507812 224.941406 " fill-opacity="1" fill-rule="evenodd"/></g><path fill="#05e39c" d="M 186.207031 139.472656 C 184.847656 139.472656 183.726562 138.355469 183.726562 136.992188 L 183.726562 86.742188 C 183.726562 81.296875 179.253906 76.867188 173.804688 76.867188 L 154.199219 76.867188 C 152.839844 76.867188 151.71875 75.75 151.71875 74.386719 C 151.71875 73.027344 152.839844 71.90625 154.199219 71.90625 L 173.804688 71.90625 C 181.976562 71.90625 188.640625 78.570312 188.640625 86.742188 L 188.640625 136.992188 C 188.640625 138.355469 187.523438 139.472656 186.207031 139.472656 Z M 34.585938 139.472656 C 33.222656 139.472656 32.105469 138.355469 32.105469 136.992188 L 32.105469 86.742188 C 32.105469 78.570312 38.769531 71.90625 46.941406 71.90625 L 66.542969 71.90625 C 67.957031 71.90625 69.027344 73.027344 69.027344 74.386719 C 69.027344 75.75 67.957031 76.867188 66.542969 76.867188 L 46.941406 76.867188 C 41.492188 76.867188 37.066406 81.296875 37.066406 86.742188 L 37.066406 136.992188 C 37.066406 138.355469 35.949219 139.472656 34.585938 139.472656 Z M 34.585938 139.472656 " fill-opacity="1" fill-rule="evenodd"/><g clip-path="url(#977c66e4d7)"><path fill="#e6e6e6" d="M 161.59375 39.996094 L 161.59375 125.5625 C 161.59375 129.648438 158.285156 133.003906 154.199219 133.003906 L 66.542969 133.003906 C 62.457031 133.003906 59.152344 129.648438 59.152344 125.5625 L 59.152344 7.453125 C 59.152344 3.367188 62.457031 0.0585938 66.542969 0.0585938 L 121.804688 0.0585938 C 122.921875 0.0585938 123.945312 0.304688 124.917969 0.742188 C 125.695312 1.082031 126.425781 1.617188 127.058594 2.25 L 159.40625 34.597656 C 160.863281 36.054688 161.644531 38.003906 161.59375 39.996094 Z M 38.914062 143.023438 C 48.109375 145.019531 54.96875 153.191406 54.96875 162.96875 C 54.96875 165.644531 54.433594 168.222656 53.507812 170.554688 C 61.339844 174.15625 66.789062 182.085938 66.789062 191.230469 L 66.789062 206.40625 C 66.886719 210.542969 63.527344 213.945312 59.394531 213.945312 L 9.730469 213.945312 C 5.644531 213.945312 2.335938 210.640625 2.335938 206.550781 L 2.335938 191.230469 C 2.335938 182.085938 7.78125 174.15625 15.613281 170.554688 C 14.691406 168.222656 14.15625 165.644531 14.15625 162.96875 C 14.15625 153.191406 21.0625 145.019531 30.257812 143.023438 C 29.914062 142.78125 29.625 142.539062 29.332031 142.246094 L 18.386719 131.253906 C 15.515625 128.382812 15.46875 123.710938 18.386719 120.792969 C 21.257812 117.875 25.925781 117.875 28.894531 120.792969 L 34.585938 126.484375 L 40.277344 120.792969 C 43.148438 117.875 47.867188 117.875 50.734375 120.792969 C 53.652344 123.664062 53.652344 128.382812 50.785156 131.253906 L 39.742188 142.292969 C 39.5 142.585938 39.207031 142.78125 38.914062 143.023438 Z M 190.488281 143.023438 C 199.683594 145.019531 206.589844 153.191406 206.589844 162.96875 C 206.589844 165.644531 206.054688 168.222656 205.128906 170.554688 C 212.960938 174.15625 218.410156 182.085938 218.410156 191.230469 L 218.410156 206.550781 C 218.410156 210.640625 215.101562 213.945312 211.015625 213.945312 L 161.351562 213.945312 C 157.265625 213.945312 153.910156 210.640625 153.910156 206.550781 L 153.910156 191.230469 C 153.910156 182.085938 159.40625 174.15625 167.238281 170.554688 C 166.3125 168.222656 165.777344 165.644531 165.777344 162.96875 C 165.777344 153.191406 172.683594 145.019531 181.878906 143.023438 C 181.539062 142.78125 181.246094 142.539062 180.953125 142.246094 L 170.011719 131.253906 C 167.089844 128.382812 167.089844 123.710938 169.960938 120.792969 C 172.878906 117.875 177.550781 117.875 180.46875 120.792969 L 186.207031 126.484375 L 191.898438 120.792969 C 194.769531 117.875 199.488281 117.875 202.359375 120.792969 C 205.277344 123.664062 205.277344 128.382812 202.40625 131.253906 L 191.363281 142.292969 C 191.074219 142.585938 190.828125 142.78125 190.488281 143.023438 Z M 110.371094 220.804688 C 88.238281 220.804688 70.242188 202.808594 70.242188 180.675781 C 70.242188 158.589844 88.238281 140.542969 110.371094 140.542969 C 132.503906 140.542969 150.503906 158.589844 150.503906 180.675781 C 150.503906 202.808594 132.503906 220.804688 110.371094 220.804688 Z M 110.371094 220.804688 " fill-opacity="1" fill-rule="evenodd"/></g><path fill="#05e39c" d="M 34.585938 139.472656 C 33.90625 139.472656 33.273438 139.230469 32.835938 138.742188 L 21.890625 127.796875 C 20.917969 126.824219 20.917969 125.269531 21.890625 124.296875 C 22.863281 123.324219 24.417969 123.324219 25.390625 124.296875 L 34.585938 133.488281 L 43.78125 124.296875 C 44.753906 123.324219 46.308594 123.324219 47.28125 124.296875 C 48.253906 125.21875 48.253906 126.824219 47.28125 127.796875 L 36.335938 138.742188 C 35.851562 139.230469 35.21875 139.472656 34.585938 139.472656 Z M 34.585938 139.472656 " fill-opacity="1" fill-rule="evenodd"/><path fill="#05e39c" d="M 186.207031 139.472656 C 185.527344 139.472656 184.894531 139.230469 184.457031 138.742188 L 173.511719 127.796875 C 172.539062 126.824219 172.539062 125.269531 173.511719 124.296875 C 174.4375 123.324219 175.992188 123.324219 176.964844 124.296875 L 186.207031 133.488281 L 195.402344 124.296875 C 196.324219 123.324219 197.929688 123.324219 198.902344 124.296875 C 199.828125 125.21875 199.828125 126.824219 198.902344 127.796875 L 187.960938 138.742188 C 187.472656 139.230469 186.839844 139.472656 186.207031 139.472656 Z M 186.207031 139.472656 " fill-opacity="1" fill-rule="evenodd"/><path fill="#26a6fe" d="M 211.015625 209.035156 L 161.351562 209.035156 C 159.988281 209.035156 158.871094 207.914062 158.871094 206.550781 L 158.871094 191.230469 C 158.871094 181.453125 166.847656 173.476562 176.625 173.476562 L 195.695312 173.476562 C 205.519531 173.476562 213.496094 181.453125 213.496094 191.230469 L 213.496094 206.550781 C 213.496094 207.914062 212.378906 209.035156 211.015625 209.035156 Z M 211.015625 209.035156 " fill-opacity="1" fill-rule="evenodd"/><path fill="#f9c295" d="M 186.207031 178.4375 C 177.648438 178.4375 170.738281 171.480469 170.738281 162.96875 C 170.738281 154.457031 177.648438 147.5 186.207031 147.5 C 194.722656 147.5 201.628906 154.457031 201.628906 162.96875 C 201.628906 171.480469 194.722656 178.4375 186.207031 178.4375 Z M 186.207031 178.4375 " fill-opacity="1" fill-rule="evenodd"/><path fill="#fe646f" d="M 59.394531 209.035156 L 9.730469 209.035156 C 8.367188 209.035156 7.246094 207.914062 7.246094 206.550781 L 7.246094 191.230469 C 7.246094 181.453125 15.226562 173.476562 25.003906 173.476562 L 44.070312 173.476562 C 53.898438 173.476562 61.828125 181.453125 61.828125 191.230469 L 61.828125 206.550781 C 61.875 207.914062 60.757812 209.035156 59.394531 209.035156 Z M 59.394531 209.035156 " fill-opacity="1" fill-rule="evenodd"/><path fill="#f9c295" d="M 34.585938 178.4375 C 26.023438 178.4375 19.117188 171.480469 19.117188 162.96875 C 19.117188 154.457031 26.023438 147.5 34.585938 147.5 C 43.097656 147.5 50.054688 154.457031 50.054688 162.96875 C 50.003906 171.480469 43.097656 178.4375 34.585938 178.4375 Z M 34.585938 178.4375 " fill-opacity="1" fill-rule="evenodd"/><path fill="#ffd15b" d="M 154.199219 128.042969 L 66.542969 128.042969 C 65.183594 128.042969 64.113281 126.921875 64.113281 125.5625 L 64.113281 7.453125 C 64.113281 6.09375 65.183594 5.023438 66.542969 5.023438 L 121.804688 5.023438 C 123.164062 5.023438 124.285156 6.09375 124.285156 7.453125 C 124.285156 8.765625 150.601562 37.175781 151.71875 39.65625 C 151.816406 38.390625 152.886719 37.371094 154.199219 37.371094 C 155.5625 37.371094 156.632812 38.488281 156.632812 39.851562 L 156.632812 125.5625 C 156.632812 126.921875 155.5625 128.042969 154.199219 128.042969 Z M 154.199219 128.042969 " fill-opacity="1" fill-rule="evenodd"/><path fill="#e6b03d" d="M 154.199219 42.332031 L 121.804688 42.332031 C 120.441406 42.332031 119.324219 41.210938 119.324219 39.851562 L 119.324219 7.453125 C 119.324219 6.480469 119.90625 5.558594 120.878906 5.167969 C 121.804688 4.828125 122.824219 5.023438 123.554688 5.703125 L 155.953125 38.097656 C 156.632812 38.828125 156.875 39.851562 156.488281 40.773438 C 156.097656 41.699219 155.171875 42.332031 154.199219 42.332031 Z M 154.199219 42.332031 " fill-opacity="1" fill-rule="evenodd"/><path fill="#9eb7cf" d="M 110.371094 215.84375 C 90.964844 215.84375 75.203125 200.082031 75.203125 180.675781 C 75.203125 161.3125 90.964844 145.503906 110.371094 145.503906 C 129.78125 145.503906 145.542969 161.3125 145.542969 180.675781 C 145.542969 200.082031 129.78125 215.84375 110.371094 215.84375 Z M 110.371094 215.84375 " fill-opacity="1" fill-rule="evenodd"/><path fill="#c4e2ff" d="M 110.371094 206.015625 C 96.410156 206.015625 85.027344 194.636719 85.027344 180.675781 C 85.027344 166.714844 96.410156 155.378906 110.371094 155.378906 C 124.332031 155.378906 135.714844 166.714844 135.714844 180.675781 C 135.714844 194.636719 124.332031 206.015625 110.371094 206.015625 Z M 110.371094 206.015625 " fill-opacity="1" fill-rule="evenodd"/><path fill="#15616d" d="M 105.117188 193.417969 C 104.875 193.417969 104.585938 193.371094 104.339844 193.371094 C 102.539062 193.128906 101.03125 192.25 100.011719 190.792969 L 95.683594 184.808594 C 94.710938 183.445312 94.320312 181.792969 94.613281 180.140625 C 94.855469 178.484375 95.78125 177.027344 97.140625 176.054688 C 98.503906 175.082031 100.15625 174.691406 101.8125 174.933594 C 103.464844 175.226562 104.925781 176.101562 105.898438 177.464844 L 106.1875 177.851562 L 115.871094 169.484375 C 117.132812 168.367188 118.738281 167.882812 120.441406 167.976562 C 122.097656 168.074219 123.652344 168.855469 124.722656 170.117188 C 125.792969 171.382812 126.328125 173.039062 126.230469 174.691406 C 126.085938 176.394531 125.355469 177.902344 124.089844 178.972656 L 109.207031 191.863281 C 108.039062 192.882812 106.628906 193.417969 105.117188 193.417969 Z M 105.117188 193.417969 " fill-opacity="1" fill-rule="evenodd"/><path fill="#fefae0" d="M 108.476562 30.414062 L 80.847656 30.414062 C 79.484375 30.414062 78.363281 29.292969 78.363281 27.933594 C 78.363281 26.570312 79.484375 25.453125 80.847656 25.453125 L 108.476562 25.453125 C 109.835938 25.453125 110.957031 26.570312 110.957031 27.933594 C 110.957031 29.292969 109.835938 30.414062 108.476562 30.414062 Z M 108.476562 30.414062 " fill-opacity="1" fill-rule="evenodd"/><path fill="#fefae0" d="M 108.476562 43.304688 L 80.847656 43.304688 C 79.484375 43.304688 78.363281 42.183594 78.363281 40.824219 C 78.363281 39.460938 79.484375 38.34375 80.847656 38.34375 L 108.476562 38.34375 C 109.835938 38.34375 110.957031 39.460938 110.957031 40.824219 C 110.957031 42.183594 109.835938 43.304688 108.476562 43.304688 Z M 108.476562 43.304688 " fill-opacity="1" fill-rule="evenodd"/><path fill="#fefae0" d="M 139.898438 56.144531 L 80.847656 56.144531 C 79.484375 56.144531 78.363281 55.027344 78.363281 53.664062 C 78.363281 52.304688 79.484375 51.183594 80.847656 51.183594 L 139.898438 51.183594 C 141.261719 51.183594 142.378906 52.304688 142.378906 53.664062 C 142.378906 55.027344 141.261719 56.144531 139.898438 56.144531 Z M 139.898438 56.144531 " fill-opacity="1" fill-rule="evenodd"/><path fill="#fefae0" d="M 139.898438 68.988281 L 80.847656 68.988281 C 79.484375 68.988281 78.363281 67.871094 78.363281 66.507812 C 78.363281 65.144531 79.484375 64.027344 80.847656 64.027344 L 139.898438 64.027344 C 141.261719 64.027344 142.378906 65.144531 142.378906 66.507812 C 142.378906 67.871094 141.261719 68.988281 139.898438 68.988281 Z M 139.898438 68.988281 " fill-opacity="1" fill-rule="evenodd"/><path fill="#fefae0" d="M 139.898438 81.832031 L 80.847656 81.832031 C 79.484375 81.832031 78.363281 80.761719 78.363281 79.347656 C 78.363281 77.988281 79.484375 76.917969 80.847656 76.917969 L 139.898438 76.917969 C 141.261719 76.917969 142.378906 77.988281 142.378906 79.347656 C 142.378906 80.761719 141.261719 81.832031 139.898438 81.832031 Z M 139.898438 81.832031 " fill-opacity="1" fill-rule="evenodd"/><path fill="#fefae0" d="M 139.898438 94.722656 L 80.847656 94.722656 C 79.484375 94.722656 78.363281 93.601562 78.363281 92.238281 C 78.363281 90.828125 79.484375 89.757812 80.847656 89.757812 L 139.898438 89.757812 C 141.261719 89.757812 142.378906 90.828125 142.378906 92.238281 C 142.378906 93.601562 141.261719 94.722656 139.898438 94.722656 Z M 139.898438 94.722656 " fill-opacity="1" fill-rule="evenodd"/><path fill="#fefae0" d="M 139.898438 107.5625 L 80.847656 107.5625 C 79.484375 107.5625 78.363281 106.492188 78.363281 105.082031 C 78.363281 103.71875 79.484375 102.601562 80.847656 102.601562 L 139.898438 102.601562 C 141.261719 102.601562 142.378906 103.71875 142.378906 105.082031 C 142.378906 106.492188 141.261719 107.5625 139.898438 107.5625 Z M 139.898438 107.5625 " fill-opacity="1" fill-rule="evenodd"/><path fill="#b94951" d="M 17.65625 209.035156 L 17.65625 197.164062 C 17.65625 195.800781 18.777344 194.683594 20.136719 194.683594 C 21.5 194.683594 22.621094 195.800781 22.621094 197.164062 L 22.621094 209.035156 Z M 51.464844 209.035156 L 46.550781 209.035156 L 46.550781 197.164062 C 46.550781 195.800781 47.621094 194.683594 48.984375 194.683594 C 50.394531 194.683594 51.464844 195.800781 51.464844 197.164062 Z M 51.464844 209.035156 " fill-opacity="1" fill-rule="evenodd"/><path fill="#1c79b9" d="M 169.28125 209.035156 L 169.28125 197.164062 C 169.28125 195.800781 170.398438 194.683594 171.761719 194.683594 C 173.074219 194.683594 174.191406 195.800781 174.191406 197.164062 L 174.191406 209.035156 Z M 203.085938 209.035156 L 198.125 209.035156 L 198.125 197.164062 C 198.125 195.800781 199.246094 194.683594 200.605469 194.683594 C 201.96875 194.683594 203.085938 195.800781 203.085938 197.164062 Z M 203.085938 209.035156 " fill-opacity="1" fill-rule="evenodd"/></svg>