<svg xmlns="http://www.w3.org/2000/svg" xmlns:xlink="http://www.w3.org/1999/xlink" width="300" zoomAndPan="magnify" viewBox="0 0 224.87999 225" height="300" preserveAspectRatio="xMidYMid meet" version="1.0"><defs><clipPath id="245d822a88"><path d="M 22.488281 22.546875 L 206.890625 22.546875 L 206.890625 206.949219 L 22.488281 206.949219 Z M 22.488281 22.546875 " clip-rule="nonzero"/></clipPath><clipPath id="c09f1ebb54"><path d="M 56 76 L 206.890625 76 L 206.890625 206.949219 L 56 206.949219 Z M 56 76 " clip-rule="nonzero"/></clipPath></defs><g clip-path="url(#245d822a88)"><path fill="#0cb0ff" d="M 206.890625 114.75 C 206.890625 116.257812 206.851562 117.765625 206.777344 119.273438 C 206.703125 120.78125 206.59375 122.285156 206.445312 123.785156 C 206.296875 125.289062 206.113281 126.785156 205.890625 128.277344 C 205.671875 129.769531 205.414062 131.257812 205.117188 132.734375 C 204.824219 134.214844 204.492188 135.6875 204.125 137.152344 C 203.761719 138.617188 203.359375 140.070312 202.917969 141.511719 C 202.480469 142.957031 202.007812 144.390625 201.5 145.808594 C 200.992188 147.230469 200.449219 148.636719 199.871094 150.03125 C 199.292969 151.425781 198.683594 152.804688 198.039062 154.167969 C 197.390625 155.535156 196.714844 156.882812 196.003906 158.210938 C 195.292969 159.542969 194.546875 160.855469 193.773438 162.148438 C 192.996094 163.445312 192.1875 164.71875 191.351562 165.972656 C 190.511719 167.226562 189.644531 168.460938 188.746094 169.671875 C 187.847656 170.882812 186.917969 172.074219 185.960938 173.242188 C 185.003906 174.40625 184.019531 175.550781 183.003906 176.667969 C 181.992188 177.785156 180.953125 178.878906 179.882812 179.945312 C 178.816406 181.011719 177.726562 182.050781 176.605469 183.066406 C 175.488281 184.078125 174.347656 185.0625 173.179688 186.019531 C 172.015625 186.976562 170.824219 187.90625 169.613281 188.804688 C 168.402344 189.703125 167.167969 190.574219 165.914062 191.410156 C 164.65625 192.25 163.382812 193.054688 162.089844 193.832031 C 160.796875 194.609375 159.484375 195.351562 158.152344 196.0625 C 156.820312 196.773438 155.472656 197.453125 154.109375 198.097656 C 152.746094 198.742188 151.367188 199.355469 149.972656 199.929688 C 148.578125 200.507812 147.171875 201.050781 145.75 201.558594 C 144.328125 202.066406 142.898438 202.542969 141.453125 202.980469 C 140.007812 203.417969 138.554688 203.820312 137.089844 204.1875 C 135.628906 204.554688 134.15625 204.882812 132.675781 205.179688 C 131.195312 205.472656 129.710938 205.730469 128.21875 205.953125 C 126.726562 206.171875 125.226562 206.359375 123.726562 206.503906 C 122.222656 206.652344 120.71875 206.765625 119.210938 206.839844 C 117.707031 206.914062 116.199219 206.949219 114.6875 206.949219 C 113.179688 206.949219 111.671875 206.914062 110.164062 206.839844 C 108.65625 206.765625 107.152344 206.652344 105.652344 206.503906 C 104.148438 206.359375 102.652344 206.171875 101.160156 205.953125 C 99.667969 205.730469 98.179688 205.472656 96.703125 205.179688 C 95.222656 204.882812 93.75 204.554688 92.285156 204.1875 C 90.820312 203.820312 89.367188 203.417969 87.925781 202.980469 C 86.480469 202.542969 85.046875 202.066406 83.628906 201.558594 C 82.207031 201.050781 80.800781 200.507812 79.40625 199.929688 C 78.011719 199.355469 76.632812 198.742188 75.269531 198.097656 C 73.902344 197.453125 72.554688 196.773438 71.226562 196.0625 C 69.894531 195.351562 68.582031 194.609375 67.289062 193.832031 C 65.992188 193.054688 64.71875 192.25 63.464844 191.410156 C 62.210938 190.574219 60.976562 189.703125 59.765625 188.804688 C 58.554688 187.90625 57.363281 186.976562 56.195312 186.019531 C 55.03125 185.0625 53.886719 184.078125 52.769531 183.066406 C 51.652344 182.050781 50.558594 181.011719 49.492188 179.945312 C 48.425781 178.878906 47.386719 177.785156 46.371094 176.667969 C 45.359375 175.550781 44.375 174.40625 43.417969 173.242188 C 42.460938 172.074219 41.53125 170.882812 40.632812 169.671875 C 39.734375 168.460938 38.863281 167.226562 38.027344 165.972656 C 37.1875 164.71875 36.382812 163.445312 35.605469 162.148438 C 34.828125 160.855469 34.085938 159.542969 33.375 158.210938 C 32.664062 156.882812 31.984375 155.535156 31.339844 154.167969 C 30.695312 152.804688 30.082031 151.425781 29.507812 150.03125 C 28.929688 148.636719 28.386719 147.230469 27.878906 145.808594 C 27.371094 144.390625 26.894531 142.957031 26.457031 141.511719 C 26.019531 140.070312 25.617188 138.617188 25.25 137.152344 C 24.882812 135.6875 24.554688 134.214844 24.257812 132.734375 C 23.964844 131.257812 23.707031 129.769531 23.484375 128.277344 C 23.265625 126.785156 23.078125 125.289062 22.933594 123.785156 C 22.785156 122.285156 22.671875 120.78125 22.597656 119.273438 C 22.523438 117.765625 22.488281 116.257812 22.488281 114.75 C 22.488281 113.238281 22.523438 111.730469 22.597656 110.226562 C 22.671875 108.71875 22.785156 107.214844 22.933594 105.710938 C 23.078125 104.210938 23.265625 102.710938 23.484375 101.21875 C 23.707031 99.726562 23.964844 98.242188 24.257812 96.761719 C 24.554688 95.28125 24.882812 93.808594 25.25 92.347656 C 25.617188 90.882812 26.019531 89.429688 26.457031 87.984375 C 26.894531 86.539062 27.371094 85.109375 27.878906 83.6875 C 28.386719 82.265625 28.929688 80.859375 29.507812 79.464844 C 30.082031 78.070312 30.695312 76.691406 31.339844 75.328125 C 31.984375 73.964844 32.664062 72.617188 33.375 71.285156 C 34.085938 69.953125 34.828125 68.640625 35.605469 67.347656 C 36.382812 66.054688 37.1875 64.78125 38.027344 63.523438 C 38.863281 62.269531 39.734375 61.035156 40.632812 59.824219 C 41.53125 58.613281 42.460938 57.421875 43.417969 56.257812 C 44.375 55.089844 45.359375 53.949219 46.371094 52.832031 C 47.386719 51.710938 48.425781 50.621094 49.492188 49.554688 C 50.558594 48.484375 51.652344 47.445312 52.769531 46.433594 C 53.886719 45.417969 55.03125 44.433594 56.195312 43.476562 C 57.363281 42.519531 58.554688 41.589844 59.765625 40.691406 C 60.976562 39.792969 62.210938 38.925781 63.464844 38.085938 C 64.71875 37.25 65.992188 36.441406 67.289062 35.664062 C 68.582031 34.890625 69.894531 34.144531 71.226562 33.433594 C 72.554688 32.722656 73.902344 32.046875 75.269531 31.398438 C 76.632812 30.753906 78.011719 30.144531 79.40625 29.566406 C 80.800781 28.988281 82.207031 28.445312 83.628906 27.9375 C 85.046875 27.429688 86.480469 26.957031 87.925781 26.519531 C 89.367188 26.082031 90.820312 25.679688 92.285156 25.3125 C 93.75 24.945312 95.222656 24.613281 96.703125 24.320312 C 98.179688 24.023438 99.667969 23.765625 101.160156 23.546875 C 102.652344 23.324219 104.148438 23.140625 105.652344 22.992188 C 107.152344 22.84375 108.65625 22.734375 110.164062 22.660156 C 111.671875 22.585938 113.179688 22.546875 114.6875 22.546875 C 116.199219 22.546875 117.707031 22.585938 119.210938 22.660156 C 120.71875 22.734375 122.222656 22.84375 123.726562 22.992188 C 125.226562 23.140625 126.726562 23.324219 128.21875 23.546875 C 129.710938 23.765625 131.195312 24.023438 132.675781 24.320312 C 134.15625 24.613281 135.628906 24.945312 137.089844 25.3125 C 138.554688 25.679688 140.007812 26.082031 141.453125 26.519531 C 142.898438 26.957031 144.328125 27.429688 145.75 27.9375 C 147.171875 28.445312 148.578125 28.988281 149.972656 29.566406 C 151.367188 30.144531 152.746094 30.753906 154.109375 31.398438 C 155.472656 32.046875 156.820312 32.722656 158.152344 33.433594 C 159.484375 34.144531 160.796875 34.890625 162.089844 35.664062 C 163.382812 36.441406 164.65625 37.25 165.914062 38.085938 C 167.167969 38.925781 168.402344 39.792969 169.613281 40.691406 C 170.824219 41.589844 172.015625 42.519531 173.179688 43.476562 C 174.347656 44.433594 175.488281 45.417969 176.605469 46.433594 C 177.726562 47.445312 178.816406 48.484375 179.882812 49.554688 C 180.953125 50.621094 181.992188 51.710938 183.003906 52.832031 C 184.019531 53.949219 185.003906 55.089844 185.960938 56.257812 C 186.917969 57.421875 187.847656 58.613281 188.746094 59.824219 C 189.644531 61.035156 190.511719 62.269531 191.351562 63.523438 C 192.1875 64.78125 192.996094 66.054688 193.773438 67.347656 C 194.546875 68.640625 195.292969 69.953125 196.003906 71.285156 C 196.714844 72.617188 197.390625 73.964844 198.039062 75.328125 C 198.683594 76.691406 199.292969 78.070312 199.871094 79.464844 C 200.449219 80.859375 200.992188 82.265625 201.5 83.6875 C 202.007812 85.109375 202.480469 86.539062 202.917969 87.984375 C 203.359375 89.429688 203.761719 90.882812 204.125 92.347656 C 204.492188 93.808594 204.824219 95.28125 205.117188 96.761719 C 205.414062 98.242188 205.671875 99.726562 205.890625 101.21875 C 206.113281 102.710938 206.296875 104.210938 206.445312 105.710938 C 206.59375 107.214844 206.703125 108.71875 206.777344 110.226562 C 206.851562 111.730469 206.890625 113.238281 206.890625 114.75 Z M 206.890625 114.75 " fill-opacity="1" fill-rule="nonzero"/></g><g clip-path="url(#c09f1ebb54)"><path fill="#517ffc" d="M 206.882812 114.117188 C 206.882812 114.328125 206.890625 114.539062 206.890625 114.75 C 206.890625 165.671875 165.609375 206.949219 114.6875 206.949219 C 113.800781 206.949219 112.914062 206.933594 112.03125 206.910156 L 57.496094 152.371094 C 56.683594 151.699219 56.164062 150.683594 56.164062 149.550781 L 56.164062 80.449219 L 112.089844 124.863281 C 112.585938 125.257812 113.148438 125.523438 113.738281 125.660156 L 64.367188 76.289062 L 165.011719 76.289062 L 170.960938 82.238281 L 173.214844 80.449219 Z M 206.882812 114.117188 " fill-opacity="1" fill-rule="evenodd"/></g><path fill="#ffffff" d="M 165.011719 76.289062 L 114.6875 116.25 L 64.367188 76.289062 Z M 169.554688 153.207031 C 171.574219 153.207031 173.214844 151.566406 173.214844 149.550781 L 173.214844 80.449219 L 117.289062 124.863281 C 116.527344 125.46875 115.609375 125.769531 114.6875 125.769531 C 113.769531 125.769531 112.851562 125.46875 112.089844 124.863281 L 56.164062 80.449219 L 56.164062 149.550781 C 56.164062 151.566406 57.804688 153.207031 59.820312 153.207031 Z M 169.554688 153.207031 " fill-opacity="1" fill-rule="evenodd"/></svg>