<svg xmlns="http://www.w3.org/2000/svg" xmlns:xlink="http://www.w3.org/1999/xlink" width="300" zoomAndPan="magnify" viewBox="0 0 224.87999 225" height="300" preserveAspectRatio="xMidYMid meet" version="1.0"><defs><clipPath id="6c2f0ec3ee"><path d="M 24 31.101562 L 152 31.101562 L 152 145 L 24 145 Z M 24 31.101562 " clip-rule="nonzero"/></clipPath><clipPath id="9401f64f1c"><path d="M 106 105 L 205 105 L 205 193.765625 L 106 193.765625 Z M 106 105 " clip-rule="nonzero"/></clipPath></defs><g clip-path="url(#6c2f0ec3ee)"><path fill="#03a9f4" d="M 105.09375 69.8125 C 102.085938 69.8125 99.644531 67.371094 99.644531 64.363281 C 99.644531 61.355469 102.085938 58.917969 105.09375 58.917969 C 108.101562 58.917969 110.542969 61.355469 110.542969 64.363281 C 110.542969 67.371094 108.101562 69.8125 105.09375 69.8125 Z M 85.683594 75.257812 C 82.675781 75.257812 80.234375 72.820312 80.234375 69.8125 C 80.234375 66.804688 82.675781 64.363281 85.683594 64.363281 C 88.691406 64.363281 91.132812 66.804688 91.132812 69.8125 C 91.132812 72.820312 88.691406 75.257812 85.683594 75.257812 Z M 65.320312 80.707031 C 62.308594 80.707031 59.871094 78.265625 59.871094 75.257812 C 59.871094 72.25 62.308594 69.8125 65.320312 69.8125 C 68.328125 69.8125 70.769531 72.25 70.769531 75.257812 C 70.769531 78.265625 68.328125 80.707031 65.320312 80.707031 Z M 136.59375 39.65625 C 127.5 34.140625 114.855469 31.105469 100.988281 31.105469 C 96.636719 31.105469 92.152344 31.402344 87.664062 31.984375 C 52.335938 36.578125 27.539062 54.871094 24.484375 78.589844 C 24.484375 78.605469 24.480469 78.621094 24.480469 78.636719 C 22.542969 97.964844 27.132812 113.605469 38.117188 125.121094 C 46.675781 134.09375 59.164062 140.578125 75.230469 144.40625 C 75.359375 144.433594 75.488281 144.449219 75.617188 144.449219 C 75.632812 144.449219 75.648438 144.449219 75.664062 144.449219 C 76.570312 144.429688 77.296875 143.6875 77.296875 142.777344 C 77.296875 142.226562 77.03125 141.734375 76.617188 141.429688 C 62.632812 129.464844 60.050781 117.652344 60.625 109.335938 C 65.136719 110.070312 69.890625 110.441406 74.785156 110.441406 C 79.132812 110.441406 83.613281 110.144531 88.09375 109.5625 C 104.859375 107.382812 120.636719 101.394531 132.519531 92.703125 C 144.621094 83.851562 151.289062 73.210938 151.289062 62.746094 C 151.289062 53.605469 146.070312 45.40625 136.59375 39.65625 " fill-opacity="1" fill-rule="nonzero"/></g><g clip-path="url(#9401f64f1c)"><path fill="#43a047" d="M 179.046875 141.519531 C 177.65625 144.1875 174.367188 145.222656 171.699219 143.832031 C 169.03125 142.441406 167.996094 139.152344 169.386719 136.484375 C 170.777344 133.816406 174.066406 132.78125 176.734375 134.171875 C 179.40625 135.5625 180.4375 138.851562 179.046875 141.519531 Z M 159.316406 137.382812 C 157.925781 140.046875 154.636719 141.082031 151.96875 139.695312 C 149.300781 138.304688 148.261719 135.015625 149.652344 132.347656 C 151.046875 129.679688 154.335938 128.640625 157.003906 130.03125 C 159.671875 131.425781 160.707031 134.714844 159.316406 137.382812 Z M 138.742188 132.800781 C 137.351562 135.46875 134.058594 136.507812 131.390625 135.117188 C 128.722656 133.722656 127.6875 130.433594 129.078125 127.765625 C 130.46875 125.101562 133.761719 124.066406 136.429688 125.457031 C 139.09375 126.84375 140.132812 130.132812 138.742188 132.800781 Z M 204.601562 142.710938 C 204.601562 142.699219 204.601562 142.683594 204.597656 142.675781 C 202.230469 124.277344 182.992188 110.085938 155.589844 106.519531 C 152.105469 106.070312 148.628906 105.839844 145.253906 105.839844 C 134.496094 105.839844 124.683594 108.195312 117.632812 112.472656 C 110.285156 116.929688 106.234375 123.292969 106.234375 130.382812 C 106.234375 138.5 111.40625 146.753906 120.792969 153.621094 C 130.011719 160.367188 142.25 165.007812 155.253906 166.703125 C 158.734375 167.152344 162.207031 167.382812 165.578125 167.382812 C 169.375 167.382812 173.0625 167.09375 176.5625 166.523438 C 177.011719 172.976562 175.007812 182.136719 164.160156 191.421875 C 163.835938 191.660156 163.628906 192.039062 163.628906 192.464844 C 163.628906 193.175781 164.195312 193.75 164.902344 193.765625 C 164.910156 193.765625 164.921875 193.765625 164.933594 193.765625 C 165.03125 193.765625 165.132812 193.753906 165.234375 193.730469 C 177.699219 190.765625 187.382812 185.730469 194.023438 178.769531 C 202.546875 169.835938 206.105469 157.703125 204.601562 142.710938 " fill-opacity="1" fill-rule="nonzero"/></g></svg>