<svg xmlns="http://www.w3.org/2000/svg" xmlns:xlink="http://www.w3.org/1999/xlink" width="300" zoomAndPan="magnify" viewBox="0 0 224.87999 225" height="300" preserveAspectRatio="xMidYMid meet" version="1.0"><defs><clipPath id="de7eeb6e3d"><path d="M 57 42.898438 L 202.390625 42.898438 L 202.390625 182.324219 L 57 182.324219 Z M 57 42.898438 " clip-rule="nonzero"/></clipPath><clipPath id="f351f93e71"><path d="M 22.488281 105 L 100 105 L 100 182.324219 L 22.488281 182.324219 Z M 22.488281 105 " clip-rule="nonzero"/></clipPath></defs><path fill="#eaf4fb" d="M 61.640625 86.429688 L 58.351562 113.875 C 76.195312 114.203125 90.5625 128.789062 90.5625 146.738281 C 90.5625 164.898438 75.867188 179.621094 57.734375 179.621094 L 171.117188 179.621094 L 180.996094 86.429688 Z M 61.640625 86.429688 " fill-opacity="1" fill-rule="nonzero"/><path fill="#bae2fb" d="M 79.402344 171.429688 C 73.625 176.523438 66.042969 179.621094 57.734375 179.621094 L 171.117188 179.621094 L 177.144531 122.789062 C 176.703125 123.160156 176.199219 123.585938 175.632812 124.054688 C 165.3125 140.359375 139.402344 167.179688 79.402344 171.429688 Z M 79.402344 171.429688 " fill-opacity="1" fill-rule="nonzero"/><path fill="#ff2746" d="M 184 58.105469 L 65.03125 58.105469 L 61.640625 86.429688 L 180.996094 86.429688 Z M 184 58.105469 " fill-opacity="1" fill-rule="nonzero"/><path fill="#e1173e" d="M 63.308594 72.515625 L 61.734375 85.636719 C 62.3125 85.902344 62.898438 86.164062 63.488281 86.429688 L 180.996094 86.429688 L 184 58.105469 L 161.914062 58.105469 C 149.761719 71.125 122.507812 85.800781 63.308594 72.515625 Z M 63.308594 72.515625 " fill-opacity="1" fill-rule="nonzero"/><path fill="#2b418c" d="M 184 71.011719 L 171.117188 179.621094 L 199.8125 179.621094 Z M 184 71.011719 " fill-opacity="1" fill-rule="nonzero"/><path fill="#0c2660" d="M 192.453125 129.054688 L 190.429688 125.316406 C 190.429688 125.316406 184.242188 168.71875 175.210938 159.335938 C 174.707031 158.8125 174.195312 158.402344 173.671875 158.078125 L 171.117188 179.621094 L 199.8125 179.621094 Z M 192.453125 129.054688 " fill-opacity="1" fill-rule="nonzero"/><path fill="#f4cd0b" d="M 96.558594 144.007812 C 96.558594 145.175781 96.503906 146.34375 96.386719 147.503906 C 96.273438 148.667969 96.101562 149.820312 95.875 150.96875 C 95.648438 152.113281 95.363281 153.246094 95.027344 154.363281 C 94.6875 155.480469 94.296875 156.578125 93.847656 157.660156 C 93.402344 158.738281 92.90625 159.792969 92.355469 160.824219 C 91.804688 161.851562 91.207031 162.855469 90.558594 163.824219 C 89.910156 164.796875 89.21875 165.734375 88.476562 166.636719 C 87.738281 167.539062 86.957031 168.402344 86.128906 169.230469 C 85.304688 170.054688 84.441406 170.839844 83.542969 171.582031 C 82.640625 172.320312 81.703125 173.015625 80.734375 173.664062 C 79.765625 174.316406 78.765625 174.914062 77.738281 175.464844 C 76.707031 176.015625 75.65625 176.515625 74.578125 176.960938 C 73.5 177.410156 72.402344 177.800781 71.289062 178.140625 C 70.171875 178.480469 69.042969 178.765625 67.898438 178.992188 C 66.753906 179.21875 65.601562 179.390625 64.441406 179.503906 C 63.28125 179.621094 62.117188 179.675781 60.953125 179.675781 C 59.785156 179.675781 58.621094 179.621094 57.460938 179.503906 C 56.300781 179.390625 55.148438 179.21875 54.003906 178.992188 C 52.859375 178.765625 51.730469 178.480469 50.613281 178.140625 C 49.5 177.800781 48.402344 177.410156 47.324219 176.960938 C 46.246094 176.515625 45.195312 176.015625 44.164062 175.464844 C 43.136719 174.914062 42.136719 174.316406 41.167969 173.664062 C 40.199219 173.015625 39.261719 172.320312 38.363281 171.582031 C 37.460938 170.839844 36.597656 170.054688 35.773438 169.230469 C 34.949219 168.402344 34.164062 167.539062 33.425781 166.636719 C 32.6875 165.734375 31.992188 164.796875 31.34375 163.824219 C 30.695312 162.855469 30.097656 161.851562 29.546875 160.824219 C 28.996094 159.792969 28.5 158.738281 28.054688 157.660156 C 27.605469 156.578125 27.214844 155.480469 26.875 154.363281 C 26.539062 153.246094 26.253906 152.113281 26.027344 150.96875 C 25.800781 149.820312 25.628906 148.667969 25.515625 147.503906 C 25.398438 146.34375 25.34375 145.175781 25.34375 144.007812 C 25.34375 142.839844 25.398438 141.675781 25.515625 140.511719 C 25.628906 139.351562 25.800781 138.195312 26.027344 137.050781 C 26.253906 135.902344 26.539062 134.773438 26.875 133.65625 C 27.214844 132.535156 27.605469 131.4375 28.054688 130.359375 C 28.5 129.28125 28.996094 128.226562 29.546875 127.195312 C 30.097656 126.164062 30.695312 125.164062 31.34375 124.191406 C 31.992188 123.222656 32.6875 122.285156 33.425781 121.378906 C 34.164062 120.476562 34.949219 119.613281 35.773438 118.789062 C 36.597656 117.960938 37.460938 117.175781 38.363281 116.4375 C 39.261719 115.695312 40.199219 115 41.167969 114.351562 C 42.136719 113.703125 43.136719 113.101562 44.164062 112.550781 C 45.195312 112 46.246094 111.503906 47.324219 111.054688 C 48.402344 110.609375 49.5 110.214844 50.613281 109.875 C 51.730469 109.535156 52.859375 109.253906 54.003906 109.027344 C 55.148438 108.796875 56.300781 108.625 57.460938 108.511719 C 58.621094 108.398438 59.785156 108.339844 60.953125 108.339844 C 62.117188 108.339844 63.28125 108.398438 64.441406 108.511719 C 65.601562 108.625 66.753906 108.796875 67.898438 109.027344 C 69.042969 109.253906 70.171875 109.535156 71.289062 109.875 C 72.402344 110.214844 73.5 110.609375 74.578125 111.054688 C 75.65625 111.503906 76.707031 112 77.738281 112.550781 C 78.765625 113.101562 79.765625 113.703125 80.734375 114.351562 C 81.703125 115 82.640625 115.695312 83.542969 116.4375 C 84.441406 117.175781 85.304688 117.960938 86.128906 118.789062 C 86.957031 119.613281 87.738281 120.476562 88.476562 121.378906 C 89.21875 122.285156 89.910156 123.222656 90.558594 124.191406 C 91.207031 125.164062 91.804688 126.164062 92.355469 127.195312 C 92.90625 128.226562 93.402344 129.28125 93.847656 130.359375 C 94.296875 131.4375 94.6875 132.535156 95.027344 133.65625 C 95.363281 134.773438 95.648438 135.902344 95.875 137.050781 C 96.101562 138.195312 96.273438 139.351562 96.386719 140.511719 C 96.503906 141.675781 96.558594 142.839844 96.558594 144.007812 Z M 96.558594 144.007812 " fill-opacity="1" fill-rule="nonzero"/><path fill="#ed701b" d="M 96.558594 144.007812 C 96.558594 137.648438 94.890625 131.679688 91.976562 126.511719 C 81.886719 147.191406 61.335938 174.589844 27.726562 156.839844 C 32.871094 170.195312 45.800781 179.675781 60.953125 179.675781 C 80.617188 179.675781 96.558594 163.707031 96.558594 144.007812 Z M 96.558594 144.007812 " fill-opacity="1" fill-rule="nonzero"/><g clip-path="url(#de7eeb6e3d)"><path fill="#141413" d="M 186.226562 57.292969 C 186.222656 57.261719 186.214844 57.234375 186.210938 57.203125 C 186.203125 57.171875 186.199219 57.136719 186.191406 57.101562 C 186.183594 57.054688 186.167969 57.011719 186.15625 56.96875 C 186.148438 56.941406 186.144531 56.914062 186.132812 56.890625 C 186.117188 56.835938 186.097656 56.785156 186.074219 56.734375 C 186.066406 56.71875 186.0625 56.703125 186.054688 56.6875 C 186.027344 56.621094 185.996094 56.558594 185.960938 56.5 C 185.957031 56.496094 185.957031 56.492188 185.957031 56.488281 C 185.878906 56.359375 185.789062 56.234375 185.691406 56.125 C 185.691406 56.121094 185.6875 56.121094 185.6875 56.121094 C 185.679688 56.109375 185.671875 56.101562 185.664062 56.09375 C 185.621094 56.050781 185.578125 56.007812 185.535156 55.96875 C 185.519531 55.949219 185.5 55.9375 185.480469 55.921875 C 185.441406 55.886719 185.40625 55.859375 185.367188 55.828125 C 185.34375 55.8125 185.320312 55.796875 185.300781 55.78125 C 185.261719 55.753906 185.222656 55.730469 185.183594 55.707031 C 185.160156 55.691406 185.136719 55.679688 185.113281 55.667969 C 185.070312 55.644531 185.03125 55.621094 184.984375 55.601562 C 184.964844 55.589844 184.941406 55.582031 184.917969 55.570312 C 184.871094 55.550781 184.824219 55.535156 184.777344 55.519531 C 184.757812 55.511719 184.734375 55.503906 184.710938 55.496094 C 184.664062 55.480469 184.613281 55.46875 184.566406 55.457031 C 184.542969 55.449219 184.519531 55.445312 184.496094 55.441406 C 184.445312 55.429688 184.398438 55.421875 184.347656 55.417969 C 184.320312 55.414062 184.296875 55.410156 184.273438 55.410156 C 184.226562 55.402344 184.175781 55.402344 184.128906 55.402344 C 184.109375 55.398438 184.089844 55.398438 184.070312 55.398438 L 160.660156 55.398438 C 159.605469 48.332031 153.507812 42.894531 146.164062 42.894531 C 138.824219 42.894531 132.722656 48.332031 131.667969 55.398438 L 108.964844 55.398438 C 107.910156 48.332031 101.808594 42.894531 94.46875 42.894531 C 87.125 42.894531 81.027344 48.332031 79.972656 55.398438 L 64.378906 55.398438 C 63.265625 55.398438 62.332031 56.238281 62.214844 57.347656 L 59.125 86.644531 C 59.125 86.644531 59.125 86.648438 59.121094 86.648438 L 57.964844 97.617188 C 57.839844 98.8125 58.707031 99.886719 59.902344 100.011719 C 59.980469 100.019531 60.054688 100.027344 60.132812 100.027344 C 61.230469 100.027344 62.175781 99.195312 62.292969 98.074219 L 63.246094 89.050781 L 177.828125 89.050781 C 178.09375 89.050781 178.34375 89 178.578125 88.914062 L 169.183594 177.972656 L 89.636719 177.972656 C 88.4375 177.972656 87.460938 178.945312 87.460938 180.152344 C 87.460938 181.355469 88.4375 182.332031 89.636719 182.332031 L 200.117188 182.332031 C 200.746094 182.332031 201.339844 182.058594 201.753906 181.589844 C 202.167969 181.117188 202.355469 180.488281 202.277344 179.867188 Z M 177.828125 84.691406 L 63.707031 84.691406 L 66.335938 59.757812 L 94.46875 59.757812 C 95.667969 59.757812 96.644531 58.78125 96.644531 57.578125 C 96.644531 56.375 95.667969 55.398438 94.46875 55.398438 L 84.394531 55.398438 C 85.398438 50.75 89.53125 47.253906 94.46875 47.253906 C 100.148438 47.253906 104.773438 51.886719 104.773438 57.578125 C 104.773438 63.269531 100.148438 67.898438 94.46875 67.898438 C 93.265625 67.898438 92.292969 68.875 92.292969 70.082031 C 92.292969 71.285156 93.265625 72.261719 94.46875 72.261719 C 101.808594 72.261719 107.910156 66.824219 108.964844 59.757812 L 146.921875 59.757812 C 148.125 59.757812 149.097656 58.78125 149.097656 57.578125 C 149.097656 56.375 148.125 55.398438 146.921875 55.398438 L 136.09375 55.398438 C 137.09375 50.75 141.230469 47.253906 146.164062 47.253906 C 151.847656 47.253906 156.472656 51.886719 156.472656 57.578125 C 156.472656 63.269531 151.847656 67.898438 146.164062 67.898438 C 144.964844 67.898438 143.988281 68.875 143.988281 70.082031 C 143.988281 71.285156 144.964844 72.261719 146.164062 72.261719 C 153.507812 72.261719 159.605469 66.824219 160.660156 59.757812 L 181.652344 59.757812 L 178.988281 85.027344 C 178.652344 84.8125 178.253906 84.691406 177.828125 84.691406 Z M 173.558594 177.972656 L 184.300781 76.117188 L 197.636719 177.972656 Z M 173.558594 177.972656 " fill-opacity="1" fill-rule="nonzero"/></g><path fill="#141413" d="M 141.867188 112.71875 L 156.15625 112.71875 C 157.359375 112.71875 158.332031 111.742188 158.332031 110.539062 C 158.332031 109.332031 157.359375 108.359375 156.15625 108.359375 L 141.867188 108.359375 C 140.667969 108.359375 139.691406 109.332031 139.691406 110.539062 C 139.691406 111.742188 140.667969 112.71875 141.867188 112.71875 Z M 141.867188 112.71875 " fill-opacity="1" fill-rule="nonzero"/><path fill="#141413" d="M 109.335938 112.71875 L 123.625 112.71875 C 124.828125 112.71875 125.800781 111.742188 125.800781 110.539062 C 125.800781 109.332031 124.828125 108.359375 123.625 108.359375 L 109.335938 108.359375 C 108.136719 108.359375 107.160156 109.332031 107.160156 110.539062 C 107.160156 111.742188 108.136719 112.71875 109.335938 112.71875 Z M 109.335938 112.71875 " fill-opacity="1" fill-rule="nonzero"/><path fill="#141413" d="M 141.867188 135.417969 L 156.15625 135.417969 C 157.359375 135.417969 158.332031 134.441406 158.332031 133.238281 C 158.332031 132.035156 157.359375 131.058594 156.15625 131.058594 L 141.867188 131.058594 C 140.667969 131.058594 139.691406 132.035156 139.691406 133.238281 C 139.691406 134.441406 140.667969 135.417969 141.867188 135.417969 Z M 141.867188 135.417969 " fill-opacity="1" fill-rule="nonzero"/><path fill="#141413" d="M 109.335938 135.417969 L 123.625 135.417969 C 124.828125 135.417969 125.800781 134.441406 125.800781 133.238281 C 125.800781 132.035156 124.828125 131.058594 123.625 131.058594 L 109.335938 131.058594 C 108.136719 131.058594 107.160156 132.035156 107.160156 133.238281 C 107.160156 134.441406 108.136719 135.417969 109.335938 135.417969 Z M 109.335938 135.417969 " fill-opacity="1" fill-rule="nonzero"/><path fill="#141413" d="M 141.867188 158.117188 L 156.15625 158.117188 C 157.359375 158.117188 158.332031 157.140625 158.332031 155.9375 C 158.332031 154.734375 157.359375 153.757812 156.15625 153.757812 L 141.867188 153.757812 C 140.667969 153.757812 139.691406 154.734375 139.691406 155.9375 C 139.691406 157.140625 140.667969 158.117188 141.867188 158.117188 Z M 141.867188 158.117188 " fill-opacity="1" fill-rule="nonzero"/><path fill="#141413" d="M 109.335938 158.117188 L 123.625 158.117188 C 124.828125 158.117188 125.800781 157.140625 125.800781 155.9375 C 125.800781 154.734375 124.828125 153.757812 123.625 153.757812 L 109.335938 153.757812 C 108.136719 153.757812 107.160156 154.734375 107.160156 155.9375 C 107.160156 157.140625 108.136719 158.117188 109.335938 158.117188 Z M 109.335938 158.117188 " fill-opacity="1" fill-rule="nonzero"/><g clip-path="url(#f351f93e71)"><path fill="#141413" d="M 99.019531 144.007812 C 99.019531 122.878906 81.859375 105.6875 60.765625 105.6875 C 39.667969 105.6875 22.507812 122.878906 22.507812 144.007812 C 22.507812 165.140625 39.667969 182.332031 60.765625 182.332031 C 81.859375 182.332031 99.019531 165.140625 99.019531 144.007812 Z M 60.765625 177.972656 C 42.070312 177.972656 26.859375 162.734375 26.859375 144.007812 C 26.859375 125.28125 42.070312 110.046875 60.765625 110.046875 C 79.460938 110.046875 94.667969 125.28125 94.667969 144.007812 C 94.667969 162.734375 79.460938 177.972656 60.765625 177.972656 Z M 60.765625 177.972656 " fill-opacity="1" fill-rule="nonzero"/></g><path fill="#ffffff" d="M 72.449219 144.957031 L 61.347656 144.957031 L 61.347656 127.527344 C 61.347656 126.324219 60.375 125.347656 59.171875 125.347656 C 57.96875 125.347656 56.996094 126.324219 56.996094 127.527344 L 56.996094 147.136719 C 56.996094 148.34375 57.96875 149.316406 59.171875 149.316406 L 72.449219 149.316406 C 73.652344 149.316406 74.625 148.34375 74.625 147.136719 C 74.625 145.933594 73.652344 144.957031 72.449219 144.957031 Z M 72.449219 144.957031 " fill-opacity="1" fill-rule="nonzero"/><path fill="#ffffff" d="M 172.105469 69.246094 C 172.050781 69.117188 171.980469 68.988281 171.902344 68.871094 C 171.824219 68.75 171.734375 68.640625 171.632812 68.539062 C 171.128906 68.035156 170.375 67.800781 169.671875 67.941406 C 169.527344 67.972656 169.394531 68.015625 169.265625 68.066406 C 169.128906 68.121094 169.003906 68.1875 168.886719 68.269531 C 168.769531 68.347656 168.65625 68.4375 168.554688 68.539062 C 168.457031 68.640625 168.367188 68.75 168.285156 68.871094 C 168.207031 68.988281 168.140625 69.117188 168.085938 69.246094 C 168.03125 69.378906 167.988281 69.515625 167.960938 69.65625 C 167.933594 69.792969 167.917969 69.9375 167.917969 70.078125 C 167.917969 70.652344 168.152344 71.214844 168.554688 71.621094 C 168.65625 71.722656 168.769531 71.816406 168.886719 71.894531 C 169.003906 71.96875 169.128906 72.035156 169.265625 72.09375 C 169.394531 72.148438 169.527344 72.1875 169.671875 72.214844 C 169.808594 72.246094 169.953125 72.257812 170.09375 72.257812 C 170.667969 72.257812 171.226562 72.027344 171.632812 71.621094 C 172.039062 71.214844 172.269531 70.652344 172.269531 70.078125 C 172.269531 69.9375 172.253906 69.792969 172.226562 69.65625 C 172.199219 69.515625 172.160156 69.378906 172.105469 69.246094 Z M 172.105469 69.246094 " fill-opacity="1" fill-rule="nonzero"/><path fill="#ffffff" d="M 76.394531 67.941406 C 76.257812 67.972656 76.117188 68.015625 75.988281 68.066406 C 75.859375 68.121094 75.730469 68.1875 75.613281 68.269531 C 75.492188 68.347656 75.382812 68.4375 75.28125 68.539062 C 74.875 68.945312 74.644531 69.503906 74.644531 70.078125 C 74.644531 70.652344 74.875 71.214844 75.28125 71.621094 C 75.382812 71.722656 75.492188 71.816406 75.613281 71.894531 C 75.730469 71.96875 75.859375 72.035156 75.988281 72.09375 C 76.117188 72.148438 76.257812 72.1875 76.394531 72.214844 C 76.535156 72.246094 76.675781 72.257812 76.820312 72.257812 C 77.394531 72.257812 77.953125 72.027344 78.359375 71.621094 C 78.761719 71.214844 78.996094 70.652344 78.996094 70.078125 C 78.996094 69.503906 78.761719 68.945312 78.359375 68.539062 C 77.851562 68.035156 77.101562 67.800781 76.394531 67.941406 Z M 76.394531 67.941406 " fill-opacity="1" fill-rule="nonzero"/></svg>