<svg xmlns="http://www.w3.org/2000/svg" xmlns:xlink="http://www.w3.org/1999/xlink" width="300" zoomAndPan="magnify" viewBox="0 0 224.87999 225" height="300" preserveAspectRatio="xMidYMid meet" version="1.0"><defs><clipPath id="0ba506eb5c"><path d="M 2 10 L 224.761719 10 L 224.761719 215 L 2 215 Z M 2 10 " clip-rule="nonzero"/></clipPath><clipPath id="d5d8d561a1"><path d="M 71 50 L 144 50 L 144 73.03125 L 71 73.03125 Z M 71 50 " clip-rule="nonzero"/></clipPath><clipPath id="7485b687fc"><path d="M 69.925781 0.296875 L 144.625 0.296875 L 144.625 28 L 69.925781 28 Z M 69.925781 0.296875 " clip-rule="nonzero"/></clipPath><clipPath id="02306928b0"><path d="M 1 42 L 222.09375 42 L 222.09375 204.984375 L 1 204.984375 Z M 1 42 " clip-rule="nonzero"/></clipPath><clipPath id="1e2a2033d4"><rect x="0" width="223" y="0" height="205"/></clipPath></defs><g clip-path="url(#0ba506eb5c)"><g transform="matrix(1, 0, 0, 1, 2, 10)"><g clip-path="url(#1e2a2033d4)"><path fill="#e6454d" d="M 96.691406 37.777344 C 96.476562 37.777344 97.125 36.667969 97.910156 35.394531 C 97.136719 33.546875 96.503906 31.902344 96.503906 31.699219 L 96.503906 24.625 C 96.503906 24.136719 96.898438 23.734375 97.378906 23.734375 L 100.933594 23.734375 C 101.417969 23.734375 101.808594 24.136719 101.808594 24.625 L 101.808594 31.699219 C 101.808594 31.964844 100.519531 33.644531 99.230469 35.167969 C 100.011719 37.8125 100.933594 40.988281 100.644531 40.988281 C 100.394531 40.988281 99.285156 38.613281 98.28125 36.261719 C 97.5 37.132812 96.855469 37.777344 96.691406 37.777344 Z M 96.691406 37.777344 " fill-opacity="1" fill-rule="evenodd"/><path fill="#e6454d" d="M 111.328125 40.988281 C 111.066406 40.988281 112.632812 38.371094 114.109375 35.917969 C 113.539062 34.242188 112.945312 32.003906 112.945312 31.699219 L 112.945312 24.625 C 112.945312 24.136719 113.339844 23.734375 113.820312 23.734375 L 117.378906 23.734375 C 117.859375 23.734375 118.253906 24.136719 118.253906 24.625 L 118.253906 31.699219 C 118.253906 31.945312 116.742188 34.132812 115.125 36.324219 C 115.167969 37.164062 115.148438 37.777344 114.988281 37.777344 C 114.882812 37.777344 114.730469 37.515625 114.550781 37.097656 C 113.019531 39.144531 111.550781 40.988281 111.328125 40.988281 Z M 111.328125 40.988281 " fill-opacity="1" fill-rule="evenodd"/><g clip-path="url(#d5d8d561a1)"><path fill="#e6454d" d="M 142.539062 73.03125 L 72.214844 73.03125 C 71.734375 73.03125 71.34375 72.628906 71.34375 72.136719 L 71.34375 60.21875 C 71.34375 59.730469 71.734375 59.328125 72.214844 59.328125 C 72.503906 59.328125 85.988281 57.320312 96.863281 55.800781 L 82.976562 51.015625 C 82.976562 50.792969 94.855469 52.441406 108 54.328125 C 109.542969 54.152344 110.453125 54.078125 110.453125 54.15625 L 109.578125 54.554688 C 125.332031 56.820312 142.285156 59.328125 142.539062 59.328125 C 143.023438 59.328125 143.414062 59.730469 143.414062 60.21875 L 143.414062 72.136719 C 143.414062 72.628906 143.023438 73.03125 142.539062 73.03125 Z M 142.539062 73.03125 " fill-opacity="1" fill-rule="evenodd"/></g><path fill="#ff4d55" d="M 142.539062 61.109375 L 72.214844 61.109375 C 71.894531 61.109375 71.605469 60.933594 71.445312 60.648438 C 71.285156 60.367188 71.296875 60.027344 71.472656 59.742188 L 89.054688 31.238281 C 89.214844 30.988281 89.492188 30.824219 89.796875 30.824219 L 124.960938 30.824219 C 125.265625 30.824219 125.542969 30.988281 125.703125 31.238281 L 143.269531 59.742188 C 143.445312 60.011719 143.445312 60.367188 143.296875 60.648438 C 143.152344 60.933594 142.847656 61.109375 142.539062 61.109375 Z M 142.539062 61.109375 " fill-opacity="1" fill-rule="evenodd"/><path fill="#f9f6f9" d="M 99.769531 44.199219 L 93.617188 44.199219 C 93.136719 44.199219 92.742188 43.796875 92.742188 43.304688 L 92.742188 38.667969 C 92.742188 38.179688 93.136719 37.777344 93.617188 37.777344 L 99.769531 37.777344 C 100.25 37.777344 100.644531 38.179688 100.644531 38.667969 L 100.644531 43.304688 C 100.644531 43.796875 100.25 44.199219 99.769531 44.199219 Z M 121.140625 54.15625 L 114.988281 54.15625 C 114.507812 54.15625 114.113281 53.753906 114.113281 53.261719 L 114.113281 48.625 C 114.113281 48.136719 114.507812 47.734375 114.988281 47.734375 L 121.140625 47.734375 C 121.621094 47.734375 122.015625 48.136719 122.015625 48.625 L 122.015625 53.261719 C 122.015625 53.753906 121.621094 54.15625 121.140625 54.15625 Z M 110.453125 54.15625 L 104.300781 54.15625 C 103.820312 54.15625 103.429688 53.753906 103.429688 53.261719 L 103.429688 48.625 C 103.429688 48.136719 103.820312 47.734375 104.300781 47.734375 L 110.453125 47.734375 C 110.933594 47.734375 111.328125 48.136719 111.328125 48.625 L 111.328125 53.261719 C 111.328125 53.753906 110.933594 54.15625 110.453125 54.15625 Z M 99.769531 54.15625 L 93.617188 54.15625 C 93.136719 54.15625 92.742188 53.753906 92.742188 53.261719 L 92.742188 48.625 C 92.742188 48.136719 93.136719 47.734375 93.617188 47.734375 L 99.769531 47.734375 C 100.25 47.734375 100.644531 48.136719 100.644531 48.625 L 100.644531 53.261719 C 100.644531 53.753906 100.25 54.15625 99.769531 54.15625 Z M 121.140625 44.199219 L 114.988281 44.199219 C 114.507812 44.199219 114.113281 43.796875 114.113281 43.304688 L 114.113281 38.667969 C 114.113281 38.179688 114.507812 37.777344 114.988281 37.777344 L 121.140625 37.777344 C 121.621094 37.777344 122.015625 38.179688 122.015625 38.667969 L 122.015625 43.304688 C 122.015625 43.796875 121.621094 44.199219 121.140625 44.199219 Z M 110.453125 44.199219 L 104.304688 44.199219 C 103.820312 44.199219 103.429688 43.796875 103.429688 43.304688 L 103.429688 38.667969 C 103.429688 38.179688 103.820312 37.777344 104.304688 37.777344 L 110.453125 37.777344 C 110.933594 37.777344 111.328125 38.179688 111.328125 38.667969 L 111.328125 43.304688 C 111.328125 43.796875 110.933594 44.199219 110.453125 44.199219 Z M 110.453125 44.199219 " fill-opacity="1" fill-rule="evenodd"/><g clip-path="url(#7485b687fc)"><path fill="#ff4d55" d="M 137.308594 27.65625 L 130.0625 27.65625 C 126.054688 27.65625 122.789062 24.328125 122.789062 20.242188 L 122.789062 15.695312 C 122.789062 13.671875 121.183594 12.039062 119.199219 12.039062 L 95.308594 12.039062 C 93.324219 12.039062 91.722656 13.671875 91.722656 15.695312 L 91.722656 20.242188 C 91.722656 24.328125 88.457031 27.65625 84.449219 27.65625 L 77.21875 27.65625 C 73.207031 27.65625 69.941406 24.328125 69.941406 20.242188 C 69.941406 9.242188 78.71875 0.296875 89.507812 0.296875 L 125.03125 0.296875 C 135.820312 0.296875 144.597656 9.242188 144.597656 20.242188 C 144.582031 24.328125 141.316406 27.65625 137.308594 27.65625 Z M 137.308594 27.65625 " fill-opacity="1" fill-rule="evenodd"/></g><g clip-path="url(#02306928b0)"><path fill="#03b8ed" d="M 24.125 93.496094 C 31.304688 84.210938 38.542969 74.964844 45.835938 65.761719 C 50.433594 59.976562 52.433594 53.703125 50.058594 46.449219 C 48.664062 42.1875 47.890625 41.941406 44.488281 44.847656 C 34.039062 53.773438 24.539062 63.566406 16.695312 74.917969 C 3.457031 94.074219 -1.988281 114.878906 3.238281 137.945312 C 6.328125 151.574219 13.78125 161.851562 26.878906 167.433594 C 41.699219 173.753906 57.476562 175.609375 73.335938 176.855469 C 79.015625 177.300781 84.742188 177.167969 90.449219 177.296875 C 92.765625 177.347656 95.089844 177.507812 97.40625 177.417969 C 117.933594 176.640625 138.027344 172.796875 158.078125 168.6875 C 161.070312 168.074219 164.074219 167.519531 167.492188 166.859375 C 166.996094 167.882812 166.6875 168.535156 166.363281 169.183594 C 164.929688 172.042969 163.363281 174.84375 162.082031 177.769531 C 159.449219 183.773438 158.113281 190.054688 158.070312 196.609375 C 158.039062 199.570312 158.652344 202.296875 161.253906 204.671875 C 161.730469 203.683594 162.035156 203.007812 162.371094 202.347656 C 164.277344 198.605469 165.695312 194.488281 168.210938 191.210938 C 172.402344 185.757812 176.792969 180.242188 182.015625 175.832031 C 191.730469 167.621094 202.03125 160.097656 212.230469 152.472656 C 214.253906 151.015625 216 149.28125 217.46875 147.265625 C 218.941406 145.253906 220.058594 143.0625 220.832031 140.691406 C 222.886719 134.464844 222.632812 128.058594 222.5 121.65625 C 222.332031 121.035156 221.941406 120.621094 221.332031 120.414062 C 218.386719 119.808594 215.429688 119.179688 212.449219 118.851562 C 199.082031 117.386719 185.957031 114.613281 172.839844 111.789062 C 163.953125 109.875 155.070312 107.9375 146.167969 106.097656 C 141.953125 105.222656 139.75 106.582031 139.097656 110.667969 C 138.613281 114.085938 138.328125 117.519531 138.234375 120.972656 C 138.132812 123.394531 139.367188 125.15625 141.621094 126.136719 C 142.414062 126.519531 143.226562 126.851562 144.058594 127.128906 C 153.144531 129.769531 162.246094 132.371094 171.335938 135.011719 C 173.855469 135.746094 176.34375 136.574219 178.847656 137.363281 C 178.851562 137.566406 178.859375 137.773438 178.863281 137.980469 C 174.945312 139.015625 171.066406 140.261719 167.097656 141.046875 C 153.136719 143.804688 139.191406 146.707031 125.144531 148.957031 C 114.316406 150.691406 103.367188 151.800781 92.429688 152.6875 C 81.257812 153.671875 70.097656 153.566406 58.949219 152.375 C 49.363281 151.285156 39.984375 149.457031 31.097656 145.570312 C 24.328125 142.605469 18.410156 138.507812 13.640625 132.78125 C 10.023438 128.433594 9.144531 123.738281 11.015625 118.375 C 14.136719 109.410156 18.3125 101.015625 24.125 93.496094 Z M 166.53125 163.785156 C 166.636719 164.074219 166.742188 164.363281 166.84375 164.652344 C 165.335938 165.097656 163.824219 165.539062 162.316406 165.984375 C 162.257812 165.828125 162.199219 165.667969 162.144531 165.507812 C 163.605469 164.933594 165.070312 164.359375 166.53125 163.785156 Z M 156.453125 167.050781 C 147.972656 168.816406 139.589844 171.15625 130.855469 171.378906 C 139.339844 169.644531 147.726562 167.300781 156.453125 167.050781 Z M 119.335938 172.800781 C 121.289062 172.46875 123.257812 172.242188 125.222656 171.980469 C 125.253906 172.070312 125.289062 172.164062 125.324219 172.257812 C 123.4375 172.851562 121.5625 173.476562 119.660156 174.003906 C 119.320312 174.097656 118.867188 173.78125 118.464844 173.65625 C 118.753906 173.359375 119.007812 172.855469 119.335938 172.800781 Z M 119.335938 172.800781 " fill-opacity="1" fill-rule="nonzero"/></g></g></g></g></svg>