<svg xmlns="http://www.w3.org/2000/svg" xmlns:xlink="http://www.w3.org/1999/xlink" width="300" zoomAndPan="magnify" viewBox="0 0 224.87999 225" height="300" preserveAspectRatio="xMidYMid meet" version="1.0"><defs><clipPath id="b46c326297"><path d="M 22.488281 22.546875 L 202.390625 22.546875 L 202.390625 202.453125 L 22.488281 202.453125 Z M 22.488281 22.546875 " clip-rule="nonzero"/></clipPath></defs><g clip-path="url(#b46c326297)"><path fill="#f8bc41" d="M 160.617188 120.328125 C 160.554688 120.332031 160.496094 120.332031 160.433594 120.332031 C 158.824219 120.332031 157.472656 119.078125 157.375 117.449219 C 156.640625 104.992188 151.507812 93.152344 142.941406 84.109375 C 134.367188 75.066406 122.816406 69.3125 110.417969 67.910156 C 108.734375 67.71875 107.527344 66.199219 107.71875 64.519531 C 107.90625 62.835938 109.433594 61.617188 111.109375 61.816406 C 124.941406 63.378906 137.828125 69.800781 147.390625 79.890625 C 156.957031 89.980469 162.675781 103.191406 163.5 117.085938 C 163.597656 118.777344 162.308594 120.230469 160.617188 120.328125 Z M 109.597656 83.949219 C 109.789062 82.269531 111.300781 81.066406 112.992188 81.25 C 121.230469 82.183594 128.90625 86.003906 134.597656 92.015625 C 140.292969 98.023438 143.703125 105.890625 144.191406 114.167969 C 144.292969 115.855469 143.003906 117.308594 141.3125 117.410156 C 141.25 117.414062 141.1875 117.414062 141.128906 117.414062 C 139.515625 117.414062 138.164062 116.160156 138.070312 114.53125 C 137.664062 107.695312 134.851562 101.195312 130.148438 96.234375 C 125.445312 91.273438 119.105469 88.113281 112.300781 87.34375 C 110.621094 87.15625 109.410156 85.632812 109.597656 83.949219 Z M 155.683594 159.882812 C 155.59375 159.976562 152.03125 163.34375 151.933594 163.4375 C 145.339844 169.777344 134.980469 171.035156 126.382812 169.019531 C 123.242188 168.285156 120.183594 167.230469 117.226562 165.945312 C 103.886719 160.148438 91.230469 149.894531 81.066406 139.109375 C 70.839844 128.378906 61.277344 115.195312 56.203125 101.5625 C 55.078125 98.542969 54.1875 95.429688 53.621094 92.257812 C 52.066406 83.5625 53.878906 73.285156 60.5625 67.039062 C 60.664062 66.945312 64.214844 63.574219 64.3125 63.484375 C 70.933594 57.671875 76.597656 65.046875 81.875 70.714844 C 86.382812 75.558594 93.960938 83.527344 92.699219 90.808594 C 92.003906 94.847656 87.710938 97.804688 86.21875 101.769531 C 84.316406 106.824219 85.210938 111.863281 88.402344 116.1875 C 90.542969 119.082031 93.144531 122.164062 95.925781 125.023438 C 98.632812 127.949219 101.570312 130.71875 104.347656 133.007812 C 108.496094 136.425781 113.476562 137.59375 118.628906 135.960938 C 122.664062 134.683594 125.84375 130.554688 129.921875 130.074219 C 137.253906 129.203125 144.8125 137.199219 149.402344 141.960938 C 154.78125 147.535156 161.84375 153.578125 155.683594 159.882812 Z M 112.4375 22.519531 C 62.761719 22.519531 22.492188 62.789062 22.492188 112.46875 C 22.492188 162.144531 62.761719 202.414062 112.4375 202.414062 C 162.117188 202.414062 202.382812 162.144531 202.382812 112.46875 C 202.382812 62.789062 162.117188 22.519531 112.4375 22.519531 " fill-opacity="1" fill-rule="nonzero"/></g></svg>