<svg xmlns="http://www.w3.org/2000/svg" xmlns:xlink="http://www.w3.org/1999/xlink" width="300" zoomAndPan="magnify" viewBox="0 0 224.87999 225" height="300" preserveAspectRatio="xMidYMid meet" version="1.0"><defs><clipPath id="6189a7252a"><path d="M 22.488281 22.546875 L 206.890625 22.546875 L 206.890625 206.949219 L 22.488281 206.949219 Z M 22.488281 22.546875 " clip-rule="nonzero"/></clipPath></defs><g clip-path="url(#6189a7252a)"><path fill="#e50012" d="M 114.691406 206.949219 C 165.46875 206.949219 206.890625 165.535156 206.890625 114.753906 C 206.890625 63.960938 165.476562 22.546875 114.691406 22.546875 C 63.902344 22.554688 22.488281 63.96875 22.488281 114.757812 C 22.488281 165.535156 63.902344 206.949219 114.691406 206.949219 Z M 114.691406 206.949219 " fill-opacity="1" fill-rule="evenodd"/></g><path fill="#fefefe" d="M 153.09375 165.015625 L 127.597656 165.015625 L 127.597656 138.601562 C 127.597656 131.5 121.789062 125.691406 114.6875 125.691406 C 107.582031 125.691406 101.765625 131.5 101.765625 138.601562 L 101.765625 165.015625 L 76.277344 165.015625 C 73.066406 165.015625 70.4375 162.390625 70.4375 159.171875 L 70.4375 116.039062 L 114.691406 86.507812 L 158.945312 116.039062 L 158.945312 159.171875 C 158.941406 162.390625 156.308594 165.015625 153.09375 165.015625 Z M 69.984375 108.867188 C 67.207031 110.730469 63.449219 109.980469 61.589844 107.210938 C 59.730469 104.433594 60.472656 100.671875 63.25 98.8125 L 78.375 88.714844 L 78.375 67.402344 L 94.410156 67.402344 L 94.410156 78.019531 L 111.316406 66.738281 L 114.679688 64.488281 L 118.042969 66.738281 L 166.101562 98.820312 C 168.878906 100.679688 169.617188 104.433594 167.761719 107.214844 C 165.902344 109.988281 162.152344 110.730469 159.367188 108.871094 L 114.671875 79.039062 Z M 69.984375 108.867188 " fill-opacity="1" fill-rule="nonzero"/></svg>