<svg xmlns="http://www.w3.org/2000/svg" xmlns:xlink="http://www.w3.org/1999/xlink" width="300" zoomAndPan="magnify" viewBox="0 0 224.87999 225" height="300" preserveAspectRatio="xMidYMid meet" version="1.0"><defs><clipPath id="3a474fa7ac"><path d="M 26.464844 87 L 123 87 L 123 185 L 26.464844 185 Z M 26.464844 87 " clip-rule="nonzero"/></clipPath><clipPath id="3a006309c5"><path d="M 26.464844 83 L 123 83 L 123 93 L 26.464844 93 Z M 26.464844 83 " clip-rule="nonzero"/></clipPath><clipPath id="e8347e14c8"><path d="M 61 144 L 202.621094 144 L 202.621094 205.449219 L 61 205.449219 Z M 61 144 " clip-rule="nonzero"/></clipPath></defs><g clip-path="url(#3a474fa7ac)"><path fill="#6ba6d1" d="M 101.125 184.566406 L 48.246094 184.566406 C 42.867188 184.566406 37.929688 181.734375 37.171875 178.113281 L 26.464844 87.933594 L 122.90625 87.933594 L 112.199219 178.109375 C 111.441406 181.738281 106.496094 184.566406 101.125 184.566406 Z M 101.125 184.566406 " fill-opacity="1" fill-rule="nonzero"/></g><g clip-path="url(#3a006309c5)"><path fill="#5190b7" d="M 122.90625 87.933594 C 122.90625 88.074219 122.828125 88.214844 122.671875 88.355469 C 122.519531 88.496094 122.285156 88.636719 121.976562 88.773438 C 121.671875 88.914062 121.285156 89.050781 120.828125 89.183594 C 120.371094 89.320312 119.839844 89.453125 119.234375 89.582031 C 118.628906 89.714844 117.957031 89.839844 117.210938 89.964844 C 116.464844 90.089844 115.65625 90.210938 114.777344 90.328125 C 113.902344 90.445312 112.960938 90.558594 111.960938 90.667969 C 110.957031 90.777344 109.898438 90.878906 108.78125 90.980469 C 107.664062 91.082031 106.496094 91.175781 105.273438 91.265625 C 104.054688 91.355469 102.789062 91.4375 101.472656 91.515625 C 100.160156 91.59375 98.808594 91.667969 97.414062 91.734375 C 96.023438 91.800781 94.597656 91.859375 93.136719 91.914062 C 91.679688 91.96875 90.195312 92.015625 88.683594 92.054688 C 87.171875 92.097656 85.640625 92.132812 84.09375 92.160156 C 82.542969 92.1875 80.984375 92.207031 79.410156 92.222656 C 77.839844 92.234375 76.265625 92.242188 74.683594 92.242188 C 73.105469 92.242188 71.53125 92.234375 69.957031 92.222656 C 68.386719 92.207031 66.828125 92.1875 65.277344 92.160156 C 63.730469 92.132812 62.199219 92.097656 60.6875 92.058594 C 59.175781 92.015625 57.691406 91.96875 56.230469 91.914062 C 54.773438 91.859375 53.347656 91.800781 51.953125 91.734375 C 50.5625 91.667969 49.207031 91.59375 47.894531 91.515625 C 46.582031 91.4375 45.316406 91.355469 44.09375 91.265625 C 42.875 91.175781 41.707031 91.082031 40.589844 90.980469 C 39.472656 90.878906 38.414062 90.777344 37.410156 90.667969 C 36.410156 90.558594 35.46875 90.445312 34.59375 90.328125 C 33.714844 90.210938 32.902344 90.089844 32.160156 89.964844 C 31.414062 89.839844 30.742188 89.714844 30.136719 89.582031 C 29.53125 89.453125 29 89.320312 28.542969 89.183594 C 28.082031 89.050781 27.699219 88.914062 27.390625 88.773438 C 27.085938 88.636719 26.851562 88.496094 26.699219 88.355469 C 26.542969 88.214844 26.464844 88.074219 26.464844 87.933594 C 26.464844 87.792969 26.542969 87.652344 26.699219 87.511719 C 26.851562 87.371094 27.085938 87.230469 27.390625 87.09375 C 27.699219 86.957031 28.082031 86.820312 28.542969 86.683594 C 29 86.550781 29.53125 86.417969 30.136719 86.285156 C 30.742188 86.15625 31.414062 86.027344 32.160156 85.902344 C 32.902344 85.777344 33.714844 85.660156 34.59375 85.542969 C 35.46875 85.421875 36.410156 85.3125 37.410156 85.203125 C 38.414062 85.09375 39.472656 84.988281 40.589844 84.886719 C 41.707031 84.789062 42.875 84.695312 44.09375 84.605469 C 45.316406 84.515625 46.582031 84.429688 47.894531 84.351562 C 49.207031 84.273438 50.5625 84.203125 51.953125 84.136719 C 53.347656 84.070312 54.773438 84.007812 56.230469 83.953125 C 57.691406 83.902344 59.175781 83.851562 60.6875 83.8125 C 62.199219 83.769531 63.730469 83.738281 65.277344 83.710938 C 66.828125 83.683594 68.386719 83.660156 69.957031 83.648438 C 71.53125 83.632812 73.105469 83.625 74.683594 83.625 C 76.265625 83.625 77.839844 83.632812 79.410156 83.648438 C 80.984375 83.660156 82.542969 83.683594 84.09375 83.710938 C 85.640625 83.738281 87.171875 83.769531 88.683594 83.8125 C 90.195312 83.851562 91.679688 83.902344 93.136719 83.953125 C 94.597656 84.007812 96.023438 84.070312 97.414062 84.136719 C 98.808594 84.203125 100.160156 84.273438 101.472656 84.351562 C 102.789062 84.429688 104.054688 84.515625 105.273438 84.605469 C 106.496094 84.695312 107.664062 84.789062 108.78125 84.886719 C 109.898438 84.988281 110.957031 85.09375 111.960938 85.203125 C 112.960938 85.3125 113.902344 85.421875 114.777344 85.542969 C 115.65625 85.660156 116.464844 85.777344 117.210938 85.902344 C 117.957031 86.027344 118.628906 86.15625 119.234375 86.285156 C 119.839844 86.417969 120.371094 86.550781 120.828125 86.683594 C 121.285156 86.820312 121.671875 86.957031 121.976562 87.09375 C 122.285156 87.230469 122.519531 87.371094 122.671875 87.511719 C 122.828125 87.652344 122.90625 87.792969 122.90625 87.933594 Z M 122.90625 87.933594 " fill-opacity="1" fill-rule="nonzero"/></g><path fill="#4d4d4d" d="M 27.445312 88.800781 C 28.375 89.136719 29.332031 89.382812 30.308594 89.546875 C 31.277344 89.726562 32.25 89.882812 33.234375 90.007812 C 35.191406 90.265625 37.160156 90.449219 39.128906 90.609375 C 43.070312 90.933594 47.019531 91.140625 50.96875 91.3125 C 54.917969 91.484375 58.871094 91.59375 62.824219 91.65625 C 66.773438 91.722656 70.726562 91.769531 74.683594 91.761719 C 78.636719 91.753906 82.589844 91.734375 86.542969 91.65625 C 90.496094 91.578125 94.449219 91.464844 98.398438 91.3125 C 102.347656 91.160156 106.296875 90.929688 110.238281 90.605469 C 112.207031 90.449219 114.175781 90.265625 116.132812 90.007812 C 117.113281 89.878906 118.089844 89.726562 119.058594 89.546875 C 120.039062 89.386719 120.996094 89.136719 121.929688 88.800781 C 121.011719 89.183594 120.066406 89.476562 119.097656 89.6875 C 118.136719 89.910156 117.152344 90.09375 116.175781 90.261719 C 114.222656 90.589844 112.257812 90.847656 110.289062 91.078125 C 106.347656 91.515625 102.398438 91.828125 98.445312 92.0625 C 94.488281 92.296875 90.53125 92.445312 86.570312 92.566406 C 82.613281 92.6875 78.648438 92.714844 74.6875 92.722656 C 70.726562 92.734375 66.769531 92.671875 62.808594 92.566406 C 58.847656 92.460938 54.890625 92.304688 50.933594 92.058594 C 46.980469 91.816406 43.027344 91.515625 39.089844 91.074219 C 37.121094 90.847656 35.15625 90.589844 33.203125 90.261719 C 32.222656 90.097656 31.25 89.910156 30.28125 89.6875 C 29.308594 89.476562 28.363281 89.179688 27.445312 88.800781 Z M 27.445312 88.800781 " fill-opacity="1" fill-rule="nonzero"/><path fill="#f7b011" d="M 51.777344 91.722656 C 50.652344 91.667969 49.554688 91.613281 48.488281 91.550781 C 48.34375 91.542969 48.203125 91.535156 48.058594 91.523438 C 45.796875 91.390625 43.675781 91.242188 41.707031 91.074219 L 33.476562 65.410156 L 32.695312 62.972656 L 30.113281 54.921875 C 30.019531 54.628906 29.957031 54.332031 29.921875 54.027344 C 29.886719 53.71875 29.882812 53.414062 29.910156 53.109375 C 29.933594 52.800781 29.988281 52.5 30.074219 52.203125 C 30.160156 51.910156 30.273438 51.625 30.414062 51.351562 C 30.554688 51.078125 30.722656 50.820312 30.914062 50.582031 C 31.105469 50.339844 31.320312 50.121094 31.558594 49.921875 C 31.792969 49.722656 32.046875 49.550781 32.316406 49.402344 C 32.585938 49.253906 32.867188 49.128906 33.160156 49.039062 C 33.453125 48.945312 33.753906 48.878906 34.0625 48.84375 C 34.367188 48.808594 34.675781 48.804688 34.980469 48.832031 C 35.289062 48.855469 35.589844 48.914062 35.886719 48.996094 C 36.183594 49.082031 36.46875 49.195312 36.742188 49.335938 C 37.019531 49.476562 37.277344 49.644531 37.515625 49.835938 C 37.757812 50.027344 37.980469 50.238281 38.179688 50.472656 C 38.378906 50.707031 38.550781 50.960938 38.699219 51.230469 C 38.851562 51.5 38.972656 51.78125 39.066406 52.074219 L 41.644531 60.113281 L 42.425781 62.554688 Z M 51.777344 91.722656 " fill-opacity="1" fill-rule="nonzero"/><path fill="#e25939" d="M 41.640625 60.121094 L 42.421875 62.5625 C 42.132812 62.109375 41.777344 61.71875 41.359375 61.386719 C 40.941406 61.050781 40.480469 60.796875 39.976562 60.613281 C 39.472656 60.433594 38.953125 60.335938 38.417969 60.328125 C 37.878906 60.316406 37.355469 60.394531 36.847656 60.554688 C 36.335938 60.71875 35.867188 60.957031 35.433594 61.277344 C 35.003906 61.59375 34.636719 61.972656 34.332031 62.410156 C 34.023438 62.851562 33.800781 63.328125 33.652344 63.839844 C 33.503906 64.355469 33.445312 64.878906 33.472656 65.410156 L 32.6875 62.972656 C 32.851562 62.554688 33.0625 62.160156 33.3125 61.789062 C 33.566406 61.417969 33.855469 61.078125 34.183594 60.769531 C 34.511719 60.464844 34.871094 60.195312 35.257812 59.96875 C 35.644531 59.742188 36.054688 59.558594 36.484375 59.421875 C 36.914062 59.285156 37.351562 59.199219 37.800781 59.160156 C 38.246094 59.121094 38.695312 59.132812 39.140625 59.191406 C 39.585938 59.253906 40.019531 59.359375 40.441406 59.519531 C 40.863281 59.675781 41.261719 59.875 41.640625 60.121094 Z M 41.640625 60.121094 " fill-opacity="1" fill-rule="nonzero"/><path fill="#e25939" d="M 39.066406 52.074219 L 42.425781 62.5625 C 42.136719 62.109375 41.785156 61.71875 41.367188 61.386719 C 40.949219 61.050781 40.484375 60.796875 39.980469 60.613281 C 39.476562 60.433594 38.957031 60.335938 38.421875 60.328125 C 37.886719 60.316406 37.363281 60.394531 36.851562 60.554688 C 36.34375 60.71875 35.871094 60.957031 35.441406 61.277344 C 35.007812 61.59375 34.640625 61.972656 34.335938 62.410156 C 34.03125 62.851562 33.804688 63.328125 33.65625 63.839844 C 33.511719 64.355469 33.449219 64.878906 33.476562 65.410156 L 30.113281 54.921875 C 30.019531 54.628906 29.957031 54.332031 29.921875 54.027344 C 29.886719 53.71875 29.882812 53.414062 29.910156 53.109375 C 29.933594 52.800781 29.988281 52.5 30.074219 52.203125 C 30.160156 51.910156 30.273438 51.625 30.414062 51.351562 C 30.554688 51.078125 30.722656 50.820312 30.914062 50.582031 C 31.105469 50.339844 31.320312 50.121094 31.558594 49.921875 C 31.792969 49.722656 32.046875 49.550781 32.316406 49.402344 C 32.585938 49.253906 32.867188 49.128906 33.160156 49.039062 C 33.453125 48.945312 33.753906 48.878906 34.0625 48.84375 C 34.367188 48.808594 34.675781 48.804688 34.980469 48.832031 C 35.289062 48.855469 35.589844 48.914062 35.886719 48.996094 C 36.183594 49.082031 36.46875 49.195312 36.742188 49.335938 C 37.019531 49.476562 37.277344 49.644531 37.515625 49.835938 C 37.757812 50.027344 37.980469 50.238281 38.179688 50.472656 C 38.378906 50.707031 38.550781 50.960938 38.699219 51.230469 C 38.851562 51.5 38.972656 51.78125 39.066406 52.074219 Z M 39.066406 52.074219 " fill-opacity="1" fill-rule="nonzero"/><path fill="#828b8e" d="M 41.640625 60.121094 L 42.421875 62.5625 C 42.132812 62.109375 41.777344 61.71875 41.359375 61.386719 C 40.941406 61.050781 40.480469 60.796875 39.976562 60.613281 C 39.472656 60.433594 38.953125 60.335938 38.417969 60.328125 C 37.878906 60.316406 37.355469 60.394531 36.847656 60.554688 C 36.335938 60.71875 35.867188 60.957031 35.433594 61.277344 C 35.003906 61.59375 34.636719 61.972656 34.332031 62.410156 C 34.023438 62.851562 33.800781 63.328125 33.652344 63.839844 C 33.503906 64.355469 33.445312 64.878906 33.472656 65.410156 L 32.6875 62.972656 C 32.851562 62.554688 33.0625 62.160156 33.3125 61.789062 C 33.566406 61.417969 33.855469 61.078125 34.183594 60.769531 C 34.511719 60.464844 34.871094 60.195312 35.257812 59.96875 C 35.644531 59.742188 36.054688 59.558594 36.484375 59.421875 C 36.914062 59.285156 37.351562 59.199219 37.800781 59.160156 C 38.246094 59.121094 38.695312 59.132812 39.140625 59.191406 C 39.585938 59.253906 40.019531 59.359375 40.441406 59.519531 C 40.863281 59.675781 41.261719 59.875 41.640625 60.121094 Z M 41.640625 60.121094 " fill-opacity="1" fill-rule="nonzero"/><path fill="#e25939" d="M 128.503906 34.230469 L 128.464844 34.367188 L 122.097656 55.335938 C 122.097656 55.347656 122.09375 55.359375 122.085938 55.367188 L 111.351562 90.730469 C 109.53125 90.921875 107.53125 91.097656 105.367188 91.257812 L 104.242188 91.335938 C 103.605469 91.378906 102.964844 91.421875 102.300781 91.464844 C 100.742188 91.558594 99.121094 91.648438 97.429688 91.730469 C 96.164062 91.789062 94.863281 91.847656 93.53125 91.898438 L 92.707031 91.929688 C 90.457031 92.011719 88.121094 92.078125 85.71875 92.121094 L 87.425781 86.496094 L 98.996094 48.394531 C 98.992188 48.386719 98.992188 48.378906 98.996094 48.367188 L 105.359375 27.433594 C 105.375 27.375 105.390625 27.320312 105.410156 27.265625 Z M 128.503906 34.230469 " fill-opacity="1" fill-rule="nonzero"/><path fill="#e25939" d="M 118.375 26.097656 C 119.136719 26.324219 119.875 26.582031 120.601562 26.863281 C 121.328125 27.148438 122.023438 27.457031 122.6875 27.785156 C 123.351562 28.113281 123.976562 28.457031 124.554688 28.816406 C 125.132812 29.175781 125.65625 29.542969 126.128906 29.921875 C 126.597656 30.300781 127.003906 30.679688 127.351562 31.0625 C 127.695312 31.441406 127.96875 31.816406 128.171875 32.1875 C 128.375 32.558594 128.507812 32.914062 128.5625 33.257812 C 128.621094 33.601562 128.601562 33.929688 128.511719 34.234375 C 128.417969 34.539062 128.25 34.820312 128.011719 35.074219 C 127.773438 35.332031 127.464844 35.554688 127.089844 35.75 C 126.714844 35.945312 126.277344 36.105469 125.777344 36.234375 C 125.28125 36.359375 124.730469 36.449219 124.128906 36.503906 C 123.527344 36.558594 122.886719 36.578125 122.203125 36.554688 C 121.523438 36.535156 120.8125 36.476562 120.078125 36.382812 C 119.339844 36.289062 118.589844 36.160156 117.828125 35.996094 C 117.066406 35.832031 116.308594 35.632812 115.550781 35.40625 C 114.792969 35.175781 114.050781 34.917969 113.324219 34.636719 C 112.597656 34.351562 111.902344 34.046875 111.238281 33.71875 C 110.574219 33.390625 109.953125 33.042969 109.371094 32.683594 C 108.792969 32.324219 108.269531 31.957031 107.800781 31.578125 C 107.328125 31.199219 106.921875 30.820312 106.578125 30.441406 C 106.234375 30.058594 105.957031 29.683594 105.753906 29.3125 C 105.550781 28.941406 105.417969 28.585938 105.363281 28.242188 C 105.304688 27.898438 105.324219 27.570312 105.417969 27.265625 C 105.507812 26.960938 105.675781 26.679688 105.914062 26.425781 C 106.152344 26.171875 106.460938 25.945312 106.835938 25.75 C 107.210938 25.554688 107.648438 25.394531 108.148438 25.269531 C 108.644531 25.140625 109.195312 25.050781 109.796875 24.996094 C 110.398438 24.941406 111.042969 24.925781 111.722656 24.945312 C 112.40625 24.964844 113.113281 25.023438 113.851562 25.117188 C 114.585938 25.210938 115.335938 25.339844 116.097656 25.503906 C 116.859375 25.671875 117.617188 25.867188 118.375 26.097656 Z M 118.375 26.097656 " fill-opacity="1" fill-rule="nonzero"/><path fill="#f7b011" d="M 122.097656 55.335938 L 111.351562 90.730469 C 109.535156 90.921875 107.53125 91.097656 105.371094 91.257812 L 104.242188 91.335938 C 103.609375 91.378906 102.964844 91.421875 102.304688 91.464844 C 100.746094 91.558594 99.121094 91.648438 97.429688 91.730469 C 96.167969 91.789062 94.867188 91.847656 93.53125 91.898438 L 92.707031 91.929688 C 90.457031 92.011719 88.125 92.078125 85.71875 92.121094 L 87.429688 86.496094 L 99.003906 48.363281 C 99 48.375 99 48.382812 99.003906 48.390625 C 98.257812 50.960938 102.789062 54.585938 109.140625 56.503906 C 115.496094 58.421875 121.28125 57.90625 122.09375 55.355469 C 122.097656 55.347656 122.097656 55.34375 122.097656 55.335938 Z M 122.097656 55.335938 " fill-opacity="1" fill-rule="nonzero"/><path fill="#142228" d="M 128.503906 34.230469 C 128.332031 34.816406 127.984375 35.277344 127.46875 35.605469 C 127.34375 35.691406 127.214844 35.769531 127.085938 35.839844 C 126.953125 35.90625 126.824219 35.980469 126.6875 36.03125 L 126.484375 36.121094 L 126.277344 36.195312 C 126.136719 36.25 125.996094 36.289062 125.855469 36.332031 C 124.714844 36.636719 123.550781 36.78125 122.367188 36.757812 C 120.011719 36.714844 117.707031 36.34375 115.453125 35.648438 C 113.191406 34.984375 111.070312 34.019531 109.085938 32.75 C 108.09375 32.121094 107.210938 31.367188 106.4375 30.484375 C 106.339844 30.371094 106.242188 30.261719 106.160156 30.140625 L 106.03125 29.960938 L 105.910156 29.769531 C 105.828125 29.648438 105.761719 29.515625 105.6875 29.386719 C 105.613281 29.257812 105.554688 29.125 105.507812 28.984375 C 105.257812 28.421875 105.226562 27.847656 105.410156 27.261719 C 105.339844 27.542969 105.332031 27.828125 105.378906 28.113281 C 105.402344 28.253906 105.433594 28.394531 105.476562 28.53125 C 105.523438 28.664062 105.574219 28.792969 105.636719 28.921875 C 105.894531 29.433594 106.222656 29.894531 106.625 30.304688 C 107.019531 30.71875 107.449219 31.101562 107.90625 31.441406 C 108.363281 31.789062 108.835938 32.105469 109.324219 32.402344 C 109.816406 32.699219 110.316406 32.976562 110.828125 33.238281 C 111.335938 33.503906 111.859375 33.742188 112.386719 33.964844 C 113.441406 34.421875 114.523438 34.8125 115.625 35.140625 C 116.726562 35.476562 117.839844 35.75 118.972656 35.953125 C 119.539062 36.058594 120.105469 36.144531 120.675781 36.210938 C 121.246094 36.277344 121.820312 36.320312 122.390625 36.34375 C 122.964844 36.367188 123.539062 36.359375 124.109375 36.320312 C 124.683594 36.285156 125.25 36.207031 125.808594 36.078125 C 126.367188 35.960938 126.898438 35.757812 127.394531 35.472656 C 127.519531 35.402344 127.636719 35.324219 127.75 35.234375 C 127.859375 35.144531 127.964844 35.050781 128.058594 34.945312 C 128.253906 34.738281 128.402344 34.5 128.503906 34.230469 Z M 128.503906 34.230469 " fill-opacity="1" fill-rule="nonzero"/><path fill="#e25939" d="M 111.109375 68.71875 L 104.242188 91.335938 C 103.605469 91.378906 102.964844 91.421875 102.300781 91.464844 C 100.742188 91.558594 99.121094 91.648438 97.429688 91.730469 C 96.164062 91.789062 94.863281 91.847656 93.53125 91.898438 L 92.707031 91.929688 L 100.707031 65.578125 C 100.808594 65.238281 100.945312 64.914062 101.113281 64.597656 C 101.28125 64.285156 101.480469 63.992188 101.703125 63.714844 C 101.929688 63.441406 102.183594 63.191406 102.457031 62.964844 C 102.734375 62.738281 103.027344 62.542969 103.34375 62.375 C 103.65625 62.207031 103.984375 62.070312 104.328125 61.96875 C 104.667969 61.867188 105.015625 61.796875 105.371094 61.761719 C 105.726562 61.726562 106.082031 61.726562 106.4375 61.761719 C 106.792969 61.796875 107.140625 61.863281 107.480469 61.96875 C 107.824219 62.070312 108.152344 62.203125 108.464844 62.371094 C 108.78125 62.539062 109.074219 62.734375 109.351562 62.960938 C 109.628906 63.1875 109.878906 63.4375 110.105469 63.710938 C 110.332031 63.984375 110.527344 64.28125 110.699219 64.59375 C 110.867188 64.90625 111.003906 65.234375 111.105469 65.574219 C 111.210938 65.914062 111.28125 66.261719 111.316406 66.613281 C 111.351562 66.96875 111.351562 67.324219 111.316406 67.675781 C 111.28125 68.03125 111.210938 68.378906 111.109375 68.71875 Z M 111.109375 68.71875 " fill-opacity="1" fill-rule="nonzero"/><path fill="#e29f17" d="M 62.207031 69.605469 C 61.976562 69.578125 61.785156 69.476562 61.640625 69.292969 C 61.496094 69.109375 61.433594 68.902344 61.460938 68.671875 L 64.726562 39.761719 C 64.761719 39.433594 64.832031 39.109375 64.933594 38.796875 C 65.039062 38.480469 65.171875 38.179688 65.335938 37.890625 C 65.496094 37.601562 65.6875 37.335938 65.90625 37.085938 C 66.125 36.835938 66.367188 36.609375 66.628906 36.40625 C 66.894531 36.207031 67.175781 36.035156 67.472656 35.890625 C 67.773438 35.746094 68.082031 35.632812 68.40625 35.550781 C 68.726562 35.46875 69.054688 35.417969 69.382812 35.402344 C 69.714844 35.386719 70.046875 35.402344 70.375 35.453125 C 70.597656 35.496094 70.777344 35.609375 70.90625 35.796875 C 71.039062 35.980469 71.085938 36.1875 71.054688 36.414062 C 71.019531 36.636719 70.910156 36.820312 70.726562 36.957031 C 70.546875 37.09375 70.34375 37.148438 70.117188 37.125 C 69.679688 37.058594 69.25 37.078125 68.824219 37.1875 C 68.398438 37.296875 68.011719 37.484375 67.664062 37.75 C 67.316406 38.015625 67.03125 38.339844 66.816406 38.722656 C 66.601562 39.105469 66.46875 39.511719 66.417969 39.949219 L 63.152344 68.859375 C 63.128906 69.09375 63.023438 69.28125 62.835938 69.429688 C 62.652344 69.574219 62.441406 69.636719 62.207031 69.605469 Z M 62.207031 69.605469 " fill-opacity="1" fill-rule="nonzero"/><path fill="#e29f17" d="M 81.785156 35.433594 L 79.488281 57.503906 L 79.4375 57.984375 L 75.875 92.238281 L 74.675781 92.238281 C 73.589844 92.238281 72.511719 92.238281 71.445312 92.230469 C 69.375 92.21875 67.339844 92.195312 65.347656 92.160156 C 64.84375 92.160156 64.339844 92.140625 63.84375 92.128906 L 67.523438 56.753906 L 67.574219 56.273438 L 69.570312 37.082031 L 69.746094 35.394531 L 69.867188 34.199219 C 69.902344 33.863281 69.96875 33.53125 70.070312 33.207031 C 70.171875 32.882812 70.304688 32.570312 70.464844 32.269531 C 70.628906 31.972656 70.816406 31.691406 71.035156 31.429688 C 71.253906 31.167969 71.492188 30.929688 71.757812 30.71875 C 72.023438 30.503906 72.304688 30.316406 72.609375 30.160156 C 72.910156 30 73.222656 29.871094 73.550781 29.777344 C 73.875 29.679688 74.210938 29.613281 74.550781 29.582031 C 74.886719 29.550781 75.226562 29.554688 75.566406 29.589844 L 77.144531 29.75 C 77.738281 29.8125 78.300781 29.96875 78.839844 30.222656 C 79.375 30.476562 79.855469 30.8125 80.277344 31.230469 C 80.699219 31.648438 81.035156 32.125 81.292969 32.660156 C 81.550781 33.195312 81.710938 33.757812 81.773438 34.347656 C 81.816406 34.707031 81.820312 35.070312 81.785156 35.433594 Z M 81.785156 35.433594 " fill-opacity="1" fill-rule="nonzero"/><path fill="#fabb17" d="M 83.039062 38.527344 C 83.042969 38.789062 83.027344 39.054688 83 39.316406 L 80.765625 60.808594 L 80.710938 61.304688 L 77.496094 92.234375 C 77.015625 92.234375 76.535156 92.234375 76.050781 92.234375 L 74.675781 92.234375 C 73.589844 92.234375 72.511719 92.230469 71.445312 92.222656 C 69.375 92.210938 67.339844 92.1875 65.347656 92.152344 C 64.84375 92.152344 64.339844 92.132812 63.84375 92.121094 C 63.300781 92.113281 62.765625 92.101562 62.230469 92.085938 L 65.59375 59.730469 L 65.644531 59.222656 L 67.886719 37.75 C 67.886719 37.691406 67.902344 37.632812 67.910156 37.574219 C 67.996094 36.867188 68.183594 36.183594 68.46875 35.527344 C 68.640625 35.132812 68.847656 34.753906 69.082031 34.390625 C 69.320312 34.027344 69.585938 33.691406 69.882812 33.375 C 70.175781 33.054688 70.496094 32.765625 70.84375 32.503906 C 71.1875 32.242188 71.550781 32.011719 71.9375 31.8125 C 72.320312 31.613281 72.722656 31.449219 73.132812 31.316406 C 73.546875 31.1875 73.96875 31.089844 74.398438 31.03125 C 74.828125 30.972656 75.257812 30.949219 75.691406 30.960938 C 76.125 30.976562 76.554688 31.027344 76.980469 31.113281 C 77.40625 31.203125 77.820312 31.324219 78.222656 31.484375 C 78.625 31.640625 79.011719 31.832031 79.382812 32.054688 C 79.753906 32.28125 80.105469 32.535156 80.429688 32.820312 C 80.757812 33.101562 81.058594 33.410156 81.332031 33.746094 C 81.605469 34.082031 81.851562 34.4375 82.0625 34.8125 C 82.277344 35.191406 82.453125 35.582031 82.601562 35.988281 C 82.746094 36.398438 82.855469 36.8125 82.929688 37.238281 C 83.003906 37.664062 83.039062 38.09375 83.039062 38.527344 Z M 83.039062 38.527344 " fill-opacity="1" fill-rule="nonzero"/><path fill="#e29f17" d="M 65.601562 59.746094 C 65.621094 59.320312 65.699219 58.902344 65.835938 58.496094 L 65.859375 58.417969 L 65.890625 58.347656 L 65.957031 58.199219 C 65.996094 58.097656 66.042969 58 66.09375 57.90625 L 66.253906 57.621094 L 66.445312 57.355469 C 66.984375 56.628906 67.675781 56.113281 68.523438 55.800781 C 68.578125 55.78125 68.628906 55.757812 68.679688 55.742188 L 68.84375 55.695312 C 68.949219 55.667969 69.054688 55.632812 69.164062 55.613281 L 69.492188 55.566406 C 69.546875 55.554688 69.601562 55.550781 69.660156 55.550781 L 69.824219 55.539062 C 70.046875 55.523438 70.269531 55.523438 70.492188 55.539062 L 71.125 55.589844 L 73.648438 55.835938 L 76.167969 56.113281 L 76.796875 56.1875 C 77.019531 56.21875 77.238281 56.261719 77.453125 56.320312 L 77.613281 56.367188 C 77.667969 56.378906 77.722656 56.398438 77.773438 56.417969 L 78.085938 56.539062 C 78.1875 56.578125 78.277344 56.640625 78.382812 56.6875 L 78.53125 56.761719 C 78.578125 56.792969 78.625 56.824219 78.671875 56.851562 C 79.4375 57.332031 80.011719 57.980469 80.386719 58.800781 L 80.511719 59.101562 L 80.609375 59.410156 C 80.644531 59.515625 80.667969 59.617188 80.6875 59.726562 L 80.734375 59.960938 L 80.742188 60.042969 C 80.796875 60.46875 80.785156 60.890625 80.714844 61.3125 L 80.714844 61 C 80.714844 60.945312 80.714844 60.894531 80.714844 60.839844 L 80.695312 60.683594 C 80.683594 60.582031 80.679688 60.476562 80.660156 60.375 L 80.59375 60.070312 L 80.582031 59.996094 L 80.558594 59.921875 L 80.511719 59.769531 C 80.484375 59.671875 80.449219 59.574219 80.410156 59.480469 L 80.292969 59.195312 L 80.144531 58.925781 C 79.949219 58.570312 79.703125 58.25 79.414062 57.96875 C 78.832031 57.382812 78.140625 56.996094 77.335938 56.808594 C 77.144531 56.761719 76.949219 56.730469 76.75 56.710938 L 76.121094 56.652344 L 73.597656 56.40625 L 71.078125 56.132812 L 70.449219 56.058594 C 70.25 56.039062 70.054688 56.03125 69.855469 56.035156 C 69.453125 56.042969 69.058594 56.105469 68.675781 56.226562 C 67.882812 56.476562 67.210938 56.914062 66.667969 57.539062 L 66.476562 57.777344 L 66.300781 58.03125 C 66.242188 58.113281 66.1875 58.203125 66.144531 58.296875 L 66.070312 58.429688 L 66.03125 58.496094 L 65.996094 58.570312 L 65.871094 58.855469 C 65.832031 58.949219 65.808594 59.046875 65.773438 59.152344 L 65.722656 59.300781 C 65.707031 59.351562 65.699219 59.402344 65.6875 59.453125 Z M 65.601562 59.746094 " fill-opacity="1" fill-rule="nonzero"/><path fill="#4d4d4d" d="M 27.445312 88.800781 C 28.269531 89.105469 29.113281 89.335938 29.980469 89.488281 C 30.835938 89.652344 31.707031 89.796875 32.566406 89.917969 C 34.296875 90.15625 36.042969 90.351562 37.792969 90.492188 L 40.414062 90.703125 L 41.71875 90.8125 L 43.03125 90.886719 L 48.28125 91.195312 C 50.035156 91.269531 51.78125 91.355469 53.535156 91.402344 C 55.285156 91.453125 57.035156 91.53125 58.785156 91.574219 L 61.414062 91.636719 L 64.042969 91.679688 C 65.796875 91.71875 67.550781 91.722656 69.300781 91.746094 C 71.054688 91.765625 72.808594 91.765625 74.558594 91.765625 C 76.308594 91.765625 78.0625 91.765625 79.816406 91.742188 C 81.566406 91.71875 83.320312 91.71875 85.074219 91.683594 L 90.328125 91.566406 C 97.335938 91.390625 104.351562 91.101562 111.328125 90.523438 L 114.003906 90.261719 C 114.898438 90.167969 115.789062 90.0625 116.675781 89.9375 C 117.5625 89.8125 118.449219 89.667969 119.328125 89.5 C 120.214844 89.34375 121.082031 89.113281 121.929688 88.800781 C 121.097656 89.152344 120.242188 89.425781 119.363281 89.625 C 118.488281 89.835938 117.601562 90.007812 116.71875 90.164062 C 115.832031 90.320312 114.941406 90.460938 114.054688 90.589844 L 111.378906 90.945312 C 109.632812 91.136719 107.882812 91.300781 106.136719 91.480469 C 105.261719 91.574219 104.386719 91.640625 103.511719 91.710938 C 102.636719 91.78125 101.761719 91.839844 100.886719 91.902344 C 99.132812 92.011719 97.378906 92.136719 95.625 92.21875 L 92.996094 92.34375 L 90.363281 92.4375 C 88.609375 92.492188 86.851562 92.5625 85.097656 92.609375 C 83.34375 92.652344 81.589844 92.660156 79.832031 92.6875 C 76.320312 92.746094 72.808594 92.746094 69.296875 92.6875 C 62.273438 92.632812 55.257812 92.34375 48.242188 91.894531 C 46.496094 91.757812 44.742188 91.609375 42.992188 91.464844 L 41.683594 91.355469 L 40.371094 91.210938 L 37.753906 90.914062 C 36.007812 90.722656 34.269531 90.457031 32.539062 90.148438 C 31.671875 89.992188 30.808594 89.824219 29.957031 89.617188 C 29.09375 89.417969 28.257812 89.148438 27.445312 88.800781 Z M 27.445312 88.800781 " fill-opacity="1" fill-rule="nonzero"/><path fill="#fce2de" d="M 148.382812 178.976562 L 63.027344 164.871094 L 63.027344 188.480469 L 143.304688 203.503906 Z M 148.382812 178.976562 " fill-opacity="1" fill-rule="nonzero"/><g clip-path="url(#e8347e14c8)"><path fill="#f7b011" d="M 62.75 187.683594 L 140.285156 202.261719 C 140.285156 202.261719 144.128906 198.722656 144.128906 191.363281 C 144.128906 184.003906 140.863281 178.484375 140.863281 178.484375 L 62.75 165.460938 C 62.75 165.460938 60.335938 163.621094 61.757812 162.914062 C 63.175781 162.207031 124.523438 144.511719 124.523438 144.511719 C 124.523438 144.511719 126.9375 144.511719 128.5 145.085938 C 130.0625 145.660156 196.949219 157.824219 196.949219 157.824219 C 196.949219 157.824219 202.628906 161.082031 202.628906 171.554688 C 202.628906 182.03125 200.070312 182.3125 200.070312 182.3125 C 200.070312 182.3125 143.550781 205.667969 140.71875 205.382812 C 137.886719 205.097656 61.859375 190.238281 61.316406 189.53125 C 60.769531 188.824219 61.875 187.519531 62.75 187.683594 Z M 62.75 187.683594 " fill-opacity="1" fill-rule="nonzero"/></g><path fill="#4d4d4d" d="M 145.304688 176.289062 C 147.246094 175.597656 149.199219 174.949219 151.144531 174.273438 L 157.007812 172.320312 C 160.914062 171.019531 164.832031 169.761719 168.753906 168.492188 C 172.675781 167.222656 176.605469 166.003906 180.542969 164.796875 L 186.453125 162.996094 C 188.429688 162.421875 190.398438 161.816406 192.378906 161.253906 C 190.4375 161.941406 188.484375 162.59375 186.539062 163.265625 L 180.679688 165.21875 C 176.773438 166.519531 172.851562 167.777344 168.929688 169.046875 C 165.011719 170.316406 161.082031 171.539062 157.140625 172.738281 L 151.234375 174.542969 C 149.257812 175.125 147.285156 175.722656 145.304688 176.289062 Z M 145.304688 176.289062 " fill-opacity="1" fill-rule="nonzero"/><path fill="#fce2de" d="M 110.304688 154.40625 L 195.660156 140.304688 L 195.660156 163.910156 L 115.382812 178.929688 Z M 110.304688 154.40625 " fill-opacity="1" fill-rule="nonzero"/><path fill="#6ba6d1" d="M 195.9375 163.113281 L 118.402344 177.691406 C 118.402344 177.691406 114.5625 174.152344 114.5625 166.792969 C 114.5625 159.433594 117.828125 153.910156 117.828125 153.910156 L 195.929688 140.894531 C 195.929688 140.894531 198.34375 139.054688 196.925781 138.347656 C 195.503906 137.640625 134.164062 119.941406 134.164062 119.941406 C 134.164062 119.941406 131.75 119.941406 130.1875 120.507812 C 128.625 121.070312 61.742188 133.246094 61.742188 133.246094 C 61.742188 133.246094 56.0625 136.5 56.0625 146.976562 C 56.0625 157.453125 58.617188 157.734375 58.617188 157.734375 C 58.617188 157.734375 115.136719 181.089844 117.96875 180.804688 C 120.804688 180.519531 196.839844 165.652344 197.378906 164.953125 C 197.917969 164.253906 196.8125 162.949219 195.9375 163.113281 Z M 195.9375 163.113281 " fill-opacity="1" fill-rule="nonzero"/><path fill="#6ba6d1" d="M 195.9375 163.113281 L 118.402344 177.691406 C 118.402344 177.691406 114.5625 174.152344 114.5625 166.792969 C 114.5625 159.433594 117.828125 153.910156 117.828125 153.910156 L 195.929688 140.894531 C 195.929688 140.894531 198.34375 139.054688 196.925781 138.347656 C 195.503906 137.640625 134.164062 119.941406 134.164062 119.941406 C 134.164062 119.941406 131.75 119.941406 130.1875 120.507812 C 128.625 121.070312 61.742188 133.246094 61.742188 133.246094 C 61.742188 133.246094 56.0625 136.5 56.0625 146.976562 C 56.0625 157.453125 58.617188 157.734375 58.617188 157.734375 C 58.617188 157.734375 115.136719 181.089844 117.96875 180.804688 C 120.804688 180.519531 196.839844 165.652344 197.378906 164.953125 C 197.917969 164.253906 196.8125 162.949219 195.9375 163.113281 Z M 195.9375 163.113281 " fill-opacity="1" fill-rule="nonzero"/><path fill="#4d4d4d" d="M 58.898438 136.183594 C 58.414062 136.996094 58 137.847656 57.664062 138.734375 C 57.332031 139.617188 57.070312 140.519531 56.867188 141.4375 C 56.480469 143.285156 56.300781 145.148438 56.332031 147.035156 C 56.339844 148.921875 56.457031 150.796875 56.6875 152.667969 L 56.734375 153.019531 L 56.796875 153.363281 L 56.921875 154.054688 L 57.085938 154.730469 C 57.132812 154.960938 57.214844 155.175781 57.277344 155.398438 C 57.414062 155.835938 57.59375 156.253906 57.816406 156.652344 L 57.996094 156.933594 L 58.199219 157.1875 C 58.269531 157.261719 58.347656 157.328125 58.429688 157.390625 C 58.46875 157.417969 58.507812 157.445312 58.550781 157.46875 C 58.570312 157.480469 58.585938 157.488281 58.609375 157.496094 C 58.625 157.496094 58.652344 157.507812 58.644531 157.507812 L 58.703125 157.523438 C 59.894531 158.035156 61.082031 158.554688 62.265625 159.078125 L 64.039062 159.878906 C 64.632812 160.144531 65.222656 160.414062 65.808594 160.691406 C 65.199219 160.472656 64.589844 160.25 63.980469 160.023438 L 62.15625 159.335938 C 60.949219 158.875 59.738281 158.40625 58.53125 157.9375 L 58.59375 157.953125 C 58.546875 157.945312 58.5 157.933594 58.453125 157.917969 C 58.417969 157.90625 58.382812 157.890625 58.351562 157.871094 C 58.28125 157.84375 58.21875 157.808594 58.160156 157.765625 C 58.046875 157.6875 57.941406 157.605469 57.84375 157.507812 C 57.761719 157.410156 57.675781 157.316406 57.59375 157.214844 L 57.382812 156.902344 C 57.132812 156.476562 56.929688 156.027344 56.773438 155.558594 C 56.617188 155.101562 56.484375 154.636719 56.375 154.164062 L 56.238281 153.453125 L 56.175781 153.101562 L 56.125 152.746094 C 55.871094 150.847656 55.757812 148.945312 55.78125 147.03125 C 55.792969 146.070312 55.851562 145.113281 55.957031 144.160156 C 56.074219 143.207031 56.253906 142.265625 56.496094 141.339844 C 56.976562 139.472656 57.777344 137.753906 58.898438 136.183594 Z M 58.898438 136.183594 " fill-opacity="1" fill-rule="nonzero"/><path fill="#4d4d4d" d="M 113.382812 151.714844 C 111.402344 151.140625 109.429688 150.550781 107.457031 149.972656 L 101.546875 148.167969 C 97.609375 146.96875 93.683594 145.722656 89.757812 144.476562 C 85.832031 143.234375 81.917969 141.960938 78.011719 140.65625 L 72.148438 138.703125 C 70.203125 138.03125 68.25 137.378906 66.308594 136.691406 C 68.289062 137.253906 70.257812 137.855469 72.234375 138.433594 L 78.144531 140.238281 C 82.085938 141.4375 86.007812 142.683594 89.933594 143.929688 C 93.855469 145.175781 97.773438 146.449219 101.683594 147.757812 L 107.539062 149.710938 C 109.488281 150.375 111.441406 151.027344 113.382812 151.714844 Z M 113.382812 151.714844 " fill-opacity="1" fill-rule="nonzero"/><path fill="#fce2de" d="M 146.261719 125.273438 L 60.910156 111.171875 L 60.910156 134.777344 L 141.1875 149.800781 Z M 146.261719 125.273438 " fill-opacity="1" fill-rule="nonzero"/><path fill="#f7b011" d="M 60.628906 133.980469 L 138.167969 148.5625 C 138.167969 148.5625 142.007812 145.023438 142.007812 137.660156 C 142.007812 130.300781 138.742188 124.78125 138.742188 124.78125 L 60.636719 111.761719 C 60.636719 111.761719 58.222656 109.921875 59.644531 109.214844 C 61.066406 108.507812 122.414062 90.8125 122.414062 90.8125 C 122.414062 90.8125 124.824219 90.8125 126.390625 91.386719 C 127.953125 91.960938 194.835938 104.128906 194.835938 104.128906 C 194.835938 104.128906 200.515625 107.382812 200.515625 117.855469 C 200.515625 128.332031 197.960938 128.613281 197.960938 128.613281 C 197.960938 128.613281 141.441406 151.972656 138.605469 151.6875 C 135.773438 151.402344 59.75 136.542969 59.203125 135.832031 C 58.65625 135.125 59.757812 133.816406 60.628906 133.980469 Z M 60.628906 133.980469 " fill-opacity="1" fill-rule="nonzero"/><path fill="#4d4d4d" d="M 143.1875 122.578125 C 145.128906 121.890625 147.082031 121.234375 149.03125 120.566406 L 154.886719 118.613281 C 158.792969 117.308594 162.714844 116.050781 166.636719 114.792969 C 170.554688 113.535156 174.484375 112.304688 178.425781 111.097656 L 184.332031 109.296875 C 186.308594 108.722656 188.277344 108.117188 190.261719 107.554688 C 188.320312 108.238281 186.367188 108.894531 184.421875 109.566406 L 178.558594 111.519531 C 174.652344 112.820312 170.734375 114.078125 166.8125 115.335938 C 162.890625 116.59375 158.960938 117.828125 155.023438 119.03125 L 149.113281 120.832031 C 147.136719 121.425781 145.171875 122.019531 143.1875 122.578125 Z M 143.1875 122.578125 " fill-opacity="1" fill-rule="nonzero"/></svg>