<svg xmlns="http://www.w3.org/2000/svg" xmlns:xlink="http://www.w3.org/1999/xlink" width="300" zoomAndPan="magnify" viewBox="0 0 224.87999 225" height="300" preserveAspectRatio="xMidYMid meet" version="1.0"><defs><clipPath id="4341b1bf97"><path d="M 19.976562 46.722656 L 205.125 46.722656 L 205.125 142.671875 L 19.976562 142.671875 Z M 19.976562 46.722656 " clip-rule="nonzero"/></clipPath><clipPath id="9ec0e47309"><path d="M 19.976562 94.699219 C 19.976562 121.128906 61.410156 142.554688 112.519531 142.554688 C 163.632812 142.554688 205.066406 121.128906 205.066406 94.699219 C 205.066406 68.273438 163.632812 46.847656 112.519531 46.847656 C 61.410156 46.847656 19.976562 68.273438 19.976562 94.699219 " clip-rule="nonzero"/></clipPath><clipPath id="2e7f7b4b86"><path d="M 19.976562 94.699219 C 19.976562 121.128906 61.410156 142.554688 112.519531 142.554688 C 163.632812 142.554688 205.066406 121.128906 205.066406 94.699219 C 205.066406 68.273438 163.632812 46.847656 112.519531 46.847656 C 61.410156 46.847656 19.976562 68.273438 19.976562 94.699219 " clip-rule="nonzero"/></clipPath><radialGradient gradientTransform="matrix(1.008603, 0, 0, 0.991397, 75.540177, 63.670458)" gradientUnits="userSpaceOnUse" r="120.491191" cx="0" id="c11134d7d8" cy="0" fx="0" fy="0"><stop stop-opacity="1" stop-color="rgb(68.238831%, 69.799805%, 83.529663%)" offset="0"/><stop stop-opacity="1" stop-color="rgb(68.238831%, 69.799805%, 83.529663%)" offset="0.25"/><stop stop-opacity="1" stop-color="rgb(68.203735%, 69.764709%, 83.503723%)" offset="0.296875"/><stop stop-opacity="1" stop-color="rgb(67.996216%, 69.555664%, 83.348083%)" offset="0.300781"/><stop stop-opacity="1" stop-color="rgb(67.648315%, 69.20929%, 83.088684%)" offset="0.304688"/><stop stop-opacity="1" stop-color="rgb(67.301941%, 68.861389%, 82.830811%)" offset="0.308594"/><stop stop-opacity="1" stop-color="rgb(66.954041%, 68.513489%, 82.571411%)" offset="0.3125"/><stop stop-opacity="1" stop-color="rgb(66.607666%, 68.167114%, 82.313538%)" offset="0.316406"/><stop stop-opacity="1" stop-color="rgb(66.259766%, 67.819214%, 82.054138%)" offset="0.320312"/><stop stop-opacity="1" stop-color="rgb(65.911865%, 67.472839%, 81.796265%)" offset="0.324219"/><stop stop-opacity="1" stop-color="rgb(65.565491%, 67.124939%, 81.536865%)" offset="0.328125"/><stop stop-opacity="1" stop-color="rgb(65.21759%, 66.778564%, 81.278992%)" offset="0.332031"/><stop stop-opacity="1" stop-color="rgb(64.871216%, 66.430664%, 81.019592%)" offset="0.335938"/><stop stop-opacity="1" stop-color="rgb(64.523315%, 66.08429%, 80.761719%)" offset="0.339844"/><stop stop-opacity="1" stop-color="rgb(64.176941%, 65.736389%, 80.502319%)" offset="0.34375"/><stop stop-opacity="1" stop-color="rgb(63.829041%, 65.388489%, 80.24292%)" offset="0.347656"/><stop stop-opacity="1" stop-color="rgb(63.482666%, 65.042114%, 79.985046%)" offset="0.351562"/><stop stop-opacity="1" stop-color="rgb(63.134766%, 64.694214%, 79.725647%)" offset="0.355469"/><stop stop-opacity="1" stop-color="rgb(62.786865%, 64.347839%, 79.467773%)" offset="0.359375"/><stop stop-opacity="1" stop-color="rgb(62.440491%, 63.999939%, 79.208374%)" offset="0.363281"/><stop stop-opacity="1" stop-color="rgb(62.09259%, 63.653564%, 78.9505%)" offset="0.367188"/><stop stop-opacity="1" stop-color="rgb(61.746216%, 63.305664%, 78.691101%)" offset="0.371094"/><stop stop-opacity="1" stop-color="rgb(61.398315%, 62.95929%, 78.433228%)" offset="0.375"/><stop stop-opacity="1" stop-color="rgb(61.051941%, 62.611389%, 78.173828%)" offset="0.378906"/><stop stop-opacity="1" stop-color="rgb(60.704041%, 62.263489%, 77.915955%)" offset="0.382812"/><stop stop-opacity="1" stop-color="rgb(60.357666%, 61.917114%, 77.656555%)" offset="0.386719"/><stop stop-opacity="1" stop-color="rgb(60.009766%, 61.569214%, 77.398682%)" offset="0.390625"/><stop stop-opacity="1" stop-color="rgb(59.661865%, 61.222839%, 77.139282%)" offset="0.394531"/><stop stop-opacity="1" stop-color="rgb(59.315491%, 60.874939%, 76.881409%)" offset="0.398438"/><stop stop-opacity="1" stop-color="rgb(58.96759%, 60.528564%, 76.622009%)" offset="0.402344"/><stop stop-opacity="1" stop-color="rgb(58.621216%, 60.180664%, 76.364136%)" offset="0.40625"/><stop stop-opacity="1" stop-color="rgb(58.273315%, 59.83429%, 76.104736%)" offset="0.410156"/><stop stop-opacity="1" stop-color="rgb(57.926941%, 59.486389%, 75.845337%)" offset="0.414062"/><stop stop-opacity="1" stop-color="rgb(57.579041%, 59.138489%, 75.587463%)" offset="0.417969"/><stop stop-opacity="1" stop-color="rgb(57.232666%, 58.792114%, 75.328064%)" offset="0.421875"/><stop stop-opacity="1" stop-color="rgb(56.884766%, 58.444214%, 75.07019%)" offset="0.425781"/><stop stop-opacity="1" stop-color="rgb(56.536865%, 58.097839%, 74.810791%)" offset="0.429688"/><stop stop-opacity="1" stop-color="rgb(56.190491%, 57.749939%, 74.552917%)" offset="0.433594"/><stop stop-opacity="1" stop-color="rgb(55.84259%, 57.403564%, 74.293518%)" offset="0.4375"/><stop stop-opacity="1" stop-color="rgb(55.496216%, 57.055664%, 74.035645%)" offset="0.441406"/><stop stop-opacity="1" stop-color="rgb(55.148315%, 56.70929%, 73.776245%)" offset="0.445312"/><stop stop-opacity="1" stop-color="rgb(54.801941%, 56.361389%, 73.518372%)" offset="0.449219"/><stop stop-opacity="1" stop-color="rgb(54.454041%, 56.013489%, 73.258972%)" offset="0.453125"/><stop stop-opacity="1" stop-color="rgb(54.107666%, 55.667114%, 73.001099%)" offset="0.457031"/><stop stop-opacity="1" stop-color="rgb(53.759766%, 55.319214%, 72.741699%)" offset="0.460938"/><stop stop-opacity="1" stop-color="rgb(53.411865%, 54.972839%, 72.483826%)" offset="0.464844"/><stop stop-opacity="1" stop-color="rgb(53.065491%, 54.624939%, 72.224426%)" offset="0.46875"/><stop stop-opacity="1" stop-color="rgb(52.71759%, 54.278564%, 71.966553%)" offset="0.472656"/><stop stop-opacity="1" stop-color="rgb(52.371216%, 53.930664%, 71.707153%)" offset="0.476562"/><stop stop-opacity="1" stop-color="rgb(52.023315%, 53.58429%, 71.447754%)" offset="0.480469"/><stop stop-opacity="1" stop-color="rgb(51.676941%, 53.236389%, 71.18988%)" offset="0.484375"/><stop stop-opacity="1" stop-color="rgb(51.329041%, 52.888489%, 70.930481%)" offset="0.488281"/><stop stop-opacity="1" stop-color="rgb(50.982666%, 52.542114%, 70.672607%)" offset="0.492188"/><stop stop-opacity="1" stop-color="rgb(50.634766%, 52.194214%, 70.413208%)" offset="0.496094"/><stop stop-opacity="1" stop-color="rgb(50.286865%, 51.847839%, 70.155334%)" offset="0.5"/><stop stop-opacity="1" stop-color="rgb(49.940491%, 51.499939%, 69.895935%)" offset="0.503906"/><stop stop-opacity="1" stop-color="rgb(49.59259%, 51.153564%, 69.638062%)" offset="0.507812"/><stop stop-opacity="1" stop-color="rgb(49.246216%, 50.805664%, 69.378662%)" offset="0.511719"/><stop stop-opacity="1" stop-color="rgb(48.898315%, 50.45929%, 69.120789%)" offset="0.515625"/><stop stop-opacity="1" stop-color="rgb(48.551941%, 50.111389%, 68.861389%)" offset="0.519531"/><stop stop-opacity="1" stop-color="rgb(48.204041%, 49.763489%, 68.603516%)" offset="0.523438"/><stop stop-opacity="1" stop-color="rgb(47.857666%, 49.417114%, 68.344116%)" offset="0.527344"/><stop stop-opacity="1" stop-color="rgb(47.509766%, 49.069214%, 68.086243%)" offset="0.53125"/><stop stop-opacity="1" stop-color="rgb(47.161865%, 48.722839%, 67.826843%)" offset="0.535156"/><stop stop-opacity="1" stop-color="rgb(46.815491%, 48.374939%, 67.56897%)" offset="0.539062"/><stop stop-opacity="1" stop-color="rgb(46.46759%, 48.028564%, 67.30957%)" offset="0.542969"/><stop stop-opacity="1" stop-color="rgb(46.121216%, 47.680664%, 67.050171%)" offset="0.546875"/><stop stop-opacity="1" stop-color="rgb(45.773315%, 47.33429%, 66.792297%)" offset="0.550781"/><stop stop-opacity="1" stop-color="rgb(45.426941%, 46.986389%, 66.532898%)" offset="0.554688"/><stop stop-opacity="1" stop-color="rgb(45.079041%, 46.638489%, 66.275024%)" offset="0.558594"/><stop stop-opacity="1" stop-color="rgb(44.732666%, 46.292114%, 66.015625%)" offset="0.5625"/><stop stop-opacity="1" stop-color="rgb(44.384766%, 45.944214%, 65.757751%)" offset="0.566406"/><stop stop-opacity="1" stop-color="rgb(44.036865%, 45.597839%, 65.498352%)" offset="0.570312"/><stop stop-opacity="1" stop-color="rgb(43.690491%, 45.249939%, 65.240479%)" offset="0.574219"/><stop stop-opacity="1" stop-color="rgb(43.34259%, 44.903564%, 64.981079%)" offset="0.578125"/><stop stop-opacity="1" stop-color="rgb(42.996216%, 44.555664%, 64.723206%)" offset="0.582031"/><stop stop-opacity="1" stop-color="rgb(42.648315%, 44.20929%, 64.463806%)" offset="0.585938"/><stop stop-opacity="1" stop-color="rgb(42.301941%, 43.861389%, 64.205933%)" offset="0.589844"/><stop stop-opacity="1" stop-color="rgb(41.954041%, 43.513489%, 63.946533%)" offset="0.59375"/><stop stop-opacity="1" stop-color="rgb(41.607666%, 43.167114%, 63.68866%)" offset="0.597656"/><stop stop-opacity="1" stop-color="rgb(41.259766%, 42.819214%, 63.42926%)" offset="0.601562"/><stop stop-opacity="1" stop-color="rgb(40.911865%, 42.472839%, 63.171387%)" offset="0.605469"/><stop stop-opacity="1" stop-color="rgb(40.565491%, 42.124939%, 62.911987%)" offset="0.609375"/><stop stop-opacity="1" stop-color="rgb(40.21759%, 41.778564%, 62.654114%)" offset="0.613281"/><stop stop-opacity="1" stop-color="rgb(39.871216%, 41.430664%, 62.394714%)" offset="0.617188"/><stop stop-opacity="1" stop-color="rgb(39.523315%, 41.08429%, 62.135315%)" offset="0.621094"/><stop stop-opacity="1" stop-color="rgb(39.176941%, 40.736389%, 61.877441%)" offset="0.625"/><stop stop-opacity="1" stop-color="rgb(38.829041%, 40.388489%, 61.618042%)" offset="0.628906"/><stop stop-opacity="1" stop-color="rgb(38.482666%, 40.042114%, 61.360168%)" offset="0.632812"/><stop stop-opacity="1" stop-color="rgb(38.134766%, 39.694214%, 61.100769%)" offset="0.636719"/><stop stop-opacity="1" stop-color="rgb(37.786865%, 39.347839%, 60.842896%)" offset="0.640625"/><stop stop-opacity="1" stop-color="rgb(37.440491%, 38.999939%, 60.583496%)" offset="0.644531"/><stop stop-opacity="1" stop-color="rgb(37.09259%, 38.653564%, 60.325623%)" offset="0.648438"/><stop stop-opacity="1" stop-color="rgb(36.746216%, 38.305664%, 60.066223%)" offset="0.652344"/><stop stop-opacity="1" stop-color="rgb(36.398315%, 37.95929%, 59.80835%)" offset="0.65625"/><stop stop-opacity="1" stop-color="rgb(36.051941%, 37.611389%, 59.54895%)" offset="0.660156"/><stop stop-opacity="1" stop-color="rgb(35.704041%, 37.263489%, 59.291077%)" offset="0.664062"/><stop stop-opacity="1" stop-color="rgb(35.357666%, 36.917114%, 59.031677%)" offset="0.667969"/><stop stop-opacity="1" stop-color="rgb(35.009766%, 36.569214%, 58.773804%)" offset="0.671875"/><stop stop-opacity="1" stop-color="rgb(34.661865%, 36.222839%, 58.514404%)" offset="0.675781"/><stop stop-opacity="1" stop-color="rgb(34.315491%, 35.874939%, 58.256531%)" offset="0.679688"/><stop stop-opacity="1" stop-color="rgb(33.96759%, 35.528564%, 57.997131%)" offset="0.683594"/><stop stop-opacity="1" stop-color="rgb(33.621216%, 35.180664%, 57.737732%)" offset="0.6875"/><stop stop-opacity="1" stop-color="rgb(33.273315%, 34.83429%, 57.479858%)" offset="0.691406"/><stop stop-opacity="1" stop-color="rgb(32.926941%, 34.486389%, 57.220459%)" offset="0.695312"/><stop stop-opacity="1" stop-color="rgb(32.579041%, 34.138489%, 56.962585%)" offset="0.699219"/><stop stop-opacity="1" stop-color="rgb(32.232666%, 33.792114%, 56.703186%)" offset="0.703125"/><stop stop-opacity="1" stop-color="rgb(31.884766%, 33.444214%, 56.445312%)" offset="0.707031"/><stop stop-opacity="1" stop-color="rgb(31.536865%, 33.097839%, 56.185913%)" offset="0.710938"/><stop stop-opacity="1" stop-color="rgb(31.190491%, 32.749939%, 55.92804%)" offset="0.714844"/><stop stop-opacity="1" stop-color="rgb(30.84259%, 32.403564%, 55.66864%)" offset="0.71875"/><stop stop-opacity="1" stop-color="rgb(30.496216%, 32.055664%, 55.410767%)" offset="0.722656"/><stop stop-opacity="1" stop-color="rgb(30.148315%, 31.70929%, 55.151367%)" offset="0.726562"/><stop stop-opacity="1" stop-color="rgb(29.801941%, 31.361389%, 54.893494%)" offset="0.730469"/><stop stop-opacity="1" stop-color="rgb(29.454041%, 31.013489%, 54.634094%)" offset="0.734375"/><stop stop-opacity="1" stop-color="rgb(29.107666%, 30.667114%, 54.376221%)" offset="0.738281"/><stop stop-opacity="1" stop-color="rgb(28.759766%, 30.319214%, 54.116821%)" offset="0.742188"/><stop stop-opacity="1" stop-color="rgb(28.411865%, 29.972839%, 53.858948%)" offset="0.746094"/><stop stop-opacity="1" stop-color="rgb(28.239441%, 29.798889%, 53.729248%)" offset="1"/></radialGradient></defs><g clip-path="url(#4341b1bf97)"><g clip-path="url(#9ec0e47309)"><g clip-path="url(#2e7f7b4b86)"><path fill="url(#c11134d7d8)" d="M 19.976562 46.847656 L 19.976562 142.554688 L 205.066406 142.554688 L 205.066406 46.847656 Z M 19.976562 46.847656 " fill-rule="nonzero"/></g></g></g><path fill="#777bb3" d="M 112.519531 139 C 161.636719 139 201.453125 119.167969 201.453125 94.699219 C 201.453125 70.234375 161.636719 50.402344 112.519531 50.402344 C 63.40625 50.402344 23.589844 70.234375 23.589844 94.699219 C 23.589844 119.167969 63.40625 139 112.519531 139 " fill-opacity="1" fill-rule="nonzero"/><path fill="#000000" d="M 70.253906 100.191406 C 74.292969 100.191406 77.308594 99.460938 79.214844 98.015625 C 81.101562 96.589844 82.40625 94.113281 83.089844 90.664062 C 83.726562 87.4375 83.484375 85.183594 82.367188 83.96875 C 81.226562 82.726562 78.761719 82.097656 75.039062 82.097656 L 68.585938 82.097656 L 65.007812 100.191406 Z M 49.148438 122.484375 C 48.847656 122.484375 48.5625 122.351562 48.371094 122.125 C 48.171875 121.886719 48.101562 121.613281 48.160156 121.308594 L 57.644531 73.355469 C 57.6875 73.121094 57.804688 72.929688 57.992188 72.78125 C 58.175781 72.628906 58.390625 72.554688 58.628906 72.554688 L 79.066406 72.554688 C 85.488281 72.554688 90.269531 74.265625 93.273438 77.652344 C 96.296875 81.050781 97.226562 85.800781 96.046875 91.773438 C 95.566406 94.207031 94.738281 96.464844 93.589844 98.488281 C 92.4375 100.511719 90.917969 102.386719 89.066406 104.058594 C 86.851562 106.09375 84.347656 107.574219 81.625 108.441406 C 78.945312 109.300781 75.503906 109.734375 71.398438 109.734375 L 63.125 109.734375 L 60.761719 121.6875 C 60.714844 121.917969 60.597656 122.109375 60.414062 122.257812 C 60.226562 122.410156 60.015625 122.484375 59.773438 122.484375 L 49.144531 122.484375 Z M 49.148438 122.484375 " fill-opacity="1" fill-rule="nonzero"/><path fill="#ffffff" d="M 69.414062 83.082031 L 75.039062 83.082031 C 79.53125 83.082031 81.09375 84.050781 81.625 84.628906 C 82.503906 85.589844 82.667969 87.609375 82.105469 90.476562 C 81.46875 93.683594 80.292969 95.957031 78.605469 97.234375 C 76.875 98.542969 74.066406 99.203125 70.253906 99.203125 L 66.230469 99.203125 L 69.417969 83.082031 Z M 79.066406 71.566406 L 58.628906 71.566406 C 58.394531 71.566406 58.171875 71.605469 57.949219 71.683594 C 57.730469 71.761719 57.53125 71.871094 57.351562 72.019531 C 57.171875 72.164062 57.023438 72.335938 56.902344 72.53125 C 56.785156 72.730469 56.703125 72.941406 56.660156 73.164062 L 47.175781 121.121094 C 47.121094 121.410156 47.128906 121.699219 47.203125 121.984375 C 47.273438 122.269531 47.40625 122.527344 47.597656 122.753906 C 47.789062 122.980469 48.019531 123.160156 48.292969 123.285156 C 48.5625 123.410156 48.847656 123.472656 49.148438 123.472656 L 59.773438 123.472656 C 60.007812 123.472656 60.234375 123.433594 60.453125 123.355469 C 60.671875 123.28125 60.871094 123.167969 61.054688 123.023438 C 61.234375 122.875 61.382812 122.707031 61.5 122.507812 C 61.621094 122.3125 61.703125 122.101562 61.746094 121.875 L 63.953125 110.722656 L 71.398438 110.722656 C 75.613281 110.722656 79.15625 110.273438 81.9375 109.382812 C 84.796875 108.46875 87.425781 106.921875 89.753906 104.78125 C 91.679688 103.039062 93.269531 101.085938 94.46875 98.972656 C 95.664062 96.859375 96.53125 94.5 97.035156 91.960938 C 98.277344 85.675781 97.269531 80.644531 94.03125 77.003906 C 90.828125 73.398438 85.792969 71.570312 79.066406 71.570312 M 63.792969 101.183594 L 70.257812 101.183594 C 74.542969 101.183594 77.734375 100.390625 79.832031 98.800781 C 81.925781 97.214844 83.34375 94.566406 84.078125 90.855469 C 84.78125 87.289062 84.460938 84.773438 83.117188 83.308594 C 81.773438 81.84375 79.078125 81.109375 75.042969 81.109375 L 67.761719 81.109375 L 63.792969 101.179688 M 79.066406 73.542969 C 85.214844 73.542969 89.699219 75.128906 92.519531 78.300781 C 95.339844 81.472656 96.1875 85.902344 95.0625 91.585938 C 94.601562 93.925781 93.816406 96.066406 92.714844 98.007812 C 91.613281 99.949219 90.171875 101.722656 88.390625 103.332031 C 86.265625 105.285156 83.910156 106.675781 81.316406 107.503906 C 78.722656 108.335938 75.417969 108.75 71.402344 108.75 L 62.296875 108.75 L 59.777344 121.5 L 49.148438 121.5 L 58.632812 73.546875 L 79.070312 73.546875 " fill-opacity="1" fill-rule="nonzero"/><path fill="#000000" d="M 120.414062 109.734375 C 120.113281 109.734375 119.832031 109.601562 119.640625 109.375 C 119.449219 109.148438 119.371094 108.847656 119.429688 108.558594 L 123.625 87.339844 C 124.023438 85.320312 123.921875 83.875 123.347656 83.261719 C 122.992188 82.886719 121.929688 82.261719 118.792969 82.261719 L 111.191406 82.261719 L 105.917969 108.933594 C 105.871094 109.167969 105.757812 109.355469 105.570312 109.507812 C 105.386719 109.65625 105.171875 109.734375 104.933594 109.734375 L 94.390625 109.734375 C 94.238281 109.734375 94.097656 109.703125 93.960938 109.640625 C 93.824219 109.574219 93.710938 109.488281 93.613281 109.375 C 93.519531 109.261719 93.453125 109.132812 93.414062 108.988281 C 93.378906 108.847656 93.375 108.703125 93.402344 108.558594 L 102.886719 60.601562 C 102.929688 60.371094 103.046875 60.179688 103.234375 60.03125 C 103.417969 59.878906 103.628906 59.804688 103.871094 59.804688 L 114.414062 59.804688 C 114.566406 59.804688 114.707031 59.835938 114.84375 59.898438 C 114.980469 59.960938 115.09375 60.050781 115.191406 60.164062 C 115.285156 60.277344 115.351562 60.40625 115.386719 60.546875 C 115.425781 60.691406 115.429688 60.835938 115.402344 60.980469 L 113.113281 72.554688 L 121.289062 72.554688 C 127.515625 72.554688 131.738281 73.632812 134.199219 75.851562 C 136.707031 78.117188 137.488281 81.738281 136.523438 86.617188 L 132.113281 108.933594 C 132.066406 109.167969 131.949219 109.359375 131.765625 109.507812 C 131.578125 109.660156 131.367188 109.734375 131.125 109.734375 Z M 120.414062 109.734375 " fill-opacity="1" fill-rule="nonzero"/><path fill="#ffffff" d="M 114.414062 58.816406 L 103.871094 58.816406 C 103.640625 58.816406 103.414062 58.855469 103.191406 58.933594 C 102.972656 59.011719 102.773438 59.121094 102.59375 59.269531 C 102.414062 59.414062 102.265625 59.585938 102.144531 59.78125 C 102.027344 59.980469 101.945312 60.191406 101.898438 60.414062 L 92.417969 108.371094 C 92.359375 108.660156 92.371094 108.945312 92.441406 109.230469 C 92.515625 109.519531 92.648438 109.773438 92.839844 110 C 93.03125 110.230469 93.261719 110.40625 93.53125 110.53125 C 93.804688 110.65625 94.089844 110.71875 94.390625 110.71875 L 104.933594 110.71875 C 105.167969 110.71875 105.394531 110.679688 105.613281 110.605469 C 105.832031 110.527344 106.03125 110.414062 106.210938 110.269531 C 106.390625 110.125 106.539062 109.953125 106.660156 109.753906 C 106.777344 109.558594 106.859375 109.347656 106.90625 109.121094 L 112.019531 83.246094 L 118.792969 83.246094 C 121.925781 83.246094 122.585938 83.90625 122.609375 83.933594 C 122.800781 84.132812 123.050781 85.066406 122.636719 87.152344 L 118.445312 108.371094 C 118.386719 108.660156 118.394531 108.945312 118.46875 109.230469 C 118.542969 109.519531 118.675781 109.773438 118.867188 110 C 119.058594 110.230469 119.289062 110.40625 119.558594 110.53125 C 119.832031 110.65625 120.117188 110.71875 120.414062 110.71875 L 131.128906 110.71875 C 131.359375 110.71875 131.585938 110.679688 131.804688 110.605469 C 132.023438 110.527344 132.226562 110.414062 132.40625 110.269531 C 132.585938 110.125 132.734375 109.953125 132.851562 109.753906 C 132.972656 109.558594 133.054688 109.347656 133.097656 109.121094 L 137.511719 86.808594 C 138.546875 81.570312 137.660156 77.640625 134.878906 75.125 C 132.226562 72.730469 127.78125 71.566406 121.289062 71.566406 L 114.332031 71.566406 L 116.386719 61.167969 C 116.445312 60.878906 116.4375 60.589844 116.363281 60.304688 C 116.289062 60.019531 116.15625 59.761719 115.964844 59.535156 C 115.777344 59.308594 115.546875 59.132812 115.273438 59.003906 C 115.003906 58.878906 114.71875 58.816406 114.417969 58.816406 M 114.417969 60.792969 L 111.894531 73.539062 L 121.289062 73.539062 C 127.199219 73.539062 131.277344 74.554688 133.519531 76.582031 C 135.765625 78.605469 136.4375 81.890625 135.539062 86.429688 L 131.128906 108.746094 L 120.417969 108.746094 L 124.609375 87.527344 C 125.089844 85.113281 124.914062 83.46875 124.085938 82.589844 C 123.253906 81.710938 121.492188 81.273438 118.792969 81.273438 L 110.363281 81.273438 L 104.933594 108.746094 L 94.390625 108.746094 L 103.871094 60.792969 L 114.414062 60.792969 " fill-opacity="1" fill-rule="nonzero"/><path fill="#000000" d="M 153.207031 100.191406 C 157.246094 100.191406 160.261719 99.460938 162.167969 98.015625 C 164.054688 96.589844 165.359375 94.113281 166.042969 90.664062 C 166.679688 87.4375 166.4375 85.183594 165.320312 83.96875 C 164.179688 82.726562 161.714844 82.097656 157.992188 82.097656 L 151.539062 82.097656 L 147.960938 100.191406 Z M 132.097656 122.484375 C 131.800781 122.484375 131.515625 122.351562 131.324219 122.125 C 131.125 121.882812 131.054688 121.613281 131.113281 121.308594 L 140.59375 73.351562 C 140.640625 73.121094 140.757812 72.929688 140.941406 72.78125 C 141.128906 72.628906 141.339844 72.554688 141.582031 72.554688 L 162.019531 72.554688 C 168.441406 72.554688 173.222656 74.265625 176.226562 77.648438 C 179.246094 81.046875 180.179688 85.800781 179 91.773438 C 178.519531 94.203125 177.691406 96.464844 176.542969 98.488281 C 175.390625 100.511719 173.871094 102.386719 172.019531 104.058594 C 169.804688 106.09375 167.296875 107.570312 164.578125 108.441406 C 161.898438 109.300781 158.457031 109.734375 154.351562 109.734375 L 146.070312 109.734375 L 143.707031 121.683594 C 143.660156 121.917969 143.546875 122.109375 143.359375 122.257812 C 143.175781 122.410156 142.960938 122.484375 142.722656 122.484375 L 132.09375 122.484375 Z M 132.097656 122.484375 " fill-opacity="1" fill-rule="nonzero"/><path fill="#ffffff" d="M 152.367188 83.082031 L 157.992188 83.082031 C 162.484375 83.082031 164.046875 84.050781 164.578125 84.628906 C 165.457031 85.589844 165.625 87.609375 165.058594 90.472656 C 164.421875 93.683594 163.246094 95.957031 161.558594 97.234375 C 159.828125 98.542969 157.019531 99.203125 153.207031 99.203125 L 149.179688 99.203125 Z M 162.019531 71.566406 L 141.582031 71.566406 C 141.347656 71.566406 141.121094 71.605469 140.902344 71.683594 C 140.683594 71.761719 140.484375 71.871094 140.304688 72.019531 C 140.125 72.164062 139.976562 72.335938 139.855469 72.53125 C 139.738281 72.730469 139.65625 72.941406 139.609375 73.164062 L 130.128906 121.121094 C 130.070312 121.410156 130.078125 121.699219 130.152344 121.984375 C 130.226562 122.269531 130.359375 122.527344 130.550781 122.753906 C 130.738281 122.980469 130.972656 123.160156 131.242188 123.285156 C 131.511719 123.410156 131.796875 123.472656 132.097656 123.472656 L 142.726562 123.472656 C 142.960938 123.472656 143.183594 123.433594 143.40625 123.355469 C 143.625 123.28125 143.824219 123.167969 144.003906 123.023438 C 144.183594 122.875 144.332031 122.707031 144.453125 122.507812 C 144.570312 122.3125 144.652344 122.101562 144.699219 121.875 L 146.902344 110.722656 L 154.351562 110.722656 C 158.5625 110.722656 162.109375 110.273438 164.886719 109.382812 C 167.746094 108.46875 170.378906 106.921875 172.707031 104.78125 C 174.632812 103.039062 176.214844 101.085938 177.417969 98.972656 C 178.621094 96.859375 179.484375 94.5 179.984375 91.960938 C 181.226562 85.675781 180.21875 80.644531 176.980469 77.003906 C 173.777344 73.398438 168.742188 71.570312 162.019531 71.570312 M 146.742188 101.183594 L 153.207031 101.183594 C 157.492188 101.183594 160.683594 100.390625 162.78125 98.800781 C 164.878906 97.214844 166.292969 94.566406 167.027344 90.855469 C 167.730469 87.289062 167.410156 84.773438 166.066406 83.308594 C 164.722656 81.84375 162.03125 81.109375 157.992188 81.109375 L 150.710938 81.109375 L 146.742188 101.179688 M 162.019531 73.542969 C 168.167969 73.542969 172.652344 75.128906 175.46875 78.300781 C 178.289062 81.472656 179.136719 85.902344 178.011719 91.585938 C 177.550781 93.925781 176.765625 96.066406 175.664062 98.007812 C 174.5625 99.949219 173.121094 101.722656 171.339844 103.332031 C 169.21875 105.285156 166.859375 106.675781 164.265625 107.503906 C 161.671875 108.335938 158.367188 108.75 154.351562 108.75 L 145.246094 108.75 L 142.726562 121.5 L 132.097656 121.5 L 141.582031 73.542969 L 162.019531 73.542969 " fill-opacity="1" fill-rule="nonzero"/></svg>