<svg xmlns="http://www.w3.org/2000/svg" xmlns:xlink="http://www.w3.org/1999/xlink" width="300" zoomAndPan="magnify" viewBox="0 0 224.87999 225" height="300" preserveAspectRatio="xMidYMid meet" version="1.0"><defs><clipPath id="fe24afd094"><path d="M 22.488281 136 L 89 136 L 89 202.453125 L 22.488281 202.453125 Z M 22.488281 136 " clip-rule="nonzero"/></clipPath><clipPath id="69ad13d111"><path d="M 97 22.546875 L 128 22.546875 L 128 89 L 97 89 Z M 97 22.546875 " clip-rule="nonzero"/></clipPath><clipPath id="e69d4bd34d"><path d="M 136 136 L 202.390625 136 L 202.390625 202.453125 L 136 202.453125 Z M 136 136 " clip-rule="nonzero"/></clipPath><clipPath id="ac780a376e"><path d="M 88 192 L 138 192 L 138 202.453125 L 88 202.453125 Z M 88 192 " clip-rule="nonzero"/></clipPath></defs><path fill="#fccc38" d="M 61.378906 107.804688 C 64.914062 105.71875 67.3125 101.910156 67.3125 97.507812 C 67.3125 90.882812 61.945312 85.515625 55.320312 85.515625 C 48.695312 85.515625 43.328125 90.882812 43.328125 97.507812 C 43.328125 101.910156 45.726562 105.71875 49.261719 107.804688 C 44.003906 110.132812 40.328125 115.375 40.328125 121.496094 L 40.328125 151.480469 L 70.3125 151.480469 L 70.3125 121.496094 C 70.3125 115.375 66.636719 110.132812 61.378906 107.804688 Z M 61.378906 107.804688 " fill-opacity="1" fill-rule="nonzero"/><g clip-path="url(#fe24afd094)"><path fill="#17afdc" d="M 88.089844 173.203125 L 88.089844 165.738281 L 82.0625 163.078125 C 81.707031 161.519531 81.25 160.007812 80.652344 158.5625 L 83.976562 152.832031 C 82.757812 150.648438 81.300781 148.628906 79.652344 146.789062 L 73.273438 148.25 C 72.113281 147.222656 70.859375 146.304688 69.535156 145.484375 L 68.925781 138.820312 C 66.726562 137.800781 64.414062 136.992188 61.988281 136.488281 L 57.640625 141.53125 L 53.011719 141.53125 L 48.65625 136.488281 C 46.230469 136.992188 43.917969 137.800781 41.71875 138.820312 L 41.109375 145.484375 C 39.789062 146.304688 38.535156 147.222656 37.371094 148.25 L 30.996094 146.789062 C 29.34375 148.628906 27.886719 150.648438 26.671875 152.832031 L 29.992188 158.5625 C 29.394531 160.007812 28.9375 161.519531 28.582031 163.078125 L 22.558594 165.738281 L 22.558594 173.203125 L 28.582031 175.863281 C 28.941406 177.417969 29.394531 178.933594 29.992188 180.378906 L 26.671875 186.109375 C 27.886719 188.289062 29.34375 190.308594 30.996094 192.148438 L 37.371094 190.6875 C 38.535156 191.71875 39.789062 192.636719 41.109375 193.453125 L 41.71875 200.121094 C 43.921875 201.140625 46.230469 201.945312 48.65625 202.453125 L 53.003906 197.410156 L 57.636719 197.410156 L 61.984375 202.453125 C 64.410156 201.945312 66.722656 201.140625 68.921875 200.121094 L 69.53125 193.453125 C 70.851562 192.636719 72.105469 191.714844 73.269531 190.6875 L 79.648438 192.148438 C 81.296875 190.308594 82.753906 188.289062 83.96875 186.109375 L 80.648438 180.378906 C 81.246094 178.933594 81.703125 177.417969 82.058594 175.863281 Z M 55.320312 182.664062 C 48.035156 182.664062 42.128906 176.753906 42.128906 169.46875 C 42.128906 162.183594 48.035156 156.277344 55.320312 156.277344 C 62.605469 156.277344 68.511719 162.183594 68.511719 169.46875 C 68.511719 176.753906 62.605469 182.664062 55.320312 182.664062 Z M 55.320312 182.664062 " fill-opacity="1" fill-rule="nonzero"/></g><g clip-path="url(#69ad13d111)"><path fill="#f4393d" d="M 118.351562 44.839844 C 121.886719 42.75 124.285156 38.941406 124.285156 34.542969 C 124.285156 27.917969 118.914062 22.546875 112.289062 22.546875 C 105.667969 22.546875 100.296875 27.917969 100.296875 34.542969 C 100.296875 38.941406 102.695312 42.75 106.230469 44.839844 C 100.972656 47.167969 97.296875 52.410156 97.296875 58.527344 L 97.296875 88.511719 L 127.28125 88.511719 L 127.28125 58.527344 C 127.28125 52.410156 123.605469 47.167969 118.351562 44.839844 Z M 118.351562 44.839844 " fill-opacity="1" fill-rule="nonzero"/></g><path fill="#5358a1" d="M 145.058594 107.238281 L 145.058594 99.773438 L 139.03125 97.113281 C 138.675781 95.554688 138.21875 94.042969 137.625 92.597656 L 140.945312 86.867188 C 139.726562 84.683594 138.269531 82.664062 136.621094 80.824219 L 130.246094 82.285156 C 129.082031 81.257812 127.828125 80.339844 126.503906 79.519531 L 125.898438 72.855469 C 123.695312 71.835938 121.382812 71.027344 118.957031 70.523438 L 114.609375 75.566406 L 109.980469 75.566406 L 105.628906 70.523438 C 103.203125 71.027344 100.886719 71.835938 98.6875 72.855469 L 98.082031 79.519531 C 96.757812 80.339844 95.503906 81.257812 94.339844 82.285156 L 87.964844 80.824219 C 86.316406 82.664062 84.859375 84.683594 83.640625 86.867188 L 86.960938 92.597656 C 86.367188 94.042969 85.90625 95.554688 85.554688 97.113281 L 79.527344 99.773438 L 79.527344 107.238281 L 85.554688 109.898438 C 85.910156 111.453125 86.367188 112.96875 86.960938 114.414062 L 83.640625 120.144531 C 84.859375 122.324219 86.316406 124.34375 87.964844 126.183594 L 94.339844 124.722656 C 95.503906 125.753906 96.757812 126.671875 98.082031 127.488281 L 98.6875 134.15625 C 100.890625 135.175781 103.203125 135.980469 105.628906 136.488281 L 109.976562 131.445312 L 114.605469 131.445312 L 118.953125 136.488281 C 121.378906 135.980469 123.691406 135.175781 125.890625 134.15625 L 126.5 127.488281 C 127.820312 126.671875 129.074219 125.75 130.238281 124.722656 L 136.617188 126.183594 C 138.265625 124.34375 139.722656 122.324219 140.941406 120.144531 L 137.617188 114.414062 C 138.214844 112.96875 138.671875 111.453125 139.027344 109.898438 Z M 112.289062 116.699219 C 105.003906 116.699219 99.097656 110.789062 99.097656 103.503906 C 99.097656 96.21875 105.003906 90.3125 112.289062 90.3125 C 119.578125 90.3125 125.484375 96.21875 125.484375 103.503906 C 125.484375 110.789062 119.578125 116.699219 112.289062 116.699219 Z M 112.289062 116.699219 " fill-opacity="1" fill-rule="nonzero"/><path fill="#fccc38" d="M 175.320312 110.804688 C 178.855469 108.714844 181.253906 104.90625 181.253906 100.507812 C 181.253906 93.882812 175.882812 88.511719 169.257812 88.511719 C 162.636719 88.511719 157.265625 93.882812 157.265625 100.507812 C 157.265625 104.90625 159.664062 108.714844 163.199219 110.804688 C 157.945312 113.132812 154.269531 118.375 154.269531 124.492188 L 154.269531 154.476562 L 184.25 154.476562 L 184.25 124.492188 C 184.25 118.375 180.574219 113.132812 175.320312 110.804688 Z M 175.320312 110.804688 " fill-opacity="1" fill-rule="nonzero"/><g clip-path="url(#e69d4bd34d)"><path fill="#8bb4fc" d="M 202.027344 173.203125 L 202.027344 165.738281 L 196.003906 163.078125 C 195.644531 161.519531 195.191406 160.007812 194.59375 158.5625 L 197.914062 152.832031 C 196.699219 150.648438 195.242188 148.628906 193.589844 146.789062 L 187.214844 148.25 C 186.050781 147.222656 184.796875 146.304688 183.476562 145.484375 L 182.867188 138.820312 C 180.664062 137.800781 178.355469 136.992188 175.929688 136.488281 L 171.582031 141.53125 L 166.949219 141.53125 L 162.597656 136.488281 C 160.171875 136.992188 157.855469 137.800781 155.660156 138.820312 L 155.050781 145.484375 C 153.726562 146.304688 152.476562 147.222656 151.3125 148.25 L 144.933594 146.789062 C 143.285156 148.628906 141.828125 150.648438 140.609375 152.832031 L 143.933594 158.5625 C 143.335938 160.007812 142.875 161.519531 142.523438 163.078125 L 136.496094 165.738281 L 136.496094 173.203125 L 142.523438 175.863281 C 142.878906 177.417969 143.335938 178.933594 143.933594 180.378906 L 140.609375 186.109375 C 141.828125 188.289062 143.285156 190.308594 144.933594 192.148438 L 151.3125 190.6875 C 152.476562 191.71875 153.726562 192.636719 155.050781 193.453125 L 155.660156 200.121094 C 157.859375 201.140625 160.171875 201.945312 162.597656 202.453125 L 166.945312 197.410156 L 171.574219 197.410156 L 175.921875 202.453125 C 178.347656 201.945312 180.664062 201.140625 182.859375 200.121094 L 183.46875 193.453125 C 184.792969 192.636719 186.042969 191.714844 187.207031 190.6875 L 193.585938 192.148438 C 195.234375 190.308594 196.691406 188.289062 197.910156 186.109375 L 194.585938 180.378906 C 195.183594 178.933594 195.644531 177.417969 195.996094 175.863281 Z M 169.257812 182.664062 C 161.972656 182.664062 156.066406 176.753906 156.066406 169.46875 C 156.066406 162.183594 161.972656 156.277344 169.257812 156.277344 C 176.546875 156.277344 182.453125 162.183594 182.453125 169.46875 C 182.453125 176.753906 176.546875 182.664062 169.257812 182.664062 Z M 169.257812 182.664062 " fill-opacity="1" fill-rule="nonzero"/></g><path fill="#848a8c" d="M 44.722656 81.734375 L 39.316406 79.128906 C 47.882812 61.347656 62.609375 47.320312 80.777344 39.636719 L 83.113281 45.160156 C 66.289062 52.273438 52.65625 65.261719 44.722656 81.734375 Z M 44.722656 81.734375 " fill-opacity="1" fill-rule="nonzero"/><g clip-path="url(#ac780a376e)"><path fill="#848a8c" d="M 112.375 202.453125 C 104.164062 202.453125 96.066406 201.226562 88.304688 198.8125 L 90.082031 193.085938 C 104.890625 197.695312 121.210938 197.550781 135.941406 192.675781 L 137.824219 198.367188 C 129.636719 201.078125 121.074219 202.453125 112.375 202.453125 Z M 112.375 202.453125 " fill-opacity="1" fill-rule="nonzero"/></g><path fill="#848a8c" d="M 180.230469 82.515625 C 172.226562 65.390625 158.191406 52.011719 140.71875 44.847656 L 142.992188 39.296875 C 161.863281 47.039062 177.015625 61.480469 185.660156 79.976562 Z M 180.230469 82.515625 " fill-opacity="1" fill-rule="nonzero"/><path fill="#b5cff4" d="M 169.257812 151.480469 C 159.324219 151.480469 151.269531 159.53125 151.269531 169.46875 C 151.269531 179.40625 159.324219 187.460938 169.257812 187.460938 C 179.195312 187.460938 187.25 179.40625 187.25 169.46875 C 187.25 159.53125 179.195312 151.480469 169.257812 151.480469 Z M 169.257812 182.664062 C 161.972656 182.664062 156.066406 176.753906 156.066406 169.46875 C 156.066406 162.183594 161.972656 156.277344 169.257812 156.277344 C 176.546875 156.277344 182.453125 162.183594 182.453125 169.46875 C 182.453125 176.753906 176.546875 182.664062 169.257812 182.664062 Z M 169.257812 182.664062 " fill-opacity="1" fill-rule="nonzero"/><path fill="#6570d6" d="M 112.289062 85.515625 C 102.351562 85.515625 94.300781 93.566406 94.300781 103.503906 C 94.300781 113.441406 102.351562 121.496094 112.289062 121.496094 C 122.226562 121.496094 130.28125 113.441406 130.28125 103.503906 C 130.28125 93.566406 122.226562 85.515625 112.289062 85.515625 Z M 112.289062 116.699219 C 105.003906 116.699219 99.097656 110.789062 99.097656 103.503906 C 99.097656 96.21875 105.003906 90.3125 112.289062 90.3125 C 119.578125 90.3125 125.484375 96.21875 125.484375 103.503906 C 125.484375 110.789062 119.578125 116.699219 112.289062 116.699219 Z M 112.289062 116.699219 " fill-opacity="1" fill-rule="nonzero"/><path fill="#5ac8e2" d="M 55.320312 151.480469 C 45.382812 151.480469 37.328125 159.53125 37.328125 169.46875 C 37.328125 179.40625 45.382812 187.460938 55.320312 187.460938 C 65.257812 187.460938 73.3125 179.40625 73.3125 169.46875 C 73.3125 159.53125 65.257812 151.480469 55.320312 151.480469 Z M 55.320312 182.664062 C 48.035156 182.664062 42.128906 176.753906 42.128906 169.46875 C 42.128906 162.183594 48.035156 156.277344 55.320312 156.277344 C 62.605469 156.277344 68.511719 162.183594 68.511719 169.46875 C 68.511719 176.753906 62.605469 182.664062 55.320312 182.664062 Z M 55.320312 182.664062 " fill-opacity="1" fill-rule="nonzero"/></svg>