<svg xmlns="http://www.w3.org/2000/svg" xmlns:xlink="http://www.w3.org/1999/xlink" width="300" zoomAndPan="magnify" viewBox="0 0 224.87999 225" height="300" preserveAspectRatio="xMidYMid meet" version="1.0"><defs><clipPath id="3048be7be2"><path d="M 41.460938 72 L 183.132812 72 L 183.132812 135 L 41.460938 135 Z M 41.460938 72 " clip-rule="nonzero"/></clipPath><clipPath id="aa2e01213f"><path d="M 86 22.546875 L 163 22.546875 L 163 63 L 86 63 Z M 86 22.546875 " clip-rule="nonzero"/></clipPath><clipPath id="d13bf512cd"><path d="M 41.460938 117 L 183.132812 117 L 183.132812 202.453125 L 41.460938 202.453125 Z M 41.460938 117 " clip-rule="nonzero"/></clipPath></defs><g clip-path="url(#3048be7be2)"><path fill="#47568c" d="M 43.628906 121.8125 C 43.417969 121.8125 43.207031 121.777344 42.996094 121.707031 C 41.875 121.355469 41.277344 120.160156 41.628906 119.070312 L 52.007812 86.671875 C 52.359375 85.550781 53.550781 84.953125 54.640625 85.304688 C 55.042969 85.429688 63.484375 85.757812 74.128906 86.175781 C 73.8125 85.050781 166.261719 73.390625 167.382812 73.074219 C 168.503906 72.757812 169.660156 73.390625 169.976562 74.515625 L 183.023438 119.140625 C 183.339844 120.265625 182.707031 121.425781 181.585938 121.742188 C 181.410156 121.777344 181.234375 121.8125 181.023438 121.8125 C 180.113281 121.8125 179.269531 121.214844 178.992188 120.300781 L 104.441406 134.015625 L 45.628906 120.335938 C 45.347656 121.25 44.503906 121.8125 43.628906 121.8125 Z M 43.628906 121.8125 " fill-opacity="1" fill-rule="evenodd"/></g><g clip-path="url(#aa2e01213f)"><path fill="#ff9c19" d="M 160.859375 47.320312 C 160.066406 47.320312 135.035156 51.308594 119.449219 53.425781 L 129.679688 62.886719 C 129.679688 63.503906 118.261719 59.015625 107.445312 54.695312 C 107.304688 54.675781 107.222656 54.648438 107.222656 54.605469 C 97.863281 50.867188 89.015625 47.285156 88.480469 47.285156 C 87.324219 47.285156 86.375 46.335938 86.375 45.175781 L 86.375 24.65625 C 86.375 23.496094 87.324219 22.546875 88.480469 22.546875 L 120.566406 22.546875 C 122.707031 22.546875 124.742188 23.460938 126.144531 25.113281 L 130.667969 30.382812 C 131.296875 31.085938 132.175781 31.507812 133.121094 31.507812 L 160.824219 31.507812 C 161.984375 31.507812 162.929688 32.457031 162.929688 33.617188 L 162.929688 45.246094 C 162.964844 46.371094 162.019531 47.320312 160.859375 47.320312 Z M 160.859375 47.320312 " fill-opacity="1" fill-rule="evenodd"/></g><path fill="#fdbf00" d="M 161.070312 108.636719 L 142.800781 108.636719 C 141.980469 108.636719 103.296875 94.300781 80.9375 85.574219 C 79.929688 95.15625 78.921875 103.34375 78.4375 103.34375 C 77.933594 103.34375 78.070312 94.578125 78.382812 84.574219 C 70.640625 81.527344 65.402344 79.351562 65.402344 79.050781 C 65.402344 78.746094 70.664062 80.351562 78.4375 82.882812 C 78.851562 70.296875 79.503906 56.449219 79.503906 55.824219 L 79.503906 52.167969 C 79.503906 47.179688 83.535156 43.136719 88.515625 43.136719 L 161.070312 43.140625 C 166.050781 43.140625 170.082031 47.179688 170.082031 52.167969 L 170.082031 99.605469 C 170.082031 104.59375 166.050781 108.636719 161.070312 108.636719 Z M 161.070312 108.636719 " fill-opacity="1" fill-rule="evenodd"/><path fill="#ff9c19" d="M 135.472656 79.050781 C 134.84375 79.050781 116.835938 85.351562 100.449219 90.949219 L 104.597656 94.628906 C 104.597656 95.46875 85.746094 97.960938 74.9375 99.265625 C 74.238281 99.4375 73.855469 99.488281 73.855469 99.394531 C 70.324219 99.816406 67.863281 100.085938 67.574219 100.085938 C 66.414062 100.085938 58.953125 78.101562 58.953125 76.941406 L 58.953125 55.789062 C 58.953125 54.628906 59.898438 53.679688 61.058594 53.679688 L 94.054688 53.679688 C 96.230469 53.679688 98.300781 54.628906 99.738281 56.28125 L 104.402344 61.691406 C 105.03125 62.429688 105.980469 62.886719 106.996094 62.886719 L 135.472656 62.886719 C 136.628906 62.886719 137.574219 63.835938 137.574219 64.992188 L 137.574219 76.941406 C 137.574219 78.101562 136.628906 79.050781 135.472656 79.050781 Z M 135.472656 79.050781 " fill-opacity="1" fill-rule="evenodd"/><path fill="#ffda2d" d="M 142.800781 121.8125 C 155.625 123.238281 144.203125 128.761719 111.308594 131.679688 L 117.617188 137.113281 C 117.617188 137.472656 111.667969 136.152344 103.414062 134.15625 C 92.109375 137.683594 82.777344 140.476562 82.777344 140.015625 L 91.804688 131.296875 C 74.453125 126.960938 54.621094 121.8125 53.972656 121.8125 C 52.816406 121.8125 51.871094 120.863281 51.871094 119.703125 L 51.867188 84.074219 C 51.867188 78.980469 56.007812 74.832031 61.09375 74.832031 L 135.679688 74.832031 C 140.765625 74.832031 144.902344 78.980469 144.902344 84.074219 L 144.902344 119.703125 C 144.902344 120.863281 143.957031 121.8125 142.800781 121.8125 Z M 142.800781 121.8125 " fill-opacity="1" fill-rule="evenodd"/><g clip-path="url(#d13bf512cd)"><path fill="#61729b" d="M 173.027344 202.453125 L 51.625 202.453125 C 46.046875 202.453125 41.523438 197.917969 41.523438 192.332031 L 41.523438 119.703125 C 41.523438 118.542969 42.472656 117.59375 43.628906 117.59375 L 90.164062 117.59375 C 91.320312 117.59375 92.269531 118.542969 92.269531 119.703125 L 92.269531 126.308594 L 132.351562 126.308594 L 132.351562 119.703125 C 132.351562 118.542969 133.296875 117.59375 134.453125 117.59375 L 180.988281 117.59375 C 181.550781 117.59375 182.078125 117.804688 182.460938 118.226562 C 182.847656 118.613281 183.09375 119.175781 183.09375 119.703125 L 183.09375 192.332031 C 183.128906 197.917969 178.605469 202.453125 173.03125 202.453125 Z M 173.027344 202.453125 " fill-opacity="1" fill-rule="evenodd"/></g><path fill="#47568c" d="M 134.910156 168.15625 L 89.742188 168.15625 C 88.585938 168.15625 87.636719 167.210938 87.636719 166.050781 L 87.636719 146.933594 C 87.636719 145.773438 88.585938 144.828125 89.742188 144.828125 L 134.875 144.828125 C 136.03125 144.828125 136.980469 145.773438 136.980469 146.933594 L 136.980469 166.050781 C 137.015625 167.242188 136.066406 168.15625 134.910156 168.15625 Z M 134.910156 168.15625 " fill-opacity="1" fill-rule="evenodd"/></svg>