<svg xmlns="http://www.w3.org/2000/svg" xmlns:xlink="http://www.w3.org/1999/xlink" width="300" zoomAndPan="magnify" viewBox="0 0 224.87999 225" height="300" preserveAspectRatio="xMidYMid meet" version="1.0"><defs><clipPath id="c566058017"><path d="M 22.488281 22.546875 L 202.390625 22.546875 L 202.390625 202.453125 L 22.488281 202.453125 Z M 22.488281 22.546875 " clip-rule="nonzero"/></clipPath></defs><g clip-path="url(#c566058017)"><path fill="#0068ff" d="M 112.453125 22.546875 C 113.925781 22.546875 115.398438 22.585938 116.867188 22.65625 C 118.339844 22.730469 119.808594 22.835938 121.273438 22.980469 C 122.738281 23.125 124.199219 23.304688 125.65625 23.523438 C 127.109375 23.738281 128.5625 23.988281 130.003906 24.277344 C 131.449219 24.5625 132.886719 24.886719 134.3125 25.246094 C 135.742188 25.601562 137.160156 25.996094 138.570312 26.421875 C 139.980469 26.847656 141.375 27.3125 142.761719 27.808594 C 144.148438 28.304688 145.523438 28.832031 146.882812 29.394531 C 148.242188 29.960938 149.589844 30.554688 150.917969 31.1875 C 152.25 31.816406 153.566406 32.476562 154.863281 33.171875 C 156.164062 33.863281 157.441406 34.589844 158.707031 35.347656 C 159.96875 36.105469 161.210938 36.890625 162.4375 37.710938 C 163.660156 38.527344 164.863281 39.375 166.046875 40.253906 C 167.230469 41.128906 168.390625 42.035156 169.527344 42.96875 C 170.664062 43.902344 171.78125 44.863281 172.871094 45.855469 C 173.960938 46.84375 175.027344 47.855469 176.070312 48.898438 C 177.109375 49.941406 178.125 51.003906 179.113281 52.097656 C 180.101562 53.1875 181.066406 54.300781 182 55.441406 C 182.933594 56.578125 183.839844 57.738281 184.714844 58.921875 C 185.59375 60.105469 186.441406 61.308594 187.257812 62.53125 C 188.074219 63.753906 188.863281 65 189.621094 66.261719 C 190.378906 67.523438 191.101562 68.804688 191.796875 70.105469 C 192.492188 71.402344 193.152344 72.71875 193.78125 74.046875 C 194.410156 75.378906 195.007812 76.726562 195.570312 78.085938 C 196.136719 79.445312 196.664062 80.820312 197.160156 82.207031 C 197.65625 83.589844 198.117188 84.988281 198.546875 86.398438 C 198.972656 87.808594 199.367188 89.226562 199.722656 90.652344 C 200.082031 92.082031 200.402344 93.519531 200.691406 94.960938 C 200.976562 96.40625 201.230469 97.855469 201.445312 99.3125 C 201.664062 100.769531 201.84375 102.230469 201.988281 103.695312 C 202.132812 105.160156 202.238281 106.628906 202.3125 108.097656 C 202.382812 109.570312 202.417969 111.042969 202.417969 112.515625 C 202.417969 113.988281 202.382812 115.457031 202.3125 116.929688 C 202.238281 118.398438 202.132812 119.867188 201.988281 121.332031 C 201.84375 122.796875 201.664062 124.257812 201.445312 125.714844 C 201.230469 127.171875 200.976562 128.621094 200.691406 130.066406 C 200.402344 131.507812 200.082031 132.945312 199.722656 134.375 C 199.367188 135.800781 198.972656 137.222656 198.546875 138.628906 C 198.117188 140.039062 197.65625 141.4375 197.160156 142.824219 C 196.664062 144.207031 196.136719 145.582031 195.570312 146.941406 C 195.007812 148.300781 194.410156 149.648438 193.78125 150.980469 C 193.152344 152.308594 192.492188 153.625 191.796875 154.921875 C 191.101562 156.222656 190.378906 157.503906 189.621094 158.765625 C 188.863281 160.027344 188.074219 161.273438 187.257812 162.496094 C 186.441406 163.71875 185.59375 164.925781 184.714844 166.105469 C 183.839844 167.289062 182.933594 168.449219 182 169.585938 C 181.066406 170.726562 180.101562 171.839844 179.113281 172.929688 C 178.125 174.023438 177.109375 175.089844 176.070312 176.128906 C 175.027344 177.171875 173.960938 178.1875 172.871094 179.175781 C 171.78125 180.164062 170.664062 181.125 169.527344 182.058594 C 168.390625 182.992188 167.230469 183.898438 166.046875 184.773438 C 164.863281 185.652344 163.660156 186.5 162.4375 187.316406 C 161.210938 188.136719 159.96875 188.921875 158.707031 189.679688 C 157.441406 190.4375 156.164062 191.164062 154.863281 191.855469 C 153.566406 192.550781 152.25 193.210938 150.917969 193.84375 C 149.589844 194.472656 148.242188 195.066406 146.882812 195.632812 C 145.523438 196.195312 144.148438 196.726562 142.761719 197.222656 C 141.375 197.71875 139.980469 198.179688 138.570312 198.605469 C 137.160156 199.035156 135.742188 199.425781 134.3125 199.785156 C 132.886719 200.140625 131.449219 200.464844 130.003906 200.75 C 128.5625 201.039062 127.109375 201.289062 125.65625 201.507812 C 124.199219 201.722656 122.738281 201.902344 121.273438 202.046875 C 119.808594 202.191406 118.339844 202.300781 116.867188 202.371094 C 115.398438 202.445312 113.925781 202.480469 112.453125 202.480469 C 110.980469 202.480469 109.511719 202.445312 108.039062 202.371094 C 106.570312 202.300781 105.101562 202.191406 103.636719 202.046875 C 102.171875 201.902344 100.710938 201.722656 99.253906 201.507812 C 97.796875 201.289062 96.347656 201.039062 94.902344 200.75 C 93.457031 200.464844 92.023438 200.140625 90.59375 199.785156 C 89.164062 199.425781 87.746094 199.035156 86.339844 198.605469 C 84.929688 198.179688 83.53125 197.71875 82.144531 197.222656 C 80.757812 196.726562 79.386719 196.195312 78.027344 195.632812 C 76.664062 195.066406 75.320312 194.472656 73.988281 193.84375 C 72.65625 193.210938 71.34375 192.550781 70.042969 191.855469 C 68.746094 191.164062 67.464844 190.4375 66.203125 189.679688 C 64.9375 188.921875 63.695312 188.136719 62.472656 187.316406 C 61.246094 186.5 60.042969 185.652344 58.859375 184.773438 C 57.679688 183.898438 56.519531 182.992188 55.378906 182.058594 C 54.242188 181.125 53.128906 180.164062 52.035156 179.175781 C 50.945312 178.1875 49.878906 177.171875 48.839844 176.128906 C 47.796875 175.089844 46.78125 174.023438 45.792969 172.929688 C 44.804688 171.839844 43.84375 170.726562 42.910156 169.585938 C 41.976562 168.449219 41.070312 167.289062 40.191406 166.105469 C 39.316406 164.925781 38.46875 163.71875 37.648438 162.496094 C 36.832031 161.273438 36.042969 160.027344 35.289062 158.765625 C 34.53125 157.503906 33.804688 156.222656 33.109375 154.921875 C 32.417969 153.625 31.753906 152.308594 31.125 150.980469 C 30.496094 149.648438 29.898438 148.300781 29.335938 146.941406 C 28.773438 145.582031 28.242188 144.207031 27.746094 142.824219 C 27.25 141.4375 26.789062 140.039062 26.363281 138.628906 C 25.933594 137.222656 25.542969 135.800781 25.183594 134.375 C 24.828125 132.945312 24.503906 131.507812 24.214844 130.066406 C 23.929688 128.621094 23.679688 127.171875 23.460938 125.714844 C 23.246094 124.257812 23.066406 122.796875 22.921875 121.332031 C 22.777344 119.867188 22.667969 118.398438 22.597656 116.929688 C 22.523438 115.457031 22.488281 113.988281 22.488281 112.515625 C 22.488281 111.042969 22.523438 109.570312 22.597656 108.097656 C 22.667969 106.628906 22.777344 105.160156 22.921875 103.695312 C 23.066406 102.230469 23.246094 100.769531 23.460938 99.3125 C 23.679688 97.855469 23.929688 96.40625 24.214844 94.960938 C 24.503906 93.519531 24.828125 92.082031 25.183594 90.652344 C 25.542969 89.226562 25.933594 87.808594 26.363281 86.398438 C 26.789062 84.988281 27.25 83.589844 27.746094 82.207031 C 28.242188 80.820312 28.773438 79.445312 29.335938 78.085938 C 29.898438 76.726562 30.496094 75.378906 31.125 74.046875 C 31.753906 72.71875 32.417969 71.402344 33.109375 70.105469 C 33.804688 68.804688 34.53125 67.523438 35.289062 66.261719 C 36.042969 65 36.832031 63.753906 37.648438 62.53125 C 38.46875 61.308594 39.316406 60.105469 40.191406 58.921875 C 41.070312 57.738281 41.976562 56.578125 42.910156 55.441406 C 43.84375 54.300781 44.804688 53.1875 45.792969 52.097656 C 46.78125 51.003906 47.796875 49.941406 48.839844 48.898438 C 49.878906 47.855469 50.945312 46.84375 52.035156 45.855469 C 53.128906 44.863281 54.242188 43.902344 55.378906 42.96875 C 56.519531 42.035156 57.679688 41.128906 58.859375 40.253906 C 60.042969 39.375 61.246094 38.527344 62.472656 37.710938 C 63.695312 36.890625 64.9375 36.105469 66.203125 35.347656 C 67.464844 34.589844 68.746094 33.863281 70.042969 33.171875 C 71.34375 32.476562 72.65625 31.816406 73.988281 31.1875 C 75.320312 30.554688 76.664062 29.960938 78.027344 29.394531 C 79.386719 28.832031 80.757812 28.304688 82.144531 27.808594 C 83.53125 27.3125 84.929688 26.847656 86.339844 26.421875 C 87.746094 25.996094 89.164062 25.601562 90.59375 25.246094 C 92.023438 24.886719 93.457031 24.5625 94.902344 24.277344 C 96.347656 23.988281 97.796875 23.738281 99.253906 23.523438 C 100.710938 23.304688 102.171875 23.125 103.636719 22.980469 C 105.101562 22.835938 106.570312 22.730469 108.039062 22.65625 C 109.511719 22.585938 110.980469 22.546875 112.453125 22.546875 Z M 112.453125 22.546875 " fill-opacity="1" fill-rule="nonzero"/></g><path fill="#ffffff" d="M 140.125 78.226562 L 57.113281 78.226562 C 55.382812 78.226562 53.820312 79.644531 53.621094 81.398438 C 53.425781 83.148438 54.671875 84.570312 56.40625 84.570312 L 87.746094 84.570312 C 89.480469 84.570312 90.738281 85.988281 90.554688 87.742188 C 90.371094 89.496094 88.8125 90.914062 87.078125 90.914062 L 61.722656 90.914062 C 59.984375 90.914062 58.417969 92.335938 58.222656 94.085938 C 58.03125 95.839844 59.28125 97.257812 61.019531 97.257812 L 73.351562 97.257812 L 73.34375 97.304688 L 78.554688 97.304688 C 80.296875 97.304688 81.554688 98.722656 81.371094 100.476562 C 81.203125 102.054688 79.917969 103.359375 78.394531 103.601562 L 46.203125 103.601562 C 44.460938 103.601562 42.890625 105.023438 42.691406 106.773438 C 42.492188 108.527344 43.742188 109.945312 45.488281 109.945312 L 83.523438 109.945312 C 85.265625 109.945312 86.53125 111.367188 86.34375 113.117188 C 86.160156 114.871094 84.597656 116.292969 82.851562 116.292969 L 66.355469 116.292969 C 64.609375 116.292969 63.039062 117.710938 62.847656 119.464844 C 62.65625 121.214844 63.917969 122.636719 65.664062 122.636719 L 75.6875 122.636719 C 77.4375 122.636719 78.703125 124.054688 78.515625 125.808594 C 78.332031 127.5625 76.761719 128.980469 75.011719 128.980469 L 58.238281 128.980469 C 56.488281 128.980469 54.914062 130.402344 54.71875 132.152344 C 54.527344 133.90625 55.789062 135.324219 57.539062 135.324219 L 84.335938 135.324219 C 84.335938 127.285156 90.855469 120.769531 98.894531 120.769531 C 106.9375 120.769531 113.453125 127.285156 113.453125 135.324219 L 141.992188 135.324219 L 146.671875 85.546875 C 147.050781 81.507812 144.121094 78.234375 140.125 78.234375 Z M 140.125 78.226562 " fill-opacity="1" fill-rule="nonzero"/><path fill="#ffffff" d="M 98.894531 123.753906 C 92.507812 123.753906 87.332031 128.929688 87.332031 135.316406 C 87.332031 141.703125 92.507812 146.878906 98.894531 146.878906 C 105.277344 146.878906 110.453125 141.703125 110.453125 135.316406 C 110.453125 128.929688 105.277344 123.753906 98.894531 123.753906 Z M 98.894531 140.445312 C 96.066406 140.445312 93.765625 138.140625 93.765625 135.316406 C 93.765625 132.488281 96.066406 130.1875 98.894531 130.1875 C 101.71875 130.1875 104.019531 132.488281 104.019531 135.316406 C 104.019531 138.140625 101.71875 140.445312 98.894531 140.445312 Z M 98.894531 140.445312 " fill-opacity="1" fill-rule="nonzero"/><path fill="#ffffff" d="M 181.460938 108.609375 L 172.160156 92.59375 C 170.273438 89.335938 166.820312 87.355469 163.011719 87.355469 L 149.828125 87.355469 L 145.949219 127.578125 C 148.527344 123.484375 153.085938 120.761719 158.277344 120.761719 C 166.316406 120.761719 172.835938 127.277344 172.835938 135.320312 L 177.84375 135.320312 C 180.183594 135.320312 182.160156 133.417969 182.253906 131.078125 L 182.917969 114.554688 C 183.003906 112.453125 182.496094 110.390625 181.457031 108.609375 Z M 153.148438 104.902344 L 154.367188 93.085938 L 163.476562 93.085938 C 165.105469 93.085938 166.519531 93.917969 167.257812 95.3125 L 172.402344 104.902344 Z M 153.148438 104.902344 " fill-opacity="1" fill-rule="nonzero"/><path fill="#ffffff" d="M 158.28125 123.753906 C 151.898438 123.753906 146.722656 128.929688 146.722656 135.316406 C 146.722656 141.703125 151.898438 146.878906 158.28125 146.878906 C 164.667969 146.878906 169.84375 141.703125 169.84375 135.316406 C 169.84375 128.929688 164.667969 123.753906 158.28125 123.753906 Z M 158.28125 140.445312 C 155.457031 140.445312 153.15625 138.140625 153.15625 135.316406 C 153.15625 132.488281 155.457031 130.1875 158.28125 130.1875 C 161.109375 130.1875 163.410156 132.488281 163.410156 135.316406 C 163.410156 138.140625 161.109375 140.445312 158.28125 140.445312 Z M 158.28125 140.445312 " fill-opacity="1" fill-rule="nonzero"/></svg>