<svg xmlns="http://www.w3.org/2000/svg" xmlns:xlink="http://www.w3.org/1999/xlink" width="300" zoomAndPan="magnify" viewBox="0 0 224.87999 225" height="300" preserveAspectRatio="xMidYMid meet" version="1.0"><defs><clipPath id="db8cba12d1"><path d="M 20.085938 23 L 202.238281 23 L 202.238281 206 L 20.085938 206 Z M 20.085938 23 " clip-rule="nonzero"/></clipPath></defs><g clip-path="url(#db8cba12d1)"><path fill="#ff66c4" d="M 111.238281 23.8125 C 109.746094 23.8125 108.257812 23.851562 106.765625 23.925781 C 105.277344 24 103.789062 24.113281 102.304688 24.261719 C 100.824219 24.40625 99.34375 24.589844 97.867188 24.8125 C 96.394531 25.03125 94.925781 25.289062 93.460938 25.582031 C 92 25.871094 90.546875 26.199219 89.097656 26.5625 C 87.652344 26.925781 86.214844 27.324219 84.789062 27.761719 C 83.363281 28.195312 81.945312 28.664062 80.542969 29.164062 C 79.140625 29.667969 77.75 30.207031 76.371094 30.777344 C 74.992188 31.347656 73.628906 31.953125 72.28125 32.59375 C 70.933594 33.230469 69.605469 33.902344 68.289062 34.605469 C 66.972656 35.308594 65.675781 36.042969 64.398438 36.8125 C 63.121094 37.578125 61.859375 38.375 60.621094 39.203125 C 59.378906 40.035156 58.160156 40.894531 56.964844 41.78125 C 55.765625 42.671875 54.589844 43.585938 53.4375 44.535156 C 52.285156 45.480469 51.15625 46.453125 50.050781 47.457031 C 48.945312 48.457031 47.867188 49.484375 46.8125 50.539062 C 45.757812 51.59375 44.730469 52.675781 43.730469 53.777344 C 42.726562 54.882812 41.753906 56.011719 40.808594 57.164062 C 39.859375 58.316406 38.941406 59.492188 38.054688 60.691406 C 37.164062 61.886719 36.308594 63.105469 35.476562 64.347656 C 34.648438 65.585938 33.851562 66.847656 33.085938 68.125 C 32.316406 69.402344 31.582031 70.699219 30.878906 72.015625 C 30.175781 73.332031 29.503906 74.660156 28.867188 76.011719 C 28.226562 77.359375 27.621094 78.71875 27.050781 80.097656 C 26.480469 81.476562 25.941406 82.867188 25.4375 84.269531 C 24.933594 85.671875 24.46875 87.089844 24.03125 88.515625 C 23.597656 89.941406 23.199219 91.378906 22.835938 92.824219 C 22.472656 94.273438 22.144531 95.726562 21.855469 97.1875 C 21.5625 98.652344 21.304688 100.121094 21.085938 101.59375 C 20.863281 103.070312 20.679688 104.550781 20.535156 106.035156 C 20.386719 107.515625 20.273438 109.003906 20.199219 110.492188 C 20.125 111.984375 20.085938 113.472656 20.085938 114.964844 C 25.097656 235.871094 197.378906 235.871094 202.390625 114.964844 C 202.390625 113.472656 202.351562 111.984375 202.277344 110.492188 C 202.203125 109.003906 202.089844 107.515625 201.941406 106.035156 C 201.796875 104.550781 201.609375 103.070312 201.390625 101.59375 C 201.171875 100.121094 200.914062 98.652344 200.621094 97.1875 C 200.332031 95.726562 200.003906 94.273438 199.640625 92.824219 C 199.277344 91.378906 198.878906 89.941406 198.441406 88.515625 C 198.007812 87.089844 197.539062 85.671875 197.039062 84.269531 C 196.535156 82.867188 195.996094 81.476562 195.425781 80.097656 C 194.855469 78.71875 194.25 77.359375 193.609375 76.011719 C 192.972656 74.660156 192.300781 73.332031 191.597656 72.015625 C 190.894531 70.699219 190.160156 69.402344 189.390625 68.125 C 188.625 66.847656 187.828125 65.585938 186.996094 64.347656 C 186.167969 63.105469 185.308594 61.886719 184.421875 60.691406 C 183.53125 59.492188 182.617188 58.316406 181.667969 57.164062 C 180.722656 56.011719 179.75 54.882812 178.746094 53.777344 C 177.746094 52.675781 176.71875 51.59375 175.664062 50.539062 C 174.609375 49.484375 173.527344 48.457031 172.425781 47.457031 C 171.320312 46.453125 170.191406 45.480469 169.039062 44.535156 C 167.886719 43.585938 166.710938 42.671875 165.511719 41.78125 C 164.316406 40.894531 163.097656 40.035156 161.855469 39.203125 C 160.617188 38.375 159.355469 37.578125 158.078125 36.8125 C 156.800781 36.042969 155.503906 35.308594 154.1875 34.605469 C 152.871094 33.902344 151.539062 33.230469 150.191406 32.59375 C 148.84375 31.953125 147.484375 31.347656 146.105469 30.777344 C 144.726562 30.207031 143.335938 29.667969 141.933594 29.164062 C 140.527344 28.664062 139.113281 28.195312 137.6875 27.761719 C 136.261719 27.324219 134.824219 26.925781 133.378906 26.5625 C 131.929688 26.199219 130.476562 25.871094 129.015625 25.582031 C 127.550781 25.289062 126.082031 25.03125 124.609375 24.8125 C 123.132812 24.589844 121.652344 24.40625 120.167969 24.261719 C 118.683594 24.113281 117.199219 24 115.710938 23.925781 C 114.21875 23.851562 112.730469 23.8125 111.238281 23.8125 Z M 84.28125 86.835938 L 60.714844 112.492188 L 84.28125 138.207031 L 74.648438 147 L 43.003906 112.492188 L 74.648438 77.984375 Z M 91.054688 149.015625 L 119.246094 76.160156 L 131.421875 80.914062 L 103.230469 153.769531 Z M 138.191406 138.207031 L 161.761719 112.492188 L 138.191406 86.835938 L 147.828125 77.984375 L 179.472656 112.492188 L 147.828125 147 Z M 138.191406 138.207031 " fill-opacity="1" fill-rule="nonzero"/></g></svg>