<svg xmlns="http://www.w3.org/2000/svg" xmlns:xlink="http://www.w3.org/1999/xlink" width="300" zoomAndPan="magnify" viewBox="0 0 224.87999 225" height="300" preserveAspectRatio="xMidYMid meet" version="1.0"><defs><clipPath id="702b96f345"><path d="M 30 22.546875 L 195 22.546875 L 195 202.453125 L 30 202.453125 Z M 30 22.546875 " clip-rule="nonzero"/></clipPath></defs><g clip-path="url(#702b96f345)"><path fill="#1a5da9" d="M 70.921875 95.695312 L 70.921875 135.234375 L 80.808594 135.234375 L 80.808594 95.695312 C 80.808594 94.605469 81.695312 93.71875 82.785156 93.71875 L 99.589844 93.71875 L 99.589844 83.835938 L 52.140625 83.835938 L 52.140625 93.71875 L 68.945312 93.71875 C 70.039062 93.71875 70.921875 94.605469 70.921875 95.695312 M 30.394531 175.007812 L 121.335938 186.375 C 121.335938 183.609375 121.335938 42.871094 121.335938 40.601562 L 30.394531 51.972656 L 30.394531 175.007812 M 48.1875 81.855469 C 48.1875 80.765625 49.074219 79.878906 50.164062 79.878906 L 101.566406 79.878906 C 102.660156 79.878906 103.542969 80.765625 103.542969 81.855469 L 103.542969 95.695312 C 103.542969 96.789062 102.660156 97.671875 101.566406 97.671875 L 84.761719 97.671875 L 84.761719 137.210938 C 84.761719 138.304688 83.878906 139.1875 82.785156 139.1875 L 68.945312 139.1875 C 67.855469 139.1875 66.96875 138.304688 66.96875 137.210938 L 66.96875 97.671875 L 50.164062 97.671875 C 49.074219 97.671875 48.1875 96.789062 48.1875 95.695312 L 48.1875 81.855469 M 137.285156 81.855469 C 143.824219 81.855469 149.144531 76.535156 149.144531 69.996094 C 149.144531 63.453125 143.824219 58.132812 137.285156 58.132812 C 130.742188 58.132812 125.421875 63.453125 125.421875 69.996094 C 125.421875 76.535156 130.742188 81.855469 137.285156 81.855469 M 174.714844 87.789062 C 181.253906 87.789062 186.578125 82.464844 186.578125 75.925781 C 186.578125 69.386719 181.253906 64.0625 174.714844 64.0625 C 168.175781 64.0625 162.851562 69.386719 162.851562 75.925781 C 162.851562 82.464844 168.175781 87.789062 174.714844 87.789062 M 141.105469 190.589844 C 137.835938 190.589844 135.175781 193.25 135.175781 196.519531 C 135.175781 199.792969 137.835938 202.453125 141.105469 202.453125 C 144.375 202.453125 147.035156 199.792969 147.035156 196.519531 C 147.035156 193.25 144.375 190.589844 141.105469 190.589844 M 162.851562 99.648438 L 162.851562 141.167969 C 166.257812 143.722656 170.4375 145.121094 174.714844 145.121094 C 185.617188 145.121094 194.484375 136.25 194.484375 125.351562 L 194.484375 99.648438 L 162.851562 99.648438 M 125.289062 155.277344 C 129.007812 158.933594 133.890625 160.9375 139.128906 160.9375 C 150.046875 160.9375 158.898438 152.042969 158.898438 141.167969 C 158.898438 138.382812 158.898438 96.464844 158.898438 93.71875 L 125.289062 93.71875 C 125.289062 106.550781 125.289062 142.390625 125.289062 155.277344 M 53.132812 28.480469 C 54.769531 28.480469 56.097656 27.152344 56.097656 25.511719 C 56.097656 23.875 54.769531 22.546875 53.132812 22.546875 C 51.492188 22.546875 50.164062 23.875 50.164062 25.511719 C 50.164062 27.152344 51.492188 28.480469 53.132812 28.480469 M 138.140625 28.480469 C 139.777344 28.480469 141.105469 27.152344 141.105469 25.511719 C 141.105469 23.875 139.777344 22.546875 138.140625 22.546875 C 136.503906 22.546875 135.175781 23.875 135.175781 25.511719 C 135.175781 27.152344 136.503906 28.480469 138.140625 28.480469 M 189.542969 180.707031 C 191.179688 180.707031 192.507812 179.378906 192.507812 177.738281 C 192.507812 176.101562 191.179688 174.773438 189.542969 174.773438 C 187.902344 174.773438 186.578125 176.101562 186.578125 177.738281 C 186.578125 179.378906 187.902344 180.707031 189.542969 180.707031 M 163.839844 194.542969 C 165.480469 194.542969 166.804688 193.214844 166.804688 191.578125 C 166.804688 189.941406 165.480469 188.613281 163.839844 188.613281 C 162.203125 188.613281 160.875 189.941406 160.875 191.578125 C 160.875 193.214844 162.203125 194.542969 163.839844 194.542969 M 51.152344 196.519531 C 52.792969 196.519531 54.121094 195.195312 54.121094 193.554688 C 54.121094 191.917969 52.792969 190.589844 51.152344 190.589844 C 49.515625 190.589844 48.1875 191.917969 48.1875 193.554688 C 48.1875 195.195312 49.515625 196.519531 51.152344 196.519531 " fill-opacity="1" fill-rule="nonzero"/></g></svg>